<?xml version="1.0" encoding="utf-8"?>
<!-- Generator: Adobe Illustrator 17.0.0, SVG Export Plug-In . SVG Version: 6.00 Build 0)  -->
<!DOCTYPE svg PUBLIC "-//W3C//DTD SVG 1.1//EN" "http://www.w3.org/Graphics/SVG/1.1/DTD/svg11.dtd">
<svg version="1.1" xmlns="http://www.w3.org/2000/svg" xmlns:xlink="http://www.w3.org/1999/xlink" x="0px" y="0px" width="320px"
	 height="88px" viewBox="0 0 320 88" enable-background="new 0 0 320 88" xml:space="preserve">
<g id="backup" display="none">
	
		<text transform="matrix(1 0 0 1 197.2471 65.8516)" display="inline" fill="#FFFFFF" font-family="'KozMinPr6N-Heavy-83pv-RKSJ-H'" font-size="55.475">流血</text>
	
		<text transform="matrix(1 0 0 1 13.6572 65.9189)" display="inline" fill="#FFFFFF" font-family="'KozMinPr6N-Heavy-83pv-RKSJ-H'" font-size="55.475">行政院</text>
	
		<text transform="matrix(1 0 0 1 175.7705 65.9814)" display="inline" fill="#FFFFFF" font-family="'KozMinPr6N-Heavy-83pv-RKSJ-H'" font-size="53.2351">･</text>
</g>
<g id="backgrounds">
	<rect fill="#4D4D4D" width="320" height="88"/>
</g>
<g id="stripes">
</g>
<g id="main">
	<g>
		<path fill="#FFFFFF" d="M198.744,33.783c7.934,0.444,10.597,3.163,10.597,5.548c0,2.163-2.052,4.05-4.272,4.05
			c-1.054,0-2.163-0.388-3.106-1.442c-0.278-2.774-1.61-5.992-3.551-7.822L198.744,33.783z M202.295,54.144
			c0.943,0,1.165,0,1.886-1.11c1.388-2.052,1.388-2.052,11.595-22.524l0.832,0.167c-2.496,7.711-6.935,21.748-6.935,25.632
			c0.167,3.106,2.607,4.715,2.607,9.431c0,4.051-2.996,5.437-5.548,5.437c-1.387,0-3.051-0.721-3.662-2.885
			c0.5-2.552,0.778-5.048,0.778-7.101c0-4.826-0.888-5.714-4.106-6.047v-0.999c1.942,0,2.552-0.056,2.552-0.056V54.144z
			 M201.407,19.636c8.711,0,11.595,2.83,11.595,5.437c0,2.163-1.998,4.161-4.216,4.161c-0.999,0-1.998-0.388-2.941-1.22
			c-0.777-2.885-2.552-6.158-4.715-8.045L201.407,19.636z M211.893,70.622c6.546-5.548,7.267-13.648,7.267-19.862v-5.659
			l9.099,0.722c-0.056,0.777-0.499,1.053-1.998,1.276v3.717c-0.111,6.768-2.108,15.923-13.925,20.306L211.893,70.622z
			 M215.61,36.501c1.664,0,4.106,0,7.046-0.056c1.165-2.941,2.386-6.325,3.218-8.932h-11.263l-0.221-0.888h13.536v-8.211
			l9.876,0.943c-0.056,0.777-0.554,1.165-2.163,1.388v5.881h4.826l3.717-5.215l6.824,5.326c-0.443,0.61-1.22,0.777-2.719,0.777
			H235.25c-2.552,2.83-5.548,6.047-8.432,8.877c3.772-0.056,8.1-0.222,12.593-0.332c-1.053-1.998-2.385-3.828-3.772-5.216
			l0.388-0.332c9.876,1.886,13.094,5.992,13.094,9.265c0,2.442-1.831,4.328-4.051,4.328c-0.943,0-1.997-0.389-2.995-1.276
			c-0.389-1.609-0.999-3.384-1.775-5.048c-4.772,1.498-11.208,3.384-20.029,5.658c-0.389,0.666-1.054,1.11-1.72,1.221L215.61,36.501
			z M235.305,66.905c0,0.056-1.387,1.664-6.99,1.664V45.267l8.655,0.721c-0.111,0.611-0.443,0.943-1.664,1.165V66.905z
			 M249.286,58.86l0.056,4.605c1.942,0.999,2.109,1.22,2.109,2.441c0,2.552-1.553,4.494-5.159,4.494h-2.441
			c-5.105,0-6.215-1.332-6.215-8.211V45.156l9.043,0.888c-0.111,0.721-0.499,1.054-1.775,1.276v15.257c0,1.331,0,1.498,0.389,1.498
			c1.664,0,1.886,0,2.109-0.499c0.277-0.555,0.832-2.22,1.387-4.716H249.286z"/>
		<path fill="#FFFFFF" d="M302.264,60.635l5.881,5.825c-0.444,0.611-1.165,0.777-2.719,0.777h-51.32l-0.221-0.888h6.269V29.567
			l8.155,3.051h4.494c0.888-4.272,1.665-9.431,2.109-13.037l11.818,2.941c-0.222,0.721-0.722,1.054-2.22,0.999
			c-2.108,2.496-5.382,5.992-8.766,9.098h15.479l3.217-4.216l7.822,5.382c-0.388,0.554-1.054,0.888-2.496,1.165v29.903
			L302.264,60.635z M267.811,33.505v32.844h3.052V33.505H267.811z M281.238,33.505h-3.163v32.844h3.163V33.505z M291.723,33.505
			h-3.217v32.844h3.217V33.505z"/>
	</g>
	<g>
		<path fill="#FFFFFF" d="M15.043,34.905c4.772-4.661,9.599-11.818,11.818-16.478l8.71,5.437c-0.277,0.444-0.61,0.722-1.442,0.722
			c-0.167,0-0.444,0-0.721-0.056c-4.327,3.772-10.985,8.21-18.031,10.984L15.043,34.905z M15.154,52.492
			c5.604-6.546,11.096-16.588,13.537-22.802l9.376,5.271c-0.277,0.554-0.832,0.888-2.219,0.777
			c-1.387,1.664-3.052,3.495-4.937,5.382l1.83,0.666c-0.166,0.5-0.666,0.888-1.72,1.11v26.353c0,0-1.276,1.998-8.044,1.998V48.109
			c-2.331,1.831-4.827,3.495-7.435,4.938L15.154,52.492z M60.703,33.962l7.046,5.326c-0.443,0.61-1.221,0.777-2.719,0.777h-6.768
			v21.36c0,5.271-1.388,9.21-10.264,9.876c0-6.824-2.663-7.878-6.99-8.544v-0.611h8.267c0.554,0,0.777-0.277,0.777-0.832V40.064
			H35.405l-0.222-0.888h21.637L60.703,33.962z M64.864,23.864c-0.443,0.611-1.22,0.778-2.719,0.778H38.344l-0.222-0.889h16.2
			l3.717-4.993L64.864,23.864z"/>
		<path fill="#FFFFFF" d="M123.224,32.02c-0.443,0.61-1.276,0.777-2.774,0.777h-0.666c-1.221,9.377-3.551,17.421-8.156,23.912
			c3.273,2.885,7.324,5.16,12.15,6.825l-0.11,0.61c-3.995,0.999-6.104,3.44-7.047,7.379c-4.105-2.386-7.212-5.659-9.542-9.653
			c-4.383,3.994-10.097,7.157-17.698,9.376l-0.222-0.61c7.101-3.551,12.04-8.211,15.424-13.982
			c-1.72-4.549-2.885-9.764-3.662-15.645c-1.72,2.441-3.717,4.549-5.992,6.38l-0.666-0.389c0.721-1.387,1.387-3.051,2.052-4.937
			h-6.325v14.591c3.385-0.443,6.936-0.888,10.542-1.387l0.056,0.61c-4.994,2.663-12.761,5.993-24.855,10.431
			c-0.389,0.721-0.999,1.22-1.665,1.387l-3.994-8.821c0.832-0.056,1.886-0.167,3.052-0.278V34.239l8.266,0.777
			c-0.111,0.61-0.499,0.888-1.775,1.11v21.748l2.885-0.333V25.418H71.184l-0.222-0.888h17.754l3.828-5.049l6.935,5.16
			c-0.389,0.61-1.221,0.777-2.663,0.777h-6.825v15.091l2.941-4.549l4.106,3.662c1.72-6.103,2.829-13.704,3.106-21.139l10.819,1.998
			c-0.167,0.777-0.61,1.221-2.164,1.388c-0.832,3.661-1.831,6.99-3.051,10.041h6.047l4.05-5.603L123.224,32.02z M105.414,32.796
			c-1.054,2.497-2.219,4.772-3.551,6.825c1.165,4.66,2.885,8.655,5.215,11.983c2.275-5.493,3.495-11.762,4.162-18.808H105.414z"/>
		<path fill="#FFFFFF" d="M141.639,18.816l6.657,6.713c-0.443,0.555-1.164,0.778-2.441,0.778c-1.775,3.106-5.215,8.877-7.767,12.372
			c5.714,3.495,8.821,7.767,8.877,12.261v0.388c0,5.326-2.164,9.099-8.655,9.654c0-3.052-0.222-5.493-2.608-6.269V68.97
			c0,0.499-2.219,2.274-5.881,2.274h-1.331V19.87l7.989,2.941h1.498L141.639,18.816z M135.702,54.045h2.331
			c1.387,0,1.775-1.276,1.775-3.44c0-4.105-0.61-8.321-2.663-11.761c0.443-3.717,1.11-10.93,1.442-15.146h-2.885V54.045z
			 M176.591,57.873v5.715c2.109,0.998,2.331,1.387,2.331,2.33c0,2.663-1.886,4.161-6.714,4.161h-3.217
			c-6.214,0-7.268-1.553-7.268-7.545V47.221h-0.332c-0.111,0.666-0.666,0.999-2.053,1.165c-0.832,9.653-4.051,19.029-17.92,22.913
			l-0.389-0.61c8.6-4.549,10.598-13.926,10.708-23.468h-5.326l-0.221-0.888h22.413l3.551-4.937l6.491,5.048
			c-0.443,0.61-1.22,0.777-2.663,0.777h-4.993c-0.167,0.444-0.555,0.777-1.775,0.943V62.59c0,1.331,0,1.387,0.721,1.387h2.164
			c0.721,0,1.109-0.056,1.609-0.721c0.554-0.666,1.442-2.719,2.496-5.382H176.591z M170.156,33.628
			c0.167-1.609,0.388-3.827,0.499-5.436h-18.141c0.166,0.832,0.221,1.664,0.221,2.385c0,3.329-1.609,5.548-4.438,5.548
			c-1.886,0-3.717-1.054-3.717-3.274c0-1.609,1.221-2.884,2.774-3.606c1.499-0.777,3.385-2.719,3.274-4.66h0.721
			c0.388,0.942,0.721,1.885,0.943,2.718h5.271v-8.821l9.709,0.943c-0.111,0.666-0.554,0.999-1.942,1.221v6.657h4.772l3.551-3.551
			l6.158,5.881c-0.444,0.443-0.999,0.61-2.109,0.666c-1.664,1.221-4.383,2.996-6.491,4.161l3.385,2.497
			c-0.444,0.61-1.221,0.777-2.663,0.777h-21.028l-0.221-0.888h14.147l3.44-4.605L170.156,33.628z"/>
	</g>
	<g>
		<path fill="#FFFFFF" d="M183.222,45.753c0-3.247,2.607-5.855,5.855-5.855c3.247,0,5.855,2.608,5.855,5.855
			c0,3.248-2.608,5.855-5.855,5.855C185.723,51.608,183.222,48.893,183.222,45.753z"/>
	</g>
</g>
<g id="secondary">
</g>
</svg>
