<?xml version="1.0" encoding="utf-8"?>
<!-- Generator: Adobe Illustrator 17.0.0, SVG Export Plug-In . SVG Version: 6.00 Build 0)  -->
<!DOCTYPE svg PUBLIC "-//W3C//DTD SVG 1.1//EN" "http://www.w3.org/Graphics/SVG/1.1/DTD/svg11.dtd">
<svg version="1.1" xmlns="http://www.w3.org/2000/svg" xmlns:xlink="http://www.w3.org/1999/xlink" x="0px" y="0px" width="320px"
	 height="88px" viewBox="0 0 320 88" enable-background="new 0 0 320 88" xml:space="preserve">
<g id="backup" display="none">
	<g display="inline">
		
			<text transform="matrix(1 0 0 1 53.2217 68.9111)" fill="#FFFFFF" font-family="'KozMinPr6N-Heavy-83pv-RKSJ-H'" font-size="64.3997">重新開始</text>
	</g>
	
		<text transform="matrix(1 0 0 1 26.2432 15.5654)" display="inline" fill="#FFFFFF" font-family="'KozMinPr6N-Heavy-83pv-RKSJ-H'" font-size="29.2007" glyph-orientation-vertical="0" writing-mode="tb">結束</text>
	
		<text transform="matrix(1 0 0 1 36.3213 65.7559)" display="inline" fill="#FFFFFF" font-family="'KozMinPr6N-Heavy-83pv-RKSJ-H'" font-size="54.4987">･</text>
</g>
<g id="backgrounds">
	<rect fill="#4D4D4D" width="320" height="88"/>
</g>
<g id="stripes">
</g>
<g id="main">
	<g>
		<g>
			<path fill="#FFFFFF" d="M106.417,63.695l9.467,6.891c-0.451,0.708-1.288,0.901-3.221,0.901h-57.38l-0.323-1.03h25.375v-8.243
				h-19.9l-0.322-1.03h20.222v-7.664h-7.213v0.516c0,0.257-1.481,3.413-9.338,3.413V32.267l9.854,3.735h6.698V29.37H56.507
				l-0.322-1.031h24.151v-4.765c-6.634,0.386-13.524,0.516-19.9,0.451l-0.065-0.967c13.782-1.868,31.427-5.989,40.444-9.403
				l7.728,7.729c-0.386,0.322-0.901,0.515-1.609,0.515c-0.773,0-1.675-0.257-2.834-0.708c-4.057,0.645-8.952,1.224-14.233,1.675
				v5.474h11.335l4.701-5.731l8.694,5.86c-0.451,0.773-1.352,0.902-3.091,0.902H89.866v6.633h6.956l3.413-4.508l9.209,6.44
				c-0.386,0.515-1.159,1.095-2.511,1.352v14.941c-0.065,0.322-1.418,1.03-3.221,1.546l8.115,5.538
				c-0.451,0.773-1.353,0.902-3.091,0.902h-18.87v8.243h11.27L106.417,63.695z M80.335,37.033h-7.213v7.084h7.213V37.033z
				 M73.122,52.489h7.213v-7.342h-7.213V52.489z M97.466,37.033h-7.6v7.084h7.6V37.033z M97.466,52.489v-7.342h-7.6v7.342H97.466z
				 M89.866,53.519v7.664h8.952l4.251-5.216c-2.125,0.644-3.284,0.644-5.603,0.644v-3.091H89.866z"/>
			<path fill="#FFFFFF" d="M172.62,31.43l8.372,6.633c-0.516,0.708-1.481,0.902-3.221,0.902h-3.091v33.682
				c-0.065,0.516-2.77,2.383-7.47,2.383h-1.675V38.965h-4.573v2.319c0,11.657-1.159,25.309-17.259,33.682l-0.579-0.644
				c8.114-9.467,8.887-21.51,8.887-33.296v-2.189c-0.515,0.516-1.417,0.645-2.833,0.645H141c-0.065,0.515-0.451,0.901-1.61,1.095
				v7.857h1.932l3.542-5.088l6.44,5.216c-0.451,0.708-1.352,0.902-3.027,0.902h-8.887v3.993l0.065-0.065
				c7.857,1.418,10.497,4.444,10.497,7.085c0,2.318-2.189,4.314-4.508,4.314c-1.159,0-2.383-0.516-3.413-1.738
				c0.065-2.962-0.967-6.505-2.64-8.823v18.419c0,0.708-3.993,2.447-7.084,2.447h-1.739V61.827
				c-3.155,3.284-6.955,6.118-11.077,8.501l-0.579-0.837c4.572-5.345,8.05-13.009,9.982-20.028h-8.823l-0.257-1.03h10.755V39.48
				h-11.141l-0.257-1.031h17.968c0.773-4.122,1.481-9.789,1.803-13.782l10.691,2.383c-0.194,0.773-0.773,1.159-2.448,1.159
				c-2.06,2.962-5.474,7.084-8.759,10.239h3.478l3.607-4.636l6.504,4.636V19.13l9.273,2.833c3.864-2.511,7.793-5.796,9.918-8.179
				l9.338,7.406c-0.451,0.386-1.095,0.645-1.997,0.645c-0.644,0-1.417-0.129-2.318-0.386c-3.735,1.223-9.596,2.318-15.264,2.962
				v13.524h7.084L172.62,31.43z M120.455,24.41l-0.257-1.03h10.305v-9.661l11.528,1.095c-0.129,0.902-0.708,1.353-2.511,1.61v6.956
				h1.03l3.606-5.088l6.633,5.216c-0.45,0.708-1.352,0.902-3.026,0.902H120.455z M125.093,24.925
				c6.247,2.899,8.372,6.183,8.372,8.823c0,2.705-2.254,4.636-4.508,4.636c-1.353,0-2.705-0.644-3.607-2.189
				c0.258-1.159,0.323-2.382,0.323-3.671c0-2.64-0.451-5.409-1.224-7.341L125.093,24.925z"/>
			<path fill="#FFFFFF" d="M202.887,35.938h-7.277v35.42c0,0.323-1.159,3.735-8.823,3.735V15.394l9.145,3.8h6.311l3.027-3.993
				l8.308,5.732c-0.386,0.451-1.095,0.966-2.319,1.224v15.327c0,0.065-2.061,2.319-8.372,2.319V35.938z M202.887,20.224h-7.277
				v6.762h7.277V20.224z M195.611,34.908h7.277v-6.891h-7.277V34.908z M235.281,14.621l8.758,6.44
				c-0.45,0.515-1.287,1.095-2.576,1.352v42.183c0,5.666-1.352,9.788-10.368,10.496c0-7.277-1.868-8.436-5.667-9.015v-0.773h6.376
				c0.451,0,0.644-0.323,0.644-0.902v-8.952c-0.515,0.579-1.352,0.708-2.833,0.708h-5.989v13.846
				c-0.065,0.322-2.383,1.61-6.247,1.61h-1.418V56.16h-4.314c-0.58,5.603-3.091,11.914-13.267,15.778l-0.45-0.644
				c4.83-4.38,6.053-9.854,6.311-15.135h-7.278l-0.257-1.03h7.6V45.019h-5.797l-0.257-1.03h20.608l3.671-4.895l6.762,5.023
				c-0.451,0.773-1.353,0.902-3.027,0.902h-2.64v9.273l2.77-4.057l6.053,4.895V35.938h-7.534v0.322c0,0.194-1.288,3.091-8.502,3.091
				V15.716l8.759,3.478h6.633L235.281,14.621z M211.839,53.004c0,0.709,0,1.418-0.064,2.126h4.185V45.019h-4.122V53.004z
				 M232.447,20.224h-7.534v6.762h7.534V20.224z M224.913,34.908h7.534v-6.891h-7.534V34.908z"/>
			<path fill="#FFFFFF" d="M296.332,48.368l3.671-4.765l8.63,6.247c-0.451,0.515-1.03,0.966-2.511,1.159v21.446
				c0,0.386-2.834,2.06-7.535,2.06h-1.675v-5.216h-10.239v3.22c0,0.58-2.64,2.448-7.085,2.448h-1.609V45.276
				c-0.386,0.257-0.837,0.451-1.288,0.516l-2.576-8.823c-0.708,6.311-1.868,12.365-4.251,17.903c4.637,2.577,6.44,5.861,6.44,8.566
				c0,2.833-1.932,5.023-4.379,5.023c-0.966,0-1.997-0.322-3.091-1.095c-0.644-1.868-1.674-3.735-2.898-5.603
				c-3.8,5.41-9.338,9.982-17.517,13.331l-0.322-0.772c6.761-4.637,10.947-10.82,13.523-17.904
				c-1.095-1.159-2.318-2.189-3.542-3.155l-0.708,3.542c-0.902,0.708-2.512,1.095-4.38,1.095c-1.352,0-2.898-0.193-4.444-0.579
				c1.418-6.183,3.478-17.067,5.024-26.727h-5.346l-0.322-1.03h5.86c1.031-6.44,1.868-12.3,2.19-15.649l10.947,1.159
				c-0.128,0.836-0.644,1.417-2.511,1.609l-2.125,12.881h2.833l4.251-4.573l7.663,6.634c-0.45,0.772-1.03,1.03-2.511,1.287
				c-0.065,0.966-0.193,1.997-0.257,2.962c1.738,0,4.25-0.065,7.277-0.128c1.675-6.956,3.221-15.778,4.122-21.897l12.945,3.22
				c-0.258,0.773-0.837,1.224-2.64,1.159c-2.705,4.702-7.278,11.592-11.914,17.453c4.508-0.129,9.789-0.322,15.263-0.58
				c-0.837-3.027-2.125-5.925-3.735-8.05l0.515-0.322c10.047,3.412,13.332,8.436,13.332,12.3c0,3.284-2.383,5.796-5.088,5.796
				c-1.287,0-2.704-0.579-3.928-1.996c0-1.739-0.194-3.672-0.579-5.603c-5.024,1.931-11.85,4.25-21.059,7.084
				c-0.129,0.257-0.322,0.515-0.516,0.708l9.145,3.349H296.332z M262.135,30.592c-1.159,6.891-2.576,14.684-3.735,20.867
				c1.675,0.193,3.156,0.515,4.573,0.836c1.803-6.698,2.511-14.039,2.833-21.703H262.135z M286.672,68.267h10.239v-18.87h-10.239
				V68.267z"/>
		</g>
	</g>
	<g>
		<path fill="#FFFFFF" d="M40.284,21.875c-0.233,0.321-0.642,0.409-1.43,0.409H33.89v6.277h0.409l1.927-2.569l3.533,2.627
			c-0.204,0.322-0.643,0.41-1.401,0.41H24.781l-0.118-0.467h4.993v-6.277h-5.314l-0.088-0.321c-0.117,0.175-0.35,0.262-0.701,0.262
			c-0.117,0-0.263,0-0.409-0.029c-1.46,1.985-3.708,4.642-6.014,6.949l3.621-0.088c-0.175-0.73-0.438-1.401-0.759-1.927l0.263-0.146
			c3.328,1.08,4.438,2.598,4.438,3.825c0,1.138-0.993,2.044-2.044,2.044c-0.584,0-1.168-0.263-1.635-0.906
			c0.03-0.204,0.03-0.409,0.03-0.642c0-0.438-0.03-0.905-0.118-1.343l-0.496,0.175v3.416l0.175-0.088
			c3.065,1.313,4.088,2.89,4.088,4.146c0,1.197-0.935,2.073-1.927,2.073c-0.555,0-1.109-0.263-1.548-0.876
			c0.03-0.263,0.059-0.555,0.059-0.847c0-1.401-0.351-2.978-0.847-4.116v9.196c0,0.204-1.168,1.022-3.094,1.022h-0.701v-8.847
			c-0.876,2.861-2.19,5.255-3.971,6.686l-0.409-0.234c0.73-1.897,1.197-5.167,1.285-8.234l3.095,0.614v-2.54
			c-0.701,0.233-1.46,0.496-2.277,0.759c-0.204,0.379-0.555,0.613-0.876,0.642l-1.197-3.766h3.562
			c1.401-2.92,2.832-6.54,3.707-9.167l4.789,1.839h5.314v-5.489l5.226,0.497c-0.058,0.35-0.292,0.554-0.993,0.671v4.321h0.788
			l1.956-2.627L40.284,21.875z M12.547,21.32c1.022,0.146,1.869,0.38,2.54,0.643c0.409-1.577,0.817-3.767,1.139-5.693l4.963,1.605
			c-0.117,0.38-0.438,0.584-1.197,0.584c-1.197,1.489-2.569,2.92-3.913,4c0.964,0.613,1.313,1.342,1.313,2.014
			c0,1.022-0.905,1.898-1.897,1.898c-0.496,0-0.993-0.204-1.43-0.702c-0.118-1.43-0.818-3.153-1.723-4.175L12.547,21.32z
			 M33.745,32.619l1.693-2.161l3.941,2.832c-0.204,0.233-0.496,0.409-1.168,0.525v9.11c0,0.175-1.285,0.905-3.445,0.905h-0.73
			v-2.073h-4.525v1.168c0,0.263-1.227,1.109-3.271,1.109h-0.73V31.014l4.292,1.605H33.745z M29.511,41.29h4.525v-8.204h-4.525V41.29
			z"/>
		<path fill="#FFFFFF" d="M31.846,61.499h-3.007c2.306,3.357,6.949,5.722,11.24,6.657l-0.058,0.35
			c-1.49,0.351-2.657,1.664-3.095,3.592c-4.321-2.073-6.949-5.548-8.583-10.599h-0.088v10.277c0,0.41-1.869,1.46-3.474,1.46h-0.818
			v-7.854c-2.802,2.949-6.744,5.226-11.474,6.804l-0.204-0.41c4.204-2.51,7.532-6.511,9.284-10.277h-1.08v0.292
			c0,0.117-0.672,1.548-4.233,1.548V52.74l4.497,1.693h3.211v-3.796h-11.24l-0.146-0.466h11.386v-4.643l5.401,0.497
			c-0.058,0.438-0.262,0.671-1.109,0.788v3.357h5.138l2.307-2.92l4.233,2.978c-0.204,0.322-0.614,0.409-1.431,0.409H28.255v3.796
			h3.299l1.548-2.044l4.205,2.92c-0.175,0.233-0.555,0.496-1.168,0.613v6.044c0,0.029-1.08,1.08-4.292,1.08V61.499z M20.489,61.031
			h3.474V54.9h-3.474V61.031z M31.846,54.9h-3.591v6.131h3.591V54.9z"/>
	</g>
	<g>
		<path fill="#FFFFFF" d="M43.951,45.049c0-3.324,2.669-5.994,5.994-5.994c3.324,0,5.994,2.67,5.994,5.994
			c0,3.325-2.67,5.994-5.994,5.994C46.511,51.043,43.951,48.263,43.951,45.049z"/>
	</g>
</g>
<g id="secondary">
</g>
</svg>
