<?xml version="1.0" encoding="utf-8"?>
<!-- Generator: Adobe Illustrator 17.0.0, SVG Export Plug-In . SVG Version: 6.00 Build 0)  -->
<!DOCTYPE svg PUBLIC "-//W3C//DTD SVG 1.1//EN" "http://www.w3.org/Graphics/SVG/1.1/DTD/svg11.dtd">
<svg version="1.1" xmlns="http://www.w3.org/2000/svg" xmlns:xlink="http://www.w3.org/1999/xlink" x="0px" y="0px" width="320px"
	 height="320px" viewBox="0 0 320 320" enable-background="new 0 0 320 320" xml:space="preserve">
<g id="backup" display="none">
	
		<text transform="matrix(1 0 0 1 14.2858 98)" display="inline" fill="#FFFFFF" font-family="'KozMinPro-Heavy-83pv-RKSJ-H'" font-size="97.5631">分享</text>
	
		<text transform="matrix(1 0 0 1 281.042 13.248)" display="inline" fill="#FFFFFF" font-family="'KozMinPr6N-Heavy-83pv-RKSJ-H'" font-size="48.2883" glyph-orientation-vertical="0" writing-mode="tb">到臉書</text>
</g>
<g id="backgrounds">
	<rect fill="#3A5A98" width="320" height="320"/>
</g>
<g id="stripes">
</g>
<g id="main">
	<g>
		<path fill="#FFFFFF" d="M16.628,60.633c13.073-12.001,21.659-30.83,25.269-44.88l17.854,7.61
			c-0.487,1.073-1.365,1.854-3.805,1.658c-7.317,13.366-19.903,28.392-38.733,36.587L16.628,60.633z M75.85,56.828l5.562-6.928
			l13.464,10.146c-0.684,0.879-1.952,1.659-4.001,1.952c-1.268,24.586-3.414,37.172-8.976,41.367
			c-3.805,2.829-7.708,4.098-15.415,4.098c0.195-7.61-1.464-11.22-13.269-13.757l0.097-0.976c4.977,0.195,12.488,0.293,14.928,0.391
			c1.659,0,2.439-0.098,3.317-0.878C74.288,90,75.85,77.999,76.825,58.389H61.702c-1.756,16.879-7.414,35.807-40.001,48.782
			L20.823,106c23.025-16.293,24.781-33.659,25.269-47.611H31.165l-0.488-1.561H75.85z M110.485,47.949
			c-5.366,0.878-9.464,5.073-11.61,11.513C85.509,49.218,76.239,35.754,71.752,14.387l1.171-0.585
			c6.438,16.977,23.122,27.123,37.952,33.074L110.485,47.949z"/>
		<path fill="#FFFFFF" d="M194.097,69.316l13.171,9.756c-0.78,1.073-2.049,1.366-4.78,1.366h-35.025v10.927
			c0,8.879-2.342,14.83-18.732,16.099c0-10.635-5.269-12.391-12.977-13.269v-1.171h15.123c1.17,0,1.561-0.391,1.561-1.464V80.438
			h-37.758l-0.487-1.562h38.245v-7.415l11.122,0.586c5.854-2.635,12.586-6.244,17.172-9.171h-59.905l-0.487-1.562h61.563
			l7.805-6.927l12.001,11.415c-0.878,0.878-1.854,1.171-4.098,1.269c-7.025,2.244-17.367,4.293-26.733,5.854
			c-0.195,0.976-0.878,1.464-3.414,1.756v4.195h19.513L194.097,69.316z M116.143,29.314l-0.391-1.562h36.685V14.484l18.732,1.757
			c-0.195,1.365-1.073,2.049-3.707,2.438v9.073h18.342l7.122-9.951l12.879,10.146c-0.684,1.073-1.951,1.366-4.781,1.366H116.143z
			 M189.511,52.925c-0.098,0.684-7.512,2.732-12,2.732h-2.537v-3.513h-29.172v0.585c0,0.293-2.243,5.074-14.146,5.074V31.07
			l14.928,5.659h27.415l5.171-6.83l14.147,9.757c-0.488,0.78-1.757,1.658-3.806,2.146V52.925z M145.802,50.584h29.172V38.29h-29.172
			V50.584z"/>
	</g>
	<path fill="#FFFFFF" d="M292.998,197.689l1.245-9.654h-9.56v-6.164c0-2.795,0.779-4.7,4.787-4.7l5.108-0.003v-8.634
		c-0.882-0.118-3.914-0.381-7.448-0.381c-7.371,0-12.415,4.5-12.415,12.763v7.119h-8.337v9.654h8.337v24.771h9.967v-24.771H292.998z
		"/>
	<g>
		<path fill="#FFFFFF" d="M275.683,18.991l3.187-4.491l5.843,4.588c-0.338,0.531-1.062,0.676-2.318,0.676h-8.548
			c-1.835,3.235-4.202,6.809-6.52,9.609c2.849-0.144,5.988-0.289,9.224-0.482c-0.531-1.546-1.401-3.043-2.463-4.105l0.338-0.289
			c6.906,1.255,9.175,4.153,9.175,6.52c0,2.077-1.69,3.767-3.573,3.767c-0.917,0-1.932-0.387-2.752-1.353
			c0.048-0.966-0.096-1.98-0.29-3.042c-3.428,1.594-8.209,3.525-14.728,5.892c-0.338,0.628-0.966,1.014-1.546,1.11l-2.511-7.726
			c1.448,0,3.67-0.096,6.422-0.193c0.483-2.946,0.966-6.713,1.256-9.707h-7.727l-0.193-0.773H275.683z M283.7,41.785
			c-0.338,0.531-1.063,0.676-2.319,0.676h-7.195v7.775c3.042-0.29,6.278-0.628,9.465-1.015l0.049,0.483
			c-4.154,2.269-10.769,5.167-20.959,8.982c-0.289,0.628-0.869,1.062-1.497,1.208l-3.042-8.257c1.932-0.097,5.215-0.387,9.223-0.725
			v-8.45h-8.596l-0.193-0.773h8.789v-6.906l8.403,0.772c-0.048,0.58-0.482,0.918-1.641,1.111v5.022h0.821l3.091-4.54L283.7,41.785z
			 M293.213,21.309c-0.096,0.676-0.435,1.062-1.835,1.255v24.629c0,0.096-1.11,1.69-6.471,1.69V20.585L293.213,21.309z
			 M295.53,14.886l8.5,0.725c-0.049,0.628-0.29,1.014-1.884,1.255v35.591c0,4.201-0.966,7.34-8.161,8.017
			c0-4.395-1.014-5.941-5.361-6.568v-0.628h6.181c0.531,0,0.724-0.242,0.724-0.773V14.886z"/>
		<path fill="#FFFFFF" d="M273.655,78.387c4.684-4.009,8.885-10.818,10.527-15.647l8.113,2.319c-0.193,0.579-0.628,0.917-2.173,1.11
			c3.332,2.801,8.644,4.829,14.729,5.361v0.676c-2.221,0.966-3.042,3.911-3.332,6.422c-5.07-2.463-9.32-6.809-11.928-12.024
			c-2.656,4.25-9.03,9.852-15.936,12.508v22.648c0,3.767-0.773,6.472-6.23,6.954c0-3.96-0.144-5.312-2.801-5.747v-0.628h2.946
			c0.289,0,0.386-0.193,0.386-0.676V89.735h-2.318c-0.483,6.616-2.028,13.522-6.954,18.882l-0.579-0.289
			c2.125-7.292,2.125-14.971,2.125-27.478V63.754l6.567,2.318h0.724l2.173-2.801l5.505,4.009c-0.241,0.338-0.772,0.675-1.545,0.821
			V78.387z M265.88,80.801c0,2.511,0,5.312-0.193,8.161h2.269V78.193h-2.076V80.801z M267.956,66.845h-2.076v10.576h2.076V66.845z
			 M280.753,91.956c0,0.29-0.628,0.822-1.641,1.208l7.292,2.366c-0.193,0.482-0.579,0.869-1.739,0.869
			c-0.386,0.966-0.821,1.883-1.303,2.849c4.104,0.628,5.554,2.27,5.554,3.815c0,1.594-1.594,3.043-3.332,3.043
			c-0.821,0-1.69-0.338-2.415-1.16c0-1.255-0.337-2.656-0.917-3.815c-2.028,3.139-4.829,5.892-8.741,7.533l-0.338-0.628
			c3.718-3.766,5.264-9.803,5.747-14.777c-1.062,0.386-1.787,0.386-2.994,0.386V79.207l5.022,2.076h1.256l1.69-2.173l4.829,3.284
			c-0.193,0.242-0.676,0.531-1.303,0.628v8.596c0,0.097-1.304,1.256-4.878,1.256v-2.319h-1.787V91.956z M288.721,76.164l2.608-3.284
			l4.877,3.381c-0.338,0.579-1.014,0.675-2.221,0.675h-13.474l-0.241-0.773H288.721z M282.54,82.056h-1.787v7.727h1.787V82.056z
			 M286.018,108.086c4.491-3.525,5.94-9.465,6.229-14.971l7.775,2.028c-0.144,0.483-0.531,0.869-1.69,0.966
			c-0.386,1.159-0.821,2.319-1.401,3.381c5.264,1.062,7.051,3.525,7.051,5.601c0,1.932-1.497,3.525-3.284,3.525
			c-0.773,0-1.642-0.289-2.414-1.062c-0.049-2.173-0.918-4.491-2.319-6.327c-2.076,3.332-5.167,6.085-9.658,7.485L286.018,108.086z
			 M301.229,91.618c-0.049,0.338-2.656,1.256-4.298,1.256h-0.868v-2.319h-1.884v0.966c0,0.096-0.773,1.739-4.974,1.739V79.207
			l5.167,2.076h1.256l1.883-2.414l5.264,3.574c-0.242,0.289-0.773,0.628-1.546,0.821V91.618z M294.178,89.783h1.884v-7.727h-1.884
			V89.783z"/>
		<path fill="#FFFFFF" d="M296.738,122.135v5.554c0,0.193-0.628,0.58-1.545,0.917l5.263,3.478c-0.338,0.579-1.014,0.676-2.269,0.676
			h-13.908v4.443h10.72l3.091-3.815l5.748,3.911c-0.338,0.579-0.966,0.676-2.27,0.676h-43.222l-0.241-0.773h19.316v-4.443h-15.259
			l-0.242-0.773h15.501v-4.395h-13.135l-0.242-0.773h13.376v-4.684h-19.026l-0.193-0.773h19.219v-4.588h-12.845l-0.242-0.772h13.087
			v-5.071l8.741,0.822c-0.096,0.675-0.531,1.062-1.883,1.255v2.994h5.361l2.366-3.091l6.471,4.443
			c-0.29,0.338-0.821,0.724-1.739,0.917v3.043l2.559-3.574l4.781,3.719c-0.338,0.579-0.966,0.675-2.269,0.675H296.738z
			 M289.398,142.032l2.511-3.332l6.858,4.732c-0.289,0.387-0.869,0.869-1.883,1.062v10.528c0,0.048-1.98,1.448-7.002,1.448v-2.898
			h-17.772v0.869c0,0.145-0.966,2.512-6.857,2.512v-17.676l7.292,2.753H289.398z M289.881,142.803h-17.772v4.443h17.772V142.803z
			 M272.109,152.8h17.772v-4.781h-17.772V152.8z M284.279,116.774v4.588h5.843v-4.588H284.279z M284.279,122.135v4.684h5.843v-4.684
			H284.279z M291.861,131.987l2.607-3.139c-1.738,0.58-2.656,0.58-4.346,0.58v-1.835h-5.843v4.395H291.861z"/>
	</g>
	<g>
		<path fill="#FFFFFF" d="M214.441,83.632c14.519,1.876,24.889,8.197,24.889,15.803c0,4.74-3.655,7.506-7.408,7.506
			c-2.37,0-4.74-0.988-6.42-3.26c-0.691-6.124-4.247-14.914-11.555-19.16L214.441,83.632z"/>
	</g>
</g>
<g id="secondary">
</g>
</svg>
