<?xml version="1.0" encoding="utf-8"?>
<!-- Generator: Adobe Illustrator 17.0.0, SVG Export Plug-In . SVG Version: 6.00 Build 0)  -->
<!DOCTYPE svg PUBLIC "-//W3C//DTD SVG 1.1//EN" "http://www.w3.org/Graphics/SVG/1.1/DTD/svg11.dtd">
<svg version="1.1" xmlns="http://www.w3.org/2000/svg" xmlns:xlink="http://www.w3.org/1999/xlink" x="0px" y="0px" width="320px"
	 height="88px" viewBox="0 0 320 88" enable-background="new 0 0 320 88" xml:space="preserve">
<g id="backup" display="none">
	
		<text transform="matrix(1 0 0 1 13.4385 66.0576)" display="inline" fill="#FFFFFF" font-family="'KozMinPr6N-Heavy-83pv-RKSJ-H'" font-size="56.2773">爆發</text>
	
		<text transform="matrix(1 0 0 1 139.1338 66.125)" display="inline" fill="#FFFFFF" font-family="'KozMinPr6N-Heavy-83pv-RKSJ-H'" font-size="56.2773">立法院</text>
	
		<text transform="matrix(1 0 0 1 122.6865 66.1895)" display="inline" fill="#FFFFFF" font-family="'KozMinPr6N-Heavy-83pv-RKSJ-H'" font-size="54.005">･</text>
</g>
<g id="backgrounds">
	<rect fill="#4D4D4D" width="320" height="88"/>
</g>
<g id="stripes">
</g>
<g id="main">
	<g>
		<path fill="#FFFFFF" d="M59.365,54.407c-2.195-2.252-4.052-4.953-5.403-7.486h-5.403c-1.688,2.702-4.334,4.953-7.542,6.811
			c3.49,0.901,4.728,2.363,4.728,3.715c0,1.576-1.688,2.982-3.377,2.982c-0.957,0-1.97-0.45-2.702-1.463
			c0.056-0.338,0.056-0.675,0.056-1.013c0-1.07-0.225-2.195-0.675-3.208c-1.577,0.788-3.321,1.463-5.066,2.082
			c0.675,1.013,0.901,2.026,0.901,2.983c0,2.476-1.97,4.39-4.108,4.39c-1.07,0-2.252-0.562-3.152-1.801
			c0.169-2.476-0.281-5.403-1.125-7.879c-1.577,7.035-4.784,12.551-11.032,16.884l-0.62-0.788
			c4.841-7.317,6.079-16.378,6.248-28.535h-0.056c-0.451,2.533-2.195,4.277-3.996,4.277c-1.463,0-2.645-1.182-2.645-2.814
			c0-0.957,0.45-2.139,1.576-3.264c0.957-1.126,1.745-4.053,1.745-7.711c0-0.788,0-1.688-0.113-2.589l0.732-0.056
			c1.463,3.096,2.363,6.078,2.702,8.612h0.056c0-6.079-0.113-12.945-0.113-20.656l9.568,0.732c-0.056,0.844-0.506,1.294-2.307,1.519
			c-0.056,5.685-0.056,10.863-0.113,15.59h0.056c0.844-3.096,1.576-6.304,1.914-8.161l5.234,3.264V18.274l7.936,3.04h13.508
			l2.702-3.489l7.429,5.009c-0.225,0.394-0.788,0.788-1.745,0.957v8.836c0,0.451-3.771,1.688-6.247,1.745v3.771l2.589-3.546
			l5.797,4.334c-0.393,0.675-1.181,0.788-2.589,0.788h-5.797v6.304h0.168l3.434-4.503l6.415,4.615
			c-0.45,0.675-1.181,0.788-2.702,0.788H55.65c3.209,2.195,8.555,3.377,13.226,3.209l0.225,0.506
			c-2.363,2.364-3.939,5.685-3.827,8.217c-1.181-0.562-2.251-1.295-3.32-2.083c-0.169,0.056-1.07,0-1.238,0
			c-1.464,0.844-4.559,2.195-6.36,3.152l-0.507-0.507c0.675-1.801,1.576-5.065,1.97-6.697L59.365,54.407z M40.229,34.99
			c-1.745,0.731-3.039,0.731-4.896,0.731v-3.152c-1.577,1.857-4.559,5.01-7.26,7.373c-0.113,4.334-0.394,8.274-1.013,11.876
			c2.758,1.126,4.672,2.42,5.909,3.715c2.814-2.364,4.953-5.403,6.304-8.612H31.28l-0.225-0.901h9.174v-6.304h-6.473l-0.224-0.901
			h6.697V34.99z M55.481,50.523c-0.056,0.676-0.393,1.07-2.082,1.295v9.118c1.238-0.113,2.42-0.225,3.433-0.225
			c7.317,0,9.849,3.04,9.849,5.685c0,2.025-1.519,3.77-3.546,3.77c-0.675,0-1.351-0.168-2.083-0.562
			c-1.632-2.814-4.615-5.909-7.654-7.767v2.926c0,3.94-0.957,6.304-7.655,6.867c0-4.109-0.731-5.01-3.489-5.347v-0.338l-2.927,3.265
			c-0.169,0.788-0.675,1.294-1.238,1.519l-4.672-6.867c2.307-0.45,7.429-1.632,12.382-2.926c0.056,0.168,0.113,0.337,0.113,0.562
			c-0.788,1.013-1.857,2.363-3.32,4.053h3.208c0.451,0,0.562-0.169,0.562-0.62V49.961L55.481,50.523z M57.282,22.214H42.874v4.615
			h14.408V22.214z M42.874,32.513h14.408v-4.783H42.874V32.513z M47.996,33.413c-0.113,0.282-0.394,0.451-1.126,0.62v4.783h5.347
			v-5.403H47.996z M52.217,46.021v-6.304h-5.347v6.304H52.217z"/>
		<path fill="#FFFFFF" d="M89.527,50.974l7.035,5.065c-0.393,0.451-1.07,0.844-2.138,1.013
			c-0.957,11.538-2.983,14.183-11.482,14.183c0-3.715-0.506-5.459-6.473-6.584v-0.676c2.252,0.113,6.079,0.169,7.204,0.225
			c0.901,0,1.295-0.056,1.633-0.338c0.901-0.619,1.519-3.657,1.969-8.667h-5.234c-0.169,0.957-0.281,1.801-0.45,2.589
			c-0.957,0.507-1.914,0.788-3.209,0.788c-0.957,0-2.138-0.168-3.602-0.45c1.013-4.559,2.083-11.032,2.533-14.634l7.148,3.04h2.194
			V38.31h-5.909c-2.871,1.407-6.135,2.533-9.625,3.433l-0.224-0.562c3.995-2.083,7.317-4.953,9.906-8.161
			c-0.338,0.113-0.676,0.113-1.07,0.113c-0.957,0-2.026-0.338-2.927-1.295c-0.056-2.083-1.013-4.334-2.589-5.572l0.282-0.337
			c0.788-0.056,1.463-0.056,2.138-0.056c4.615,0,6.585,1.294,7.091,2.813c1.013-1.801,1.857-3.714,2.477-5.684H74.162l-0.282-0.901
			h11.932l4.446-4.334l7.373,6.135c-0.338,0.619-0.788,0.844-2.083,0.957c-2.702,5.178-7.148,9.399-13.001,12.551h5.403l2.363-3.152
			l5.572,5.179c-0.394,0.393-1.126,0.788-2.026,0.901v8.723c-0.056,0.169-3.095,1.182-5.853,1.182h-1.351v-2.814h-3.433
			c-0.225,1.745-0.619,4.39-1.013,6.866h4.559L89.527,50.974z M124.985,34.257c-3.209,0.732-5.459,3.321-6.473,7.204
			c-1.351-0.619-2.645-1.294-3.884-2.025h-0.056v4.165c0,0.619,0,0.675,0.675,0.675h2.983c0.394,0,0.731,0,1.07-0.393
			c0.619-0.732,1.407-2.645,1.914-3.94h0.45l0.113,4.108c1.745,0.732,1.914,1.182,1.914,2.364c0,2.533-1.632,4.165-5.966,4.165
			h-2.702l5.065,4.222c-0.338,0.619-0.844,0.788-2.083,0.9c-1.294,2.364-2.926,4.504-4.952,6.36
			c3.264,0.507,6.81,0.676,10.581,0.732l0.056,0.675c-3.208,1.126-5.121,3.884-5.853,7.879c-4.672-1.126-8.443-2.476-11.482-4.672
			c-3.995,2.083-8.667,3.602-14.014,4.615l-0.225-0.619c4.446-1.745,8.161-4.165,11.032-7.091c-1.914-2.364-3.32-5.516-4.39-9.681
			h-3.152L95.325,53h13.619l2.646-2.477c-3.827-0.393-4.165-2.194-4.165-7.091V38.31h-2.758v2.645c0,3.264-1.294,8.78-10.863,11.369
			l-0.281-0.506c3.658-3.265,3.883-7.542,3.883-10.863v-6.416l8.33,2.871h1.07l1.745-2.308c-4.559-4.052-7.879-9.455-9.906-17.166
			l0.619-0.337c1.351,3.039,3.433,5.516,5.91,7.598c1.576-2.251,3.095-5.065,3.826-6.866l7.204,4.841
			c-0.224,0.393-0.506,0.675-1.238,0.675c-0.225,0-0.563-0.056-0.901-0.113c-1.914,0.957-4.503,2.026-7.091,2.814
			c2.025,1.407,4.221,2.589,6.584,3.602c1.351-2.083,2.645-4.672,3.265-6.304l7.26,4.896c-0.282,0.394-0.62,0.62-1.351,0.62
			c-0.225,0-0.506,0-0.788-0.056c-1.576,0.675-3.546,1.35-5.572,1.914c2.814,1.013,5.797,1.745,8.723,2.363L124.985,34.257z
			 M99.658,53.9c1.463,2.871,3.715,4.784,6.473,6.136c1.35-1.914,2.42-3.94,3.208-6.136H99.658z"/>
	</g>
	<g>
		<path fill="#FFFFFF" d="M185.621,61.173l8.386,6.023c-0.45,0.619-1.182,0.788-2.814,0.788h-50.316l-0.282-0.901h30.111
			c1.688-9.456,3.208-22.626,3.94-31.574l11.931,2.195c-0.168,0.731-0.619,1.125-2.307,1.238
			c-2.589,7.486-7.373,19.193-12.72,28.141h9.4L185.621,61.173z M143.635,32.582l-0.282-0.901h19.531V17.948l10.581,1.013
			c-0.113,0.732-0.619,1.182-2.139,1.408v11.312h7.655l4.503-5.74l8.161,5.853c-0.451,0.619-1.182,0.788-2.814,0.788H143.635z
			 M152.078,36.409c8.442,6.529,11.425,13.789,11.425,19.193c0,4.84-2.363,8.161-5.234,8.161c-1.295,0-2.702-0.676-4.053-2.195
			c0.338-2.083,0.507-4.39,0.507-6.697c0-6.416-1.239-13.34-3.321-18.236L152.078,36.409z"/>
		<path fill="#FFFFFF" d="M196.873,33.707c8.555,0.225,11.426,3.152,11.426,5.741c0,2.194-2.026,4.221-4.278,4.221
			c-1.012,0-2.025-0.394-2.982-1.295c-0.563-3.039-2.195-6.36-4.446-8.329L196.873,33.707z M200.925,54.476
			c0.957,0,1.182,0,1.857-1.182c1.463-2.307,1.463-2.307,13.226-27.24l0.788,0.224c-2.814,8.892-8.217,26.002-8.217,30.055v0.225
			c0.113,3.151,2.645,4.727,2.645,9.455c0,4.39-3.433,5.516-5.628,5.516c-1.52,0-3.209-0.675-3.827-2.927
			c0.506-2.533,0.788-5.009,0.788-7.035c0-4.334-0.731-5.909-4.277-6.078v-1.013c2.026,0,2.645-0.056,2.645-0.056V54.476z
			 M199.912,19.243c9.174,0.113,12.157,3.209,12.157,5.966c0,2.252-1.97,4.222-4.278,4.222c-0.957,0-2.026-0.338-2.982-1.182
			c-0.845-3.096-2.814-6.585-5.179-8.667L199.912,19.243z M243.25,38.492l7.317,5.74c-0.451,0.62-1.239,0.788-2.758,0.788H227.49
			l8.274,2.814c-0.281,0.731-0.901,1.239-2.476,1.182c-3.04,4.39-6.585,8.443-10.244,11.65c4.559-0.056,10.075-0.169,15.759-0.338
			c-0.901-2.758-2.195-5.403-3.715-7.429l0.45-0.282c10.356,3.489,13.789,8.723,13.789,12.664c0,3.264-2.307,5.685-4.952,5.685
			c-1.295,0-2.645-0.62-3.884-1.914c-0.113-2.195-0.451-4.559-1.126-6.867c-4.503,1.97-10.863,4.278-20.092,7.26
			c-0.451,0.731-1.182,1.182-1.857,1.295l-4.335-10.018h7.599c1.294-4.165,2.814-10.3,3.996-15.703h-11.651l-0.224-0.901h13.788
			V31.231h-10.13l-0.225-0.901h10.355V17.948l10.638,1.013c-0.113,0.732-0.563,1.182-2.139,1.408v9.962h2.307l3.884-5.403
			l7.091,5.516c-0.45,0.619-1.238,0.788-2.758,0.788h-10.524v12.888h4.165L243.25,38.492z"/>
		<path fill="#FFFFFF" d="M268.966,18.342l6.753,6.81c-0.45,0.563-1.181,0.789-2.476,0.789c-1.801,3.151-5.29,9.005-7.879,12.551
			c5.797,3.546,8.949,7.879,9.005,12.438v0.393c0,5.403-2.195,9.231-8.78,9.794c0-3.096-0.225-5.572-2.646-6.36v14.465
			c0,0.506-2.251,2.307-5.966,2.307h-1.35V19.412l8.105,2.983h1.519L268.966,18.342z M262.944,54.081h2.364
			c1.407,0,1.801-1.294,1.801-3.489c0-4.165-0.619-8.442-2.702-11.931c0.45-3.771,1.126-11.088,1.463-15.365h-2.927V54.081z
			 M304.424,57.965v5.797c2.139,1.012,2.364,1.407,2.364,2.363c0,2.702-1.914,4.221-6.811,4.221h-3.264
			c-6.304,0-7.373-1.576-7.373-7.654V47.159h-0.337c-0.113,0.675-0.676,1.013-2.083,1.182c-0.844,9.793-4.109,19.304-18.179,23.244
			l-0.394-0.619c8.724-4.615,10.751-14.127,10.863-23.808h-5.403l-0.224-0.901h22.737l3.602-5.009l6.585,5.121
			c-0.45,0.619-1.238,0.788-2.702,0.788h-5.065c-0.169,0.451-0.563,0.788-1.801,0.957v14.634c0,1.35,0,1.407,0.732,1.407h2.195
			c0.732,0,1.125-0.056,1.632-0.731c0.562-0.675,1.463-2.758,2.533-5.459H304.424z M297.896,33.369
			c0.169-1.632,0.393-3.883,0.506-5.515h-18.404c0.168,0.844,0.224,1.688,0.224,2.42c0,3.377-1.632,5.628-4.503,5.628
			c-1.914,0-3.771-1.07-3.771-3.321c0-1.632,1.239-2.926,2.814-3.658c1.52-0.788,3.434-2.758,3.321-4.727h0.731
			c0.393,0.956,0.732,1.913,0.957,2.757h5.347v-8.949l9.849,0.957c-0.113,0.676-0.562,1.013-1.97,1.239v6.753h4.841l3.602-3.602
			l6.247,5.967c-0.451,0.45-1.013,0.619-2.139,0.675c-1.688,1.239-4.446,3.04-6.585,4.221l3.434,2.533
			c-0.451,0.619-1.239,0.788-2.702,0.788h-21.332l-0.224-0.901h14.352l3.489-4.672L297.896,33.369z"/>
	</g>
	<g>
		<path fill="#FFFFFF" d="M130.246,45.669c0-3.294,2.645-5.94,5.94-5.94c3.294,0,5.94,2.646,5.94,5.94c0,3.295-2.646,5.94-5.94,5.94
			C132.783,51.609,130.246,48.855,130.246,45.669z"/>
	</g>
</g>
<g id="secondary">
</g>
</svg>
