<?xml version="1.0" encoding="utf-8"?>
<!-- Generator: Adobe Illustrator 17.0.0, SVG Export Plug-In . SVG Version: 6.00 Build 0)  -->
<!DOCTYPE svg PUBLIC "-//W3C//DTD SVG 1.1//EN" "http://www.w3.org/Graphics/SVG/1.1/DTD/svg11.dtd">
<svg version="1.1" xmlns="http://www.w3.org/2000/svg" xmlns:xlink="http://www.w3.org/1999/xlink" x="0px" y="0px" width="320px"
	 height="320px" viewBox="0 0 320 320" enable-background="new 0 0 320 320" xml:space="preserve">
<g id="backup" display="none">
	
		<text transform="matrix(1 0 0 1 148.6582 76.6465)" display="inline" fill="#FFFFFF" font-family="'KozMinPro-Heavy-83pv-RKSJ-H'" font-size="52.9334">新國會</text>
	
		<text transform="matrix(1 0 0 1 261.9033 130.9805)" display="inline" fill="#FFFFFF" font-family="'KozMinPro-Heavy-83pv-RKSJ-H'" font-size="86.7197" glyph-orientation-vertical="0" writing-mode="tb">降臨</text>
	
		<text transform="matrix(1 0 0 1 271.9121 105.8389)" display="inline" fill="#FFFFFF" font-family="'KozMinPro-Heavy-83pv-RKSJ-H'" font-size="98.7678">、</text>
</g>
<g id="backgrounds">
	<rect width="320" height="320"/>
</g>
<g id="stripes">
</g>
<g id="main">
	<g>
		<path fill="#FFFFFF" d="M193.863,45.838l6.882,5.452c-0.423,0.582-1.217,0.741-2.647,0.741h-2.541v27.685
			c-0.053,0.423-2.276,1.958-6.14,1.958h-1.377V52.031h-3.758v1.906c0,9.581-0.953,20.802-14.187,27.684l-0.476-0.529
			c6.669-7.782,7.304-17.681,7.304-27.368v-1.8c-0.423,0.423-1.164,0.53-2.329,0.53h-6.723c-0.053,0.423-0.37,0.741-1.323,0.9v6.458
			h1.588l2.911-4.182l5.294,4.288c-0.37,0.582-1.112,0.741-2.489,0.741h-7.304v3.282l0.053-0.053
			c6.457,1.164,8.628,3.653,8.628,5.822c0,1.906-1.799,3.547-3.705,3.547c-0.953,0-1.958-0.423-2.805-1.43
			c0.053-2.435-0.794-5.346-2.17-7.252v15.14c0,0.582-3.282,2.011-5.823,2.011h-1.429V70.823c-2.594,2.699-5.717,5.029-9.105,6.987
			l-0.477-0.688c3.758-4.394,6.617-10.693,8.205-16.462h-7.252l-0.211-0.847h8.84v-7.358h-9.158l-0.212-0.847h14.768
			c0.636-3.388,1.217-8.046,1.483-11.328l8.787,1.958c-0.159,0.636-0.636,0.953-2.011,0.953c-1.694,2.435-4.5,5.822-7.199,8.416
			h2.858l2.964-3.811l5.346,3.811v-15.88l7.622,2.329c3.177-2.064,6.405-4.764,8.152-6.722l7.676,6.088
			c-0.37,0.317-0.9,0.529-1.641,0.529c-0.53,0-1.165-0.105-1.906-0.317c-3.069,1.006-7.887,1.906-12.545,2.435v11.116h5.822
			L193.863,45.838z M150.987,40.068l-0.212-0.847h8.469v-7.94l9.476,0.9c-0.106,0.741-0.583,1.111-2.064,1.323v5.716h0.847
			l2.963-4.182l5.453,4.288c-0.371,0.583-1.112,0.741-2.488,0.741H150.987z M154.798,40.491c5.135,2.383,6.881,5.082,6.881,7.252
			c0,2.223-1.853,3.811-3.705,3.811c-1.112,0-2.223-0.53-2.964-1.799c0.212-0.953,0.265-1.959,0.265-3.017
			c0-2.17-0.371-4.447-1.006-6.035L154.798,40.491z"/>
		<path fill="#FFFFFF" d="M245.844,32.287l7.04,5.187c-0.37,0.477-1.059,0.9-2.117,1.165v40.335c0,0.106-1.853,2.17-7.199,2.17
			v-4.076h-31.284v1.694c0,0.211-0.9,2.964-7.041,2.964V32.922l7.676,3.07h30.12L245.844,32.287z M212.284,76.222h31.284V36.839
			h-31.284V76.222z M213.131,64.735c2.646-0.211,8.787-1.058,14.875-1.958l0.105,0.635c-2.276,1.483-5.716,3.653-10.692,6.405
			c-0.265,0.688-0.742,1.112-1.323,1.27L213.131,64.735z M242.932,46.049c-0.37,0.636-1.111,0.741-2.435,0.741h-7.516
			c0.053,3.123,0.211,6.141,0.635,8.841c0.689-1.906,1.27-4.023,1.747-6.194l7.411,2.435c-0.265,0.636-0.742,1.006-2.17,0.953
			c-1.377,3.97-3.123,7.252-5.082,10.057c0.847,2.118,2.276,3.864,2.594,3.864c0.582,0,2.382-4.287,2.964-5.822l0.37,0.106
			l-0.794,7.199c0.9,1.694,1.376,2.911,1.376,3.811c0,1.588-1.694,2.223-2.805,2.223c-4.341,0-7.093-5.4-7.781-6.722
			c-3.177,2.963-6.882,5.029-11.063,6.563l-0.477-0.583c3.705-2.17,7.093-5.558,9.846-9.898c-1.112-3.283-1.8-6.988-2.17-10.957
			c-0.265,0.211-0.689,0.423-1.217,0.529V59.6c0,0.106-1.218,1.536-4.711,1.536v-2.064h-2.17v1.641c0,0.053-0.583,1.535-4.553,1.535
			V49.279l4.817,2.011h1.536l1.641-2.17l4.658,3.123c-0.159-1.747-0.265-3.6-0.318-5.453h-13.868l-0.211-0.847h14.028
			c-0.053-2.329-0.106-4.763-0.106-7.251l7.834,0.688c-0.053,0.688-0.477,1.006-1.905,1.217c-0.053,1.8-0.053,3.6-0.053,5.346h1.853
			l2.064-2.646c-0.212-0.159-0.423-0.37-0.583-0.583c0.106-1.323-0.317-2.858-1.111-3.705l0.37-0.317
			c4.499,0.105,6.035,1.429,6.035,2.699c0,1.006-0.9,1.959-2.012,2.33L242.932,46.049z M219.483,58.225h2.17v-6.088h-2.17V58.225z"
			/>
		<path fill="#FFFFFF" d="M255.16,52.296c8.681-5.241,17.097-14.293,20.327-21.439l10.163,3.229
			c-0.212,0.742-0.847,1.165-2.859,1.377c5.558,3.705,14.081,6.882,24.033,8.046v0.9c-2.965,1.112-4.235,4.394-4.711,7.305
			c-0.583-0.212-1.165-0.423-1.747-0.689c-0.317,0.265-0.794,0.53-1.43,0.636v9.105c0,0.105-1.853,1.535-6.829,1.535v-1.535h-22.497
			c0,0.422-0.741,1.058-1.482,1.482l6.511,2.488h12.28l2.7-3.547l7.358,5.082c-0.317,0.371-0.9,0.795-1.853,1.006v12.123
			c-0.053,0.476-3.705,2.064-6.352,2.064h-1.323v-3.123h-13.181v0.635c0,0.159-1.058,2.753-7.516,2.753V62.882
			c-1.27,0.371-2.011,0.371-3.864,0.371V49.967c-2.435,1.164-4.976,2.117-7.516,2.858L255.16,52.296z M291.631,49.384l1.642-2.117
			c-4.553-2.964-8.417-6.776-11.223-11.222c-3.017,3.705-8.629,8.31-15.351,12.016l3.6,1.322H291.631z M269.611,50.231v9.688h7.993
			v-9.688H269.611z M270.776,51.29c4.552,1.429,6.087,3.388,6.087,5.029c0,1.588-1.535,2.858-3.122,2.858
			c-0.953,0-1.906-0.423-2.541-1.482c0.105-0.477,0.158-1.006,0.158-1.589c0-1.641-0.423-3.335-1.058-4.552L270.776,51.29z
			 M280.357,44.832l2.805-3.811l5.241,3.917c-0.37,0.583-1.111,0.741-2.435,0.741h-13.393l-0.264-0.847H280.357z M287.449,65.582
			h-13.181v5.558h13.181V65.582z M274.269,77.492h13.181v-5.505h-13.181V77.492z M292.108,52.508v-2.277h-8.204v9.688h0.635
			c0.688-2.594,1.377-6.3,1.747-8.894L292.108,52.508z M291.896,53.831c-1.483,1.853-3.864,4.235-6.141,6.088h6.352v-6.088H291.896z
			"/>
	</g>
	<g>
		<path fill="#FFFFFF" d="M297.807,146.934c-0.52,0.954-1.388,1.214-3.382,1.388c-2.342,3.816-5.29,7.284-8.846,10.32
			c5.55,1.648,11.534,2.602,17.431,3.21v0.953c-4.423,1.388-7.198,5.117-8.412,10.667c-6.677-2.255-12.401-5.03-17.171-8.932
			c-7.111,4.163-15.609,7.371-25.322,9.453c3.642,4.856,3.642,8.325,3.642,10.146c0,8.325-3.816,14.309-14.742,15.263
			c0-6.938-1.475-8.932-4.769-9.886v22.374c0,0.867-3.556,3.729-9.54,3.729h-2.168V135.14l12.921,4.769h3.382l5.81-6.33
			l10.494,10.667c-0.694,0.867-1.821,1.213-3.902,1.213c-3.035,4.856-9.019,13.789-13.269,19.166
			c4.857,2.515,8.673,5.376,11.275,8.411c8.325-3.382,15.436-8.065,20.986-13.788c-1.995-2.515-3.815-5.464-5.203-8.759
			c-4.163,3.988-9.106,7.457-14.656,9.799l-0.607-0.607c6.07-6.071,10.84-16.824,12.574-26.537l16.044,2.167
			c-0.26,0.954-0.867,1.388-3.21,1.562c-1.3,2.515-2.775,4.855-4.509,7.197h8.586l6.331-5.984L297.807,146.934z M236.235,188.473
			h4.943c2.862,0,3.209-3.469,3.209-5.376c0-6.331-1.561-12.921-5.984-18.298c1.04-5.637,2.515-16.911,3.296-23.502h-5.463V188.473z
			 M293.905,189.601l9.626,7.457c-0.693,0.954-1.907,1.214-4.163,1.214h-12.748v14.83c0,0.087-2.255,3.209-11.88,3.209v-18.038
			h-23.241l-0.347-1.388h8.238v-15.436h-3.296l-0.346-1.388h18.992v-9.019l14.483,1.213c-0.174,0.954-0.608,1.562-2.603,1.822v5.636
			l4.597-5.984l9.019,6.504c-0.608,1.041-1.908,1.214-4.076,1.214h-9.541v15.436h1.995L293.905,189.601z M271.531,145.459
			c-0.867,1.128-1.821,2.256-2.862,3.296c2.081,2.429,4.596,4.336,7.458,5.984c2.255-2.948,4.163-5.984,5.55-9.279H271.531z
			 M270.056,196.886h4.683v-15.436h-4.683V196.886z"/>
		<path fill="#FFFFFF" d="M290.869,271.117l3.383-4.423l9.365,6.504c-0.434,0.521-1.388,1.127-2.775,1.388v24.109
			c0,0.086-2.428,2.342-9.192,2.342v-5.377h-2.862v3.121c0,0.087-1.127,3.296-9.019,3.296v-28.445
			c-0.607,0.434-1.561,0.954-2.862,1.214v23.935c0,0.174-2.515,2.256-9.018,2.256v-5.898h-2.429v3.556
			c0,0.173-1.388,3.382-9.366,3.382V290.37c-0.52,0.086-1.213,0.086-1.907,0.086h-20.9v6.158c0,0.78-3.121,3.209-8.325,3.209h-1.821
			v-74.321l11.361,4.25h8.152l5.723-8.412l10.321,8.586c-0.608,0.954-1.995,1.214-4.25,1.214h-7.806v15.523l2.862-3.729l9.626,7.284
			c-0.52,0.608-1.648,1.301-3.035,1.562v15.349l9.627,3.989h1.388l3.469-4.51l9.192,6.418v-5.81l9.366,3.902H290.869z
			 M236.755,231.139h-3.469v16.563h3.469V231.139z M233.286,249.09v19.079h12.402V249.09H233.286z M233.286,269.557v19.512h3.382
			v-19.512H233.286z M250.284,281.611l5.809,5.55V271.03c-0.259,0.347-4.335,1.995-8.411,1.995h-1.127v14.916L250.284,281.611z
			 M293.125,223.247l10.753,8.412c-0.694,0.954-1.994,1.213-4.25,1.213H271.01c-1.648,2.168-3.382,4.423-5.376,6.418l8.672,3.295
			h8.586l4.336-5.636l10.667,7.544c-0.521,0.781-1.388,1.214-3.296,1.561v15.784c0,0.434-3.382,2.255-9.019,2.255h-1.994v-4.163
			h-10.146v1.822c0,0.693-3.21,2.948-8.586,2.948h-1.908v-22.808c-2.081,1.908-4.249,3.556-6.591,4.944l-1.04-0.607
			c3.729-6.852,6.677-17.605,7.892-26.538l15.87,3.989c-0.346,1.041-1.3,1.648-3.382,1.648c-1.041,1.994-2.255,4.076-3.729,6.157
			h15.263L293.125,223.247z M265.46,293.752h2.429v-21.247h-2.429V293.752z M283.585,243.973h-10.146v14.569h10.146V243.973z
			 M288.788,294.272h2.862v-21.767h-2.862V294.272z"/>
	</g>
	<g>
		<path fill="#FFFFFF" d="M275.37,91.813c14.519,1.876,24.89,8.197,24.89,15.803c0,4.74-3.655,7.506-7.408,7.506
			c-2.37,0-4.74-0.988-6.419-3.26c-0.692-6.124-4.247-14.914-11.556-19.16L275.37,91.813z"/>
	</g>
</g>
<g id="secondary">
</g>
</svg>
