<?xml version="1.0" encoding="utf-8"?>
<!-- Generator: Adobe Illustrator 17.0.0, SVG Export Plug-In . SVG Version: 6.00 Build 0)  -->
<!DOCTYPE svg PUBLIC "-//W3C//DTD SVG 1.1//EN" "http://www.w3.org/Graphics/SVG/1.1/DTD/svg11.dtd">
<svg version="1.1" xmlns="http://www.w3.org/2000/svg" xmlns:xlink="http://www.w3.org/1999/xlink" x="0px" y="0px" width="320px"
	 height="88px" viewBox="0 0 320 88" enable-background="new 0 0 320 88" xml:space="preserve">
<g id="backup" display="none">
	
		<text transform="matrix(1 0 0 1 15.9297 70.2627)" display="inline" fill="#FFFFFF" font-family="'KozMinPr6N-Heavy-83pv-RKSJ-H'" font-size="72.5354">那晚以前</text>
</g>
<g id="backgrounds">
	<rect fill="#4D4D4D" width="320" height="88"/>
</g>
<g id="stripes">
</g>
<g id="main">
	<g>
		<path fill="#FFFFFF" d="M42.332,15.135l4.28-5.586l9.72,7.834c-0.508,0.725-1.596,1.306-3.337,1.596
			c-0.435,39.315-0.942,49.398-5.295,53.822c-2.902,2.902-5.658,4.062-10.735,4.135c0-5.368,0-8.342-6.528-10.155V65.91l6.891,0.073
			c1.015,0,1.596-0.145,2.249-0.87c1.596-1.524,2.466-6.456,2.974-16.466h-7.616c-2.467,10.591-7.181,20.31-16.611,28.434
			l-0.943-0.943c4.932-8.777,7.398-18.062,8.632-27.491h-7.689l-0.363-1.16h8.196c0.58-5.005,0.87-10.01,1.015-15.015h-8.849
			L17.96,31.31h9.212c0.073-5.005,0.073-10.082,0.073-15.015h-8.342l-0.363-1.16H42.332z M37.182,32.471
			c-0.363,5.15-0.943,10.155-1.958,15.015h7.326c0.218-4.135,0.363-9.14,0.435-15.015H37.182z M43.275,16.295h-5.513
			c-0.073,5.078-0.218,10.083-0.508,15.015h5.802L43.275,16.295z M78.455,9.55l9.429,9.574c-0.581,0.798-1.596,1.088-3.336,1.088
			c-2.757,4.135-8.124,11.824-11.968,16.539c9.792,4.496,14.724,10.373,14.797,16.32v0.436c0,7.108-3.554,12.476-13.564,13.419
			c0-7.544-2.249-8.487-4.642-9.14v-0.798h5.077c2.902,0,2.902-3.263,2.902-4.424c0-5.368-1.523-11.098-5.802-15.596
			c0.797-4.932,2.03-14.797,2.684-20.528h-5.586v57.739c0,0.725-3.119,3.119-8.269,3.119H58.29v-66.08l11.17,4.062h3.845
			L78.455,9.55z"/>
		<path fill="#FFFFFF" d="M156.72,58.657l-0.073,9.72c2.684,1.305,2.974,1.741,2.974,2.901c0,3.264-2.03,5.441-8.776,5.441h-4.933
			c-8.124,0-9.574-1.886-9.574-9.647v-9.647c-4.642,8.704-13.201,15.668-29.449,19.584l-0.581-1.015
			c15.451-6.311,21.689-16.176,24.3-27.419h-2.902v1.742c0,0.725-2.756,3.191-7.398,3.191h-1.669V33.922
			c-1.161,0.797-2.321,1.523-3.481,2.175V61.63c0,0.073-2.467,2.612-9.43,2.612v-7.689h-3.699v8.704
			c0,0.653-2.829,2.829-7.616,2.829h-1.669V13.467l10.228,3.772h2.03l3.627-4.715l9.212,6.674c-0.435,0.581-1.305,1.161-2.683,1.451
			v13.637c3.917-6.166,7.543-16.103,9.285-26.113l13.273,4.28c-0.29,0.87-1.015,1.451-2.974,1.451
			c-0.725,1.523-1.451,2.901-2.176,4.28h6.165l5.005-5.005l8.705,8.052c-0.581,0.653-1.379,0.87-2.902,0.942
			c-2.829,2.321-6.819,5.15-10.591,7.326h7.036l3.554-4.569l9.574,6.601c-0.435,0.508-1.305,1.088-2.684,1.378v16.248
			c0,0.145-2.466,2.612-9.719,2.612v-2.104c-0.218,0-0.508,0.073-0.798,0.146v17.335c0,1.742,0,1.742,1.161,1.742h3.554
			c1.233,0,1.523,0,2.176-1.088c0.652-1.161,1.886-4.642,3.409-9.14H156.72z M105.727,18.399h-3.699v18.134h3.699V18.399z
			 M102.028,55.392h3.699V37.693h-3.699V55.392z M136.265,29.497c1.233-3.047,2.394-7.326,3.047-10.155h-7.471
			c-1.958,3.336-4.207,6.311-6.601,8.85l3.409,1.305H136.265z M127.706,47.414h3.119c1.16-5.368,1.451-11.025,1.596-16.756h-4.715
			V47.414z M146.71,30.658h-4.57c-0.363,5.802-0.87,11.461-2.103,16.756h6.674V30.658z"/>
		<path fill="#FFFFFF" d="M182.47,56.262c4.932-1.088,10.227-2.321,15.523-3.554l0.145,0.725
			c-5.368,3.99-13.927,9.358-27.346,16.466c-0.435,1.015-1.16,1.741-2.03,2.031l-5.948-11.606c2.103-0.363,5.223-0.943,8.994-1.742
			l-0.724-45.625l13.564,1.088c-0.146,0.943-0.798,1.523-2.83,1.886L182.47,56.262z M177.537,76.138
			c32.787-16.175,33.366-34.744,33.802-63.323l14.725,1.233c-0.146,1.015-0.798,1.669-3.119,1.958
			c-0.725,16.32-1.451,29.739-8.632,40.33c12.84,3.119,17.191,9.212,17.191,14c0,3.844-2.902,6.963-6.311,6.963
			c-1.523,0-3.119-0.581-4.642-1.958c-1.015-5.73-3.844-12.114-7.979-16.757c-6.311,7.835-16.829,14-34.455,18.569L177.537,76.138z
			 M187.91,18.109c12.331,3.047,16.393,8.632,16.393,13.129c0,3.771-2.974,6.818-6.31,6.818c-1.669,0-3.409-0.725-4.933-2.466
			c0.146-5.875-1.886-12.912-5.658-17.118L187.91,18.109z"/>
		<path fill="#FFFFFF" d="M294.248,16.803l10.083,7.399c-0.509,0.798-1.451,1.015-3.555,1.015h-65.137l-0.363-1.16h39.895
			c1.814-4.715,3.699-11.388,4.714-15.885l14.145,4.787c-0.29,0.87-1.015,1.233-2.902,1.088c-3.481,2.974-9.139,6.963-14.435,10.01
			h11.968L294.248,16.803z M257.545,34.502l3.771-4.859l9.647,6.963c-0.435,0.581-1.378,1.234-2.901,1.524V66.49
			c0,5.586-0.943,9.575-10.735,10.735c0-6.528-1.161-8.341-5.15-9.212v-0.798h5.513c0.435,0,0.58-0.29,0.58-1.015v-8.922h-6.746
			v16.103c0,0.217-1.451,3.771-9.792,3.771V30.44l10.083,4.062H257.545z M249.42,8.317c10.735,1.958,14.29,6.093,14.29,9.647
			c0,3.191-2.902,5.875-6.093,5.875c-1.596,0-3.336-0.653-4.714-2.394c0.145-4.352-1.306-9.574-3.918-12.766L249.42,8.317z
			 M258.269,35.663h-6.746v9.14h6.746V35.663z M251.524,56.118h6.746V45.963h-6.746V56.118z M285.253,34.212
			c-0.072,1.015-0.652,1.596-2.756,1.886v25.388c0,0.145-1.669,2.176-9.43,2.176V33.197L285.253,34.212z M286.341,66.781
			c0.87,0,1.161-0.363,1.161-1.161V29.788l12.694,0.87c-0.073,0.943-0.436,1.523-2.757,1.814v33.076
			c0,6.166-1.451,10.663-12.476,11.606c0-6.673-2.321-8.631-8.632-9.429v-0.942H286.341z"/>
	</g>
</g>
<g id="secondary">
</g>
</svg>
