<?xml version="1.0" encoding="utf-8"?>
<!-- Generator: Adobe Illustrator 17.0.0, SVG Export Plug-In . SVG Version: 6.00 Build 0)  -->
<!DOCTYPE svg PUBLIC "-//W3C//DTD SVG 1.1//EN" "http://www.w3.org/Graphics/SVG/1.1/DTD/svg11.dtd">
<svg version="1.1" xmlns="http://www.w3.org/2000/svg" xmlns:xlink="http://www.w3.org/1999/xlink" x="0px" y="0px" width="320px"
	 height="88px" viewBox="0 0 320 88" enable-background="new 0 0 320 88" xml:space="preserve">
<g id="backup" display="none">
	<g display="inline">
		
			<text transform="matrix(1 0 0 1 12.2646 66.5361)" fill="#FFFFFF" font-family="'KozMinPr6N-Heavy-83pv-RKSJ-H'" font-size="59.0941">另一種觀點</text>
	</g>
</g>
<g id="backgrounds">
	<rect fill="#4D4D4D" width="320" height="88"/>
</g>
<g id="stripes">
</g>
<g id="main">
	<g>
		<g>
			<path fill="#FFFFFF" d="M58.298,43.253l8.154,5.969c-0.414,0.531-1.181,0.945-2.364,1.181
				c-0.768,11.346-2.186,17.432-5.318,19.619c-2.246,1.476-4.432,2.127-8.924,2.127c0.118-4.49-0.768-6.737-7.445-8.096v-0.59
				c2.896,0.117,7.445,0.177,8.923,0.177c0.591,0,1.005-0.059,1.359-0.354c1.36-1.064,2.305-6.382,2.896-15.068H43.406
				c-3.191,11.168-10.814,19.796-28.718,23.991l-0.295-0.71c12.822-5.199,18.081-13.591,20.15-23.281H15.752l-0.296-0.945h19.264
				c0.591-3.073,0.887-6.323,1.005-9.573h-4.787v1.359c0,0.591-2.6,2.423-7.09,2.423h-1.596V16.485l9.336,3.428h20.327l3.604-4.668
				l8.451,6.027c-0.414,0.532-0.945,0.886-2.364,1.122v16.782c0,0.295-2.719,1.832-7.505,1.832h-1.655v-3.309h-9.16v0.059
				l4.255,0.473c-0.236,0.886-0.768,1.3-2.481,1.359c-0.296,2.659-0.769,5.2-1.418,7.682h11.346L58.298,43.253z M30.937,36.753
				h21.51V20.858h-21.51V36.753z"/>
			<path fill="#FFFFFF" d="M72.955,42.604h41.304l5.2-7.091l9.455,7.208c-0.59,0.887-1.477,1.182-3.368,1.182H73.31L72.955,42.604z"
				/>
			<path fill="#FFFFFF" d="M181.626,63.64l6.854,5.141c-0.414,0.65-1.241,0.827-2.777,0.827h-33.386l-0.237-0.945h14.123v-7.681
				H155.33l-0.236-0.945h11.109v-7.328h-3.013v0.532c0,0.178-1.064,2.718-7.387,2.718v-5.436c-0.649,1.418-2.068,2.364-3.604,2.364
				c-1.064,0-2.245-0.532-3.072-1.773c0.177-2.482-0.414-5.555-1.477-7.801v26.651c0,0.473-2.482,2.186-6.264,2.186h-1.418V53.476
				c-2.186,3.072-4.787,5.909-7.682,8.391l-0.709-0.769c3.959-6.795,6.441-16.427,7.74-25.172h-7.386l-0.237-0.945h8.273v-8.628
				c-2.601,0.354-5.259,0.65-7.801,0.827l-0.177-0.59c5.909-2.719,13.059-7.446,16.486-10.696l9.16,7.386
				c-0.474,0.355-1.123,0.591-1.95,0.591c-0.65,0-1.36-0.117-2.246-0.354c-1.654,0.532-3.604,1.005-5.79,1.477v9.868l3.072-4.727
				l5.082,4.373v-1.537l7.741,3.073h2.659v-5.791h-13.65l-0.236-0.945h13.886v-4.373c-2.481,0.118-5.022,0.178-7.505,0.178
				c-1.359,0-2.718,0-4.018-0.059l-0.118-0.769c8.332-1.773,18.614-5.436,23.814-8.332l7.623,7.564
				c-0.355,0.295-0.887,0.473-1.537,0.473c-0.71,0-1.596-0.178-2.6-0.591c-2.304,0.414-5.022,0.769-7.977,1.064v4.846h3.723
				l3.664-4.846l6.854,4.964c-0.414,0.709-1.241,0.827-2.836,0.827h-11.405v5.791h2.541l2.836-3.664l7.564,5.259
				c-0.355,0.414-1.005,0.886-2.128,1.123v14.95c-0.059,0.354-2.777,1.359-5.141,1.655l6.559,4.786
				c-0.414,0.71-1.241,0.828-2.777,0.828h-9.455v7.681h4.019L181.626,63.64z M147.649,36.221v5.791
				c4.963,1.477,7.327,3.545,8.154,5.436V35.689c-0.473,0.178-1.122,0.237-2.068,0.237h-6.028L147.649,36.221z M166.203,36.99
				h-3.013v6.854h3.013V36.99z M163.19,51.762h3.013V44.79h-3.013V51.762z M177.016,36.99h-3.131v6.854h3.131V36.99z
				 M177.016,51.762V44.79h-3.131v6.973H177.016z M173.885,52.708v7.328h2.069l3.486-4.668c-0.354,0.058-0.473,0.058-2.423,0.058
				v-2.718H173.885z"/>
			<path fill="#FFFFFF" d="M244.798,58.026l0.059,6.677c2.128,1.064,2.304,1.359,2.304,2.541c0,2.54-1.832,4.018-5.849,4.018h-1.833
				c-6.146,0-6.854-1.123-6.854-7.741v-8.863c-0.354,0.118-0.886,0.237-1.596,0.237c-1.241,7.268-5.082,13.886-15.6,17.254
				l-0.354-0.827c1.832-1.123,3.309-2.541,4.491-4.077h-17.61v2.836c0,0.472-2.187,2.068-5.791,2.068h-1.3v-16.9
				c-1.123,1.181-2.304,2.245-3.546,3.131l-0.768-0.532c2.245-3.84,4.55-10.518,5.968-16.959c-1.3,0.532-2.304,0.532-3.841,0.532
				V27.594l6.087,2.423h0.709l1.891-2.423l5.495,3.724c-0.236,0.295-0.827,0.649-1.595,0.768v7.209c0,0.117-1.477,1.418-5.378,1.418
				v-2.66h-1.891v1.773c0,0.177-0.295,0.472-0.827,0.768l7.682,2.54c-0.237,0.769-0.769,1.123-2.304,1.123
				c-0.474,0.886-0.945,1.832-1.477,2.659l1.654,0.65h2.836c0.118-2.127,0.178-4.787,0.118-6.737l9.395,1.596
				c-0.118,0.709-0.71,1.064-2.186,1.123c-1.242,1.241-3.132,2.718-4.964,4.018h4.905l3.072-3.9l5.791,4.019
				c-0.414,0.709-1.241,0.827-2.718,0.827h-7.091v4.964l2.777-3.546l5.554,3.841c-0.414,0.709-1.241,0.827-2.659,0.827h-5.673v5.141
				l2.777-3.545l5.554,3.841c-0.414,0.709-1.241,0.827-2.659,0.827h-5.673v5.437h0.649l3.192-4.078l4.845,3.428
				c2.246-3.9,2.836-8.568,2.896-13.296l9.16,1.123v-3.605h-3.368v0.355c0,0.472-2.245,2.127-6.027,2.127h-1.301V22.808
				c-0.177,0.058-0.414,0.058-0.709,0.058h-5.968v3.132c0,0.414-1.242,1.418-5.673,1.418h-1.301v-4.551h-4.786v3.368
				c0,0.355-1.182,1.418-5.555,1.418h-1.418v-4.787h-5.2l-0.236-0.945h5.436v-5.849l8.628,0.709
				c-0.118,0.65-0.354,1.064-1.654,1.359v3.782h4.786v-5.849l8.628,0.709c-0.059,0.591-0.354,1.123-1.654,1.418v3.723h0.709
				l2.364-3.604l3.604,2.777v-3.428l7.978,3.014h5.909l3.191-4.195l7.446,5.554c-0.414,0.532-1.005,0.886-2.364,1.123V49.99
				c0,0.295-1.537,1.3-4.078,1.713V63.58c0,1.242,0,1.359,0.414,1.359h0.769c1.3,0,2.423-3.959,3.25-6.913H244.798z M199.888,30.962
				h-1.891v6.146h1.891V30.962z M204.911,48.512h-2.954v5.141h2.954V48.512z M204.911,59.917v-5.318h-2.954v5.318H204.911z
				 M201.957,60.862v5.437h2.954v-5.437H201.957z M220.038,39.058c-0.058,0.414-2.836,1.418-4.55,1.418h-0.945v-2.423h-2.009v1.3
				c0,0.355-1.713,1.596-4.49,1.596h-0.945V27.594l6.205,2.423h0.827l1.891-2.481l5.614,3.782c-0.236,0.295-0.827,0.649-1.596,0.827
				V39.058z M212.533,37.107h2.009v-6.146h-2.009V37.107z M236.348,21.626h-7.091v8.391h7.091V21.626z M236.348,39.412v-8.45h-7.091
				v8.45H236.348z M229.257,48.926h7.091v-8.568h-7.091V48.926z"/>
			<path fill="#FFFFFF" d="M256.441,58.38c0.945,2.777,1.419,5.141,1.419,7.091c0,1.005,0,6.323-4.669,6.323
				c-2.245,0-3.486-1.359-3.486-3.132c0-1.417,0.886-2.777,2.245-3.604c1.477-1.241,3.663-4.195,3.663-6.737L256.441,58.38z
				 M279.192,50.522c-5.2,1.891-13,4.255-24.523,7.269c-0.414,0.768-1.122,1.241-1.832,1.3l-2.6-8.509
				c2.364,0,6.322-0.059,11.109-0.178v-5.495h-9.75l-0.296-0.945h10.046v-6.205h-2.777v0.591c0,0.117-0.945,2.304-6.381,2.304
				V17.076l6.677,2.718h12.291l2.482-3.25l6.796,4.727c-0.355,0.473-1.123,0.945-2.187,1.122V38.29
				c-0.059,0.414-2.896,1.537-5.022,1.654l6.027,4.136c-0.414,0.71-1.3,0.828-2.777,0.828h-7.741v5.259
				c3.368-0.118,6.914-0.237,10.459-0.414V50.522z M262.528,20.739h-3.959v2.836l0.118-0.059c2.127,1.95,3.309,3.841,3.841,5.495
				V20.739z M262.528,32.794c-0.355,0.886-1.005,1.418-1.714,1.418c-0.532,0-1.063-0.295-1.537-0.945
				c0.059-0.354,0.059-0.768,0.059-1.181c0-1.832-0.354-4.019-0.768-5.91v10.637h3.959V32.794z M259.278,58.144
				c4.491,2.659,6.028,5.495,6.028,7.681c0,2.365-1.832,4.078-3.663,4.078c-1.005,0-2.069-0.532-2.778-1.773
				c0.355-1.36,0.532-2.896,0.532-4.432c0-1.95-0.295-3.841-0.768-5.318L259.278,58.144z M264.419,57.316
				c6.086,1.833,8.095,4.669,8.095,6.974c0,2.009-1.595,3.545-3.308,3.545c-0.828,0-1.714-0.354-2.482-1.3
				c0.117-2.955-1.064-6.677-2.836-8.863L264.419,57.316z M271.687,20.739h-4.136v16.073h4.136v-9.219
				c-0.886,2.128-2.068,4.787-3.191,6.796l-0.768-0.236c0.473-3.31,1.004-8.392,1.122-10.932l2.836,0.709V20.739z M268.732,37.758
				v6.205h0.945l3.192-4.019h-1.182v-2.186H268.732z M306.965,31.671c-0.473,0.649-1.36,0.827-2.896,0.827h-8.982v13.946h0.649
				l3.132-4.137l7.505,5.496c-0.414,0.473-1.005,0.827-2.364,1.063v21.037c0,0.354-2.423,1.773-6.382,1.773h-1.359v-4.55h-9.218
				v2.896c0,0.531-2.246,2.127-6.028,2.127h-1.359v-8.863c-0.354,1.537-1.713,2.659-3.191,2.659c-0.827,0-1.713-0.354-2.482-1.181
				c-0.058-2.777-1.595-6.086-3.545-7.977l0.414-0.414c5.85,0.887,8.272,3.073,8.804,5.142V43.431l7.446,2.777V16.426l10.341,1.005
				c-0.118,0.768-0.65,1.241-2.364,1.477v12.645h1.713l3.663-5.554L306.965,31.671z M296.269,47.39h-9.218v18.791h9.218V47.39z"/>
		</g>
	</g>
</g>
<g id="secondary">
</g>
</svg>
