<?xml version="1.0" encoding="utf-8"?>
<!-- Generator: Adobe Illustrator 17.0.0, SVG Export Plug-In . SVG Version: 6.00 Build 0)  -->
<!DOCTYPE svg PUBLIC "-//W3C//DTD SVG 1.1//EN" "http://www.w3.org/Graphics/SVG/1.1/DTD/svg11.dtd">
<svg version="1.1" xmlns="http://www.w3.org/2000/svg" xmlns:xlink="http://www.w3.org/1999/xlink" x="0px" y="0px" width="320px"
	 height="320px" viewBox="0 0 320 320" enable-background="new 0 0 320 320" xml:space="preserve">
<g id="backup" display="none">
</g>
<g id="backgrounds">
	<rect fill="#FFFFFF" width="320" height="320"/>
</g>
<g id="stripes">
</g>
<g id="main">
	<g>
		<rect x="58.534" y="276.62" width="3.98" height="22.834"/>
		<rect x="134.955" y="270.419" width="3.98" height="29.035"/>
		<rect x="103.951" y="276.62" width="3.98" height="22.834"/>
		<rect x="73.617" y="280.307" width="3.98" height="19.147"/>
		<rect x="145.765" y="280.307" width="3.98" height="19.147"/>
		<rect x="154.71" y="280.307" width="3.98" height="19.147"/>
		<rect x="165.604" y="280.307" width="3.98" height="19.147"/>
		<polygon points="86.815,299.455 82.834,299.455 85.265,280.307 89.245,280.307 		"/>
		<polygon points="118.238,299.455 114.258,299.455 116.688,280.307 120.668,280.307 		"/>
		<polygon points="94.901,299.455 98.881,299.455 96.451,280.307 92.471,280.307 		"/>
		<rect x="66.075" y="287.179" width="3.98" height="12.276"/>
		<rect x="58.534" y="296.061" width="19.064" height="3.394"/>
		<rect x="85.265" y="280.307" width="11.187" height="3.771"/>
		<rect x="85.265" y="290.363" width="11.187" height="3.771"/>
		<rect x="100.348" y="280.307" width="11.187" height="3.771"/>
		<rect x="196.881" y="276.62" width="3.98" height="22.834"/>
		<rect x="193.277" y="280.307" width="11.187" height="3.771"/>
		<rect x="138.559" y="280.307" width="11.187" height="3.771"/>
		<rect x="118.783" y="280.307" width="11.187" height="3.771"/>
		<rect x="156.701" y="280.307" width="11.187" height="3.771"/>
		<rect x="156.701" y="295.684" width="11.187" height="3.771"/>
		<rect x="174.57" y="284.078" width="3.98" height="15.377"/>
		<rect x="185.463" y="280.307" width="3.98" height="19.147"/>
		<rect x="176.56" y="295.684" width="11.187" height="3.771"/>
		<rect x="116.395" y="295.684" width="13.575" height="3.771"/>
		<rect x="219.17" y="275.384" width="12.507" height="2.954"/>
		<rect x="217.285" y="283.115" width="16.277" height="2.954"/>
		<rect x="237.836" y="275.447" width="23.568" height="2.702"/>
		<rect x="240.601" y="280.664" width="18.037" height="2.702"/>
		<rect x="240.601" y="284.812" width="18.037" height="2.702"/>
		<rect x="240.601" y="289.148" width="18.037" height="2.702"/>
		<rect x="237.773" y="293.359" width="23.693" height="2.702"/>
		<rect x="211.189" y="281.795" width="4.399" height="2.954"/>
		<rect x="223.758" y="276.893" width="3.331" height="7.165"/>
		<rect x="239.596" y="280.664" width="3.017" height="11.187"/>
		<rect x="243.492" y="273.813" width="3.017" height="6.033"/>
		<rect x="248.269" y="291.662" width="3.017" height="7.919"/>
		<rect x="252.794" y="273.813" width="3.017" height="6.033"/>
		<rect x="256.816" y="280.664" width="3.017" height="11.187"/>
		<polygon points="220.302,299.581 216.971,299.581 223.695,285.817 227.026,285.817 		"/>
		<polygon points="230.546,299.581 233.877,299.581 227.152,285.817 223.821,285.817 		"/>
		<polygon points="213.074,299.581 209.743,299.581 212.069,286.823 215.4,286.823 		"/>
		<polygon points="215.588,279.721 212.257,279.721 209.995,275.322 213.326,275.322 		"/>
	</g>
</g>
<g id="secondary">
</g>
</svg>
