<?xml version="1.0" encoding="utf-8"?>
<!-- Generator: Adobe Illustrator 17.0.0, SVG Export Plug-In . SVG Version: 6.00 Build 0)  -->
<!DOCTYPE svg PUBLIC "-//W3C//DTD SVG 1.1//EN" "http://www.w3.org/Graphics/SVG/1.1/DTD/svg11.dtd">
<svg version="1.1" xmlns="http://www.w3.org/2000/svg" xmlns:xlink="http://www.w3.org/1999/xlink" x="0px" y="0px" width="320px"
	 height="320px" viewBox="0 0 320 320" enable-background="new 0 0 320 320" xml:space="preserve">
<g id="backup" display="none">
	
		<text transform="matrix(1 0 0 1 15.9326 281.3847)" display="inline" fill="#FFFFFF" font-family="'KozMinPro-Heavy-83pv-RKSJ-H'" font-size="144.0688">襲來</text>
	
		<text transform="matrix(1 0 0 1 13.0683 87.0493)" display="inline" fill="#FCEE21" font-family="'KozMinPro-Heavy-83pv-RKSJ-H'" font-size="73.466">非常事態</text>
	
		<text transform="matrix(1 0 0 1 22.8476 139.7095)" display="inline" fill="#FFFFFF" font-family="'KozMinPr6N-Heavy-83pv-RKSJ-H'" font-size="36.5741">新･兩岸監督條例</text>
</g>
<g id="backgrounds">
	<rect width="320" height="320"/>
</g>
<g id="stripes">
</g>
<g id="main">
	<g>
		<path fill="#FFFFFF" d="M149.187,263.232c-0.576,1.009-1.44,1.585-3.168,1.585c-0.577,0-1.441-0.144-2.305-0.289
			c-6.195,1.585-14.55,2.593-22.761,3.17v0.144c11.525,3.889,24.634,5.763,37.167,6.77v1.729
			c-7.923,2.305-12.822,9.077-14.838,18.873c-23.482-7.636-40.769-18.873-50.133-41.922c-5.474,3.313-11.813,6.05-19.016,8.356
			v13.109c9.509-0.288,19.881-0.577,30.397-1.009v1.873c-11.668,4.322-29.101,9.508-55.895,16.423
			c-1.009,1.872-2.594,3.025-4.178,3.313l-9.22-19.881c4.466,0,10.949-0.143,18.872-0.288v-8.643
			c-10.804,2.016-22.474,3.313-34.574,4.034l-0.577-2.161c20.024-3.891,37.456-10.229,48.981-17.864H21.262l-0.721-2.305h56.617
			v-9.508c-2.737,1.585-6.916,2.737-12.822,3.457c0-9.508-1.296-12.101-7.491-13.397v-1.729h7.347c0.864,0,0.864-0.432,0.864-4.466
			H46.472v14.261c0,1.153-5.474,4.898-14.549,4.898h-3.17v-49.412l19.592,7.347h15.27l6.627-8.643H20.686l-0.72-2.305h21.177v-0.144
			c-2.594-0.288-5.043-1.584-6.484-4.609c0.432-1.729,0.721-3.602,0.721-5.475c0-1.872-0.289-3.745-0.864-5.186l0.72-0.288H24.72
			L24,170.745h22.04v-12.677l23.195,2.161c-0.289,1.584-1.296,2.449-4.466,2.881v7.636h3.313l7.779-9.796l14.55,10.084
			c-1.008,1.729-3.025,2.018-6.627,2.018H65.489l17.143,4.177c-0.432,1.729-1.873,2.45-5.474,2.45
			c-3.602,2.593-9.077,6.195-13.83,9.075h8.788l7.203-8.068l13.829,8.5c-1.009,1.584-3.025,1.873-6.482,1.873H70.963l18.008,12.677
			c-0.864,1.152-2.882,2.449-5.907,3.025v19.304c0,3.313-0.144,6.195-1.584,8.643l14.118,1.296
			c-1.153-2.304-1.441-5.763-1.441-10.949v-66.7l23.338,1.873c-0.289,1.729-1.296,2.737-4.898,3.313v5.043h17.431l8.068-9.796
			l15.558,10.084c-1.008,1.729-3.168,2.017-6.627,2.017h-34.43v8.931h18.44l6.05-7.923l17.431,11.525
			c-0.576,0.864-1.872,1.729-3.889,2.161v5.763c-0.143,1.009-5.906,3.602-11.236,4.466l10.084,6.195
			c-1.009,1.584-3.025,1.873-6.339,1.873h-30.54v7.202h18.727l6.05-6.915l11.957,7.347c-1.009,1.585-3.025,1.873-6.338,1.873
			h-30.397v7.347h18.727l6.05-6.915l12.102,7.347c-1.009,1.585-3.025,1.873-6.339,1.873h-30.54v2.016
			c0,4.034,0.288,4.034,5.042,4.034h19.593c4.754,0,6.77,0,10.804-4.322h0.864l0.72,3.602c5.763,1.872,7.059,2.449,7.059,4.754
			c0,4.754-2.304,6.915-13.253,7.636l11.668,7.779c-1.009,1.729-2.881,2.016-6.771,2.016h-16.422L149.187,263.232z M59.583,188.753
			c0.576-4.466,1.296-10.949,1.584-15.702H36.965c10.661,2.737,14.263,6.482,14.263,9.652c0,3.025-3.314,5.474-7.203,5.906v0.144
			H59.583z M65.056,202.007H46.472v8.067h18.584V202.007z M46.472,220.302h18.584v-7.923H46.472V220.302z M97.326,250.554
			l-1.729,1.153c4.609,5.474,10.804,9.795,17.863,12.965c5.474-4.034,11.525-9.796,14.982-14.118H97.326z M112.308,182.126
			c-1.729,1.152-8.787,3.025-14.981,3.025l15.414,5.763h19.448v-8.788H112.308z M134.781,240.902h-19.304
			c-7.635,0-12.533-0.288-15.702-1.296c-0.577,0.144-1.152,0.144-1.729,0.289v8.354h30.54L134.781,240.902z M131.324,201.574
			l4.61-5.33h-3.746v-3.025h-19.592v8.356H131.324z"/>
		<path fill="#FFFFFF" d="M241.683,222.752c1.584,3.745,3.602,7.202,5.907,10.516c5.042-9.941,8.354-25.643,9.075-41.634
			l24.922,5.619c-0.577,1.872-1.729,3.025-5.474,3.313c-1.873,5.33-4.034,10.229-6.484,14.55
			c17.864,2.881,23.915,10.084,23.915,16.279c0,5.763-5.043,10.516-10.661,10.516c-2.737,0-5.474-1.009-7.923-3.602
			c-0.864-6.482-3.745-13.829-7.491-19.448c-4.898,7.491-10.804,13.254-17.719,17.288c12.245,15.702,31.117,26.363,50.277,30.973
			l-0.288,1.585c-7.636,2.016-13.542,8.643-15.991,18.584c-21.897-11.237-34.574-29.389-42.065-57.481v58.057
			c0,2.161-9.22,7.348-17.143,7.348h-4.034v-39.185c-14.406,13.109-34.142,24.922-56.039,31.694l-0.864-1.73
			c18.44-10.084,35.583-27.371,47.108-46.819c-1.298,0.577-2.882,0.864-4.466,0.864c-2.882,0-6.051-1.296-8.212-4.466v-1.152
			c0-4.034-0.72-8.5-1.872-12.389c-6.916,9.796-15.271,16.999-24.923,22.186l-1.584-1.153c8.788-10.804,15.991-30.396,18.727-51.285
			l24.202,6.771c-0.576,1.872-1.872,2.881-5.763,3.025c-2.161,5.618-4.609,10.804-7.347,15.415
			c10.661,3.025,15.559,7.347,16.856,11.381c1.584-3.314,3.025-6.627,4.177-10.084V186.88h-55.175l-0.721-2.449h55.896v-25.355
			l26.651,2.449c-0.288,2.161-1.296,3.313-5.474,3.889v19.016h26.363l11.093-13.974l20.456,14.261
			c-1.009,1.729-3.025,2.161-7.203,2.161h-50.709V222.752z"/>
	</g>
	<g>
		<path fill="#FCEE21" d="M49.508,66.771l0.148,0.882l-4.188,1.984C43.337,82.2,34.888,90.061,16.667,94.029L16.3,93.368
			c9.697-4.776,15.354-10.727,17.779-18.882c-3.38,1.322-7.2,2.792-11.535,4.408c-0.368,0.955-1.176,1.616-1.983,1.763
			l-5.585-10.212c4.041-0.294,11.535-1.028,20.352-2.057c0.221-1.69,0.294-3.527,0.294-5.437v-6.979H20.194l-0.368-1.176h15.796
			V40.542H18.064l-0.368-1.175h17.927V24.82l13.445,0.955c-0.073,1.029-0.808,1.469-3.012,1.837v35.339
			c0,1.469-0.073,2.866-0.22,4.261L49.508,66.771z M74.489,65.449l9.772,7.126c-0.515,0.808-1.69,1.029-3.601,1.029H63.395v16.751
			c0,1.103-4.629,3.674-8.67,3.674h-1.983V24.967l13.445,1.249c-0.147,1.029-0.661,1.69-2.791,1.984v11.167h4.775l5.143-6.759
			l9.477,6.907c-0.514,0.808-1.69,1.028-3.6,1.028H63.395v14.841h4.481l4.775-6.245l8.817,6.392
			c-0.587,0.808-1.69,1.028-3.526,1.028H63.395v15.87h5.73L74.489,65.449z"/>
		<path fill="#FCEE21" d="M148.615,32.681l9.404,8.816c-0.661,0.661-1.322,0.882-2.865,0.955c-3.013,1.764-8.009,3.968-11.756,5.07
			l-0.441-0.368c0.368-2.057,0.735-5.363,0.955-7.861h-42.979c0.22,1.102,0.368,2.057,0.368,3.012c0,4.628-2.792,7.274-6.392,7.274
			c-3.012,0-5.805-1.91-5.805-5.143c0-2.792,2.277-4.702,4.775-5.51c2.057-0.661,4.556-2.645,4.261-4.996l0.882-0.073
			c0.735,1.543,1.249,2.939,1.617,4.261h5.73c-1.101-0.22-2.277-0.808-3.232-1.984c0-3.747-1.47-8.082-3.967-10.58l0.441-0.441
			c9.992,1.029,13.371,4.556,13.371,7.714c0,2.571-2.131,4.776-4.702,5.29h9.477V24.232l13.151,1.249
			c-0.073,0.882-0.662,1.396-2.498,1.617v11.02h3.967c1.249-4.041,2.571-9.625,3.306-13.372l14.547,4.776
			c-0.294,0.882-0.955,1.249-2.939,1.102c-3.232,2.131-8.302,5.143-12.93,7.494h8.817L148.615,32.681z M137.007,68.608l3.821-4.996
			l10.212,7.127c-0.441,0.587-1.322,1.322-2.939,1.616v7.2c0,5.437-0.882,9.477-11.462,10.727c0-6.392-1.249-8.596-5.657-9.331
			v-0.808h6.171c0.441,0,0.588-0.22,0.588-0.955v-9.404h-9.331v21.674c0,0.734-4.702,2.645-8.302,2.645h-1.984V69.784h-9.184v16.604
			c0,0.22-1.542,3.747-10.286,3.747V64.494l11.021,4.115h8.449v-8.302h-4.188c-0.808,1.249-4.408,3.233-8.596,3.233h-1.469V43.261
			l10.727,4.114h16.751l3.673-4.775l10.066,6.833c-0.367,0.514-1.249,1.176-2.571,1.469v9.845c0,0.073-2.939,2.131-10.432,2.131
			v-2.571h-1.838c-0.22,0.588-0.514,0.955-1.836,1.175v7.127H137.007z M114.084,59.13h18.001V48.551h-18.001V59.13z"/>
		<path fill="#FCEE21" d="M225.241,61.335l8.155,6.759c-0.515,0.808-1.47,1.029-3.527,1.029h-8.963v11.314
			c0,0.073-2.645,2.792-10.579,2.792v-5.143h-8.523v4.482c0,6.024-1.617,10.58-13.665,11.535c0-7.274-3.306-8.375-9.698-9.257V83.89
			h11.315c0.955,0,1.249-0.367,1.249-1.175v-4.629H171.02l-0.368-1.175h20.352v-7.788H162.13l-0.294-1.175h29.168v-7.641h-19.397
			l-0.368-1.176h19.764v-7.126h-7.2c0,0.734-2.057,3.894-10.653,3.894V36.796l11.241,4.187h6.613v-6.686h-27.772l-0.368-1.175
			h28.139v-8.963l13.591,1.175c-0.073,0.882-0.441,1.543-2.791,1.91v5.878h12.416l5.51-6.686l10.138,6.833
			c-0.587,0.882-1.542,1.029-3.6,1.029h-24.465v6.686h6.759l3.746-4.922l10.36,7.053c-0.441,0.515-1.249,1.103-2.571,1.396v8.155
			c-0.074,0.441-2.866,1.617-5.805,2.204l9.183,6.392c-0.366,0.515-1.175,1.102-2.571,1.396v5.07L225.241,61.335z M183.804,50.829
			h7.2v-8.67h-7.2V50.829z M209.297,42.159h-7.493v8.67h7.493V42.159z M201.804,52.004v7.126h7.788l3.012-3.967
			c-0.441,0.073-2.718,0.073-3.306,0.073v-3.233H201.804z M201.804,60.306v7.641h8.523v-7.641H201.804z M210.326,76.91v-7.788
			h-8.523v7.788H210.326z"/>
		<path fill="#FCEE21" d="M284.674,79.408l0.073,5.437c3.306,1.249,3.747,1.69,3.747,3.012c0,3.453-2.425,5.29-11.756,5.29H264.69
			c-9.258,0-11.314-1.69-11.314-9.11v-8.155l11.976,0.734c-0.882-1.322-1.911-2.424-2.939-3.38c-1.322,0.441-3.012,0.808-5.07,1.029
			c0-5.29-1.102-7.053-5.143-7.641v-0.882h5.51c0.514,0,0.661-0.22,0.661-0.882v-4.114h-8.89v10.359c0,0.22-1.322,3.454-9.183,3.454
			V43.628c-0.514,0.661-1.249,1.029-1.91,1.175l-3.601-9.551c1.984,0.073,4.996,0.073,8.669,0.073
			c0.956-3.673,1.764-8.082,2.205-11.314l13.077,3.6c-0.22,0.882-0.955,1.249-2.791,1.175c-2.057,1.984-5.07,4.408-8.155,6.539
			h12.857c-0.735-1.763-1.764-3.38-3.012-4.555l0.514-0.441c9.697,1.249,12.93,4.922,12.93,8.081c0,2.719-2.425,5.07-5.07,5.07
			c-0.587,0-1.176-0.147-1.763-0.368l6.465,4.556c-0.441,0.587-1.396,1.249-2.939,1.543v15.943c0,3.159-0.367,5.657-3.526,7.347
			c9.477-0.368,12.711,2.865,12.711,5.877c0,2.645-2.425,5.143-5.291,5.143c-1.101,0-2.35-0.368-3.453-1.323
			c-0.587-1.69-1.542-3.6-2.645-5.216c-0.147,0.514-0.661,0.882-2.277,1.102v6.024c0,1.396,0,1.396,2.204,1.396h11.388
			c3.159,0,3.967,0,7.347-6.098H284.674z M248.526,77.204c0.808,2.278,1.176,4.335,1.176,6.098c0,5.951-3.894,9.037-7.861,9.037
			c-3.16,0-6.172-1.837-6.172-4.996c0-2.718,2.277-4.555,4.702-5.289c3.16-0.441,6.833-2.131,7.274-4.849H248.526z M262.191,41.645
			c-0.073-1.396-0.293-2.792-0.735-4.261c-4.702,1.469-10.8,3.159-18.955,5.289l7.347,2.939h7.789l3.6-4.629L262.191,41.645z
			 M258.371,46.788h-8.89v5.657h8.89V46.788z M249.481,59.571h8.89V53.62h-8.89V59.571z M301.351,39.955
			c3.159,1.249,3.453,1.69,3.453,3.012c0,3.453-2.645,5.143-10.874,5.143h-10.138c-8.89,0-10.653-1.91-10.653-9.331V24.305
			l11.976,0.808c-0.148,0.808-0.514,1.249-2.425,1.543v6.612c4.115-2.131,8.523-4.849,10.58-6.465l7.053,8.229
			c-0.293,0.22-0.587,0.294-0.955,0.294c-0.441,0-1.028-0.147-1.617-0.514c-3.086,0.514-9.33,1.102-15.061,1.175v2.865
			c0,1.617,0.073,1.617,1.984,1.617h9.331c2.791,0,3.526,0,6.685-4.849h0.514L301.351,39.955z M301.571,65.376
			c3.16,1.175,3.527,1.689,3.527,3.012c0,3.453-2.719,5.143-10.947,5.143h-10.286c-8.963,0-10.727-1.91-10.727-9.404V48.771
			l11.976,0.808c-0.148,0.808-0.514,1.249-2.425,1.543v6.759c4.702-2.425,9.845-5.584,12.27-7.421l6.833,8.816
			c-0.221,0.22-0.588,0.368-0.882,0.368c-0.514,0-1.029-0.22-1.69-0.661c-3.306,0.587-10.286,1.322-16.531,1.469V64.2
			c0,1.617,0.073,1.69,1.984,1.69h9.551c2.718,0,3.601,0,6.686-4.996h0.514L301.571,65.376z M285.555,76.396
			c14.106,0.368,18.735,5.584,18.735,9.919c0,3.159-2.498,5.877-5.51,5.877c-1.249,0-2.571-0.441-3.82-1.469
			c-1.617-5.07-5.291-10.653-9.772-13.812L285.555,76.396z"/>
	</g>
	<g>
		<path fill="#FFFFFF" d="M54.083,118.422l4.755,3.767c-0.293,0.402-0.842,0.512-1.829,0.512h-1.756v19.129
			c-0.037,0.293-1.573,1.353-4.243,1.353h-0.952v-20.482h-2.596v1.317c0,6.62-0.658,14.374-9.802,19.128l-0.33-0.365
			c4.608-5.377,5.048-12.216,5.048-18.91v-1.244c-0.293,0.293-0.805,0.366-1.61,0.366h-4.645c-0.037,0.293-0.255,0.512-0.914,0.622
			v4.462h1.097l2.012-2.889l3.657,2.963c-0.255,0.402-0.767,0.512-1.719,0.512H35.21v2.268l0.037-0.037
			c4.462,0.805,5.962,2.524,5.962,4.023c0,1.317-1.244,2.451-2.561,2.451c-0.658,0-1.354-0.293-1.939-0.988
			c0.037-1.682-0.549-3.694-1.499-5.011v10.461c0,0.402-2.268,1.39-4.023,1.39h-0.988v-7.534c-1.791,1.865-3.95,3.475-6.291,4.828
			l-0.329-0.475c2.596-3.036,4.572-7.388,5.669-11.375h-5.01l-0.147-0.585h6.107v-5.084h-6.327l-0.145-0.585H33.93
			c0.439-2.341,0.842-5.559,1.024-7.827l6.072,1.353c-0.11,0.439-0.439,0.658-1.39,0.658c-1.17,1.682-3.108,4.023-4.974,5.815h1.974
			l2.049-2.633l3.694,2.633v-10.972l5.267,1.609c2.194-1.426,4.425-3.292,5.632-4.645l5.303,4.206
			c-0.256,0.219-0.622,0.365-1.134,0.365c-0.366,0-0.805-0.073-1.317-0.219c-2.121,0.695-5.45,1.317-8.668,1.682v7.681h4.023
			L54.083,118.422z M24.457,114.435l-0.147-0.585h5.852v-5.486l6.547,0.622c-0.073,0.512-0.402,0.768-1.426,0.914v3.95h0.585
			l2.048-2.889l3.768,2.963c-0.256,0.403-0.768,0.512-1.719,0.512H24.457z M27.091,114.728c3.548,1.646,4.755,3.511,4.755,5.011
			c0,1.536-1.28,2.633-2.561,2.633c-0.768,0-1.536-0.366-2.048-1.243c0.145-0.658,0.182-1.354,0.182-2.085
			c0-1.5-0.255-3.073-0.695-4.17L27.091,114.728z"/>
		<path fill="#FFFFFF" d="M64.542,125.81c0-2.231,1.792-4.024,4.023-4.024c2.232,0,4.024,1.792,4.024,4.024
			c0,2.231-1.792,4.023-4.024,4.023C66.261,129.833,64.542,127.968,64.542,125.81z"/>
		<path fill="#FFFFFF" d="M113.186,112.387c-0.255,0.403-0.767,0.512-1.829,0.512h-12.91v6.583h6.803l1.939-2.56l5.01,3.621
			c-0.255,0.292-0.695,0.621-1.462,0.768v16.276c0,2.889-0.622,4.974-6.255,5.596c0-3.621-1.426-4.389-4.06-4.792v-0.439h4.718
			c0.33,0,0.475-0.147,0.475-0.512v-3.073c-0.292,0.695-0.512,1.5-0.622,2.304c-1.243-1.17-2.158-3.401-2.56-5.705
			c-0.695,2.121-2.122,4.023-3.986,5.34v4.828c0,0.293-1.537,1.353-4.243,1.353h-0.952v-8.229c-0.329,0.695-0.549,1.572-0.657,2.414
			c-1.17-1.17-2.049-3.401-2.451-5.669c-0.695,2.121-2.085,4.06-3.95,5.376v4.865c0,0.146-0.695,1.975-5.011,1.975v-25.859
			l5.45,2.121h6.619v-6.583h-14.41l-0.183-0.585h26.225l2.962-3.694L113.186,112.387z M92.156,124.127
			c-0.292,0.403-1.279,0.622-2.341,0.768v0.768c0.256,2.816,1.5,4.718,3.438,6.145v-11.741h-7.058v15.581
			c1.572-2.414,2.816-6.62,3.071-10.095v-1.207h-2.268l-0.147-0.585h1.902l0.952-1.462L92.156,124.127z M105.615,120.068h-7.168
			v15.398c1.572-2.45,2.816-6.51,3.108-9.912v-1.207h-2.377l-0.145-0.585h1.974l0.952-1.499l2.486,1.865
			c-0.292,0.403-1.316,0.622-2.377,0.768c0,4.352,2.671,6.291,3.548,6.912V120.068z"/>
		<path fill="#FFFFFF" d="M124.047,121.457v6.109c0,1.536-0.073,3.218-0.402,4.974h8.376v-5.742h-7.316l-0.147-0.585h14.96
			l2.451-3.438l4.498,3.511c-0.292,0.402-0.805,0.512-1.792,0.512h-7.169v5.742h4.096l2.524-3.511l4.608,3.585
			c-0.292,0.403-0.805,0.512-1.792,0.512h-9.436v8.998c0,0.219-1.646,1.097-4.462,1.097h-1.024v-10.095h-8.486
			c-0.804,3.658-2.889,7.425-8.046,9.985l-0.22-0.256c3.146-4.498,3.366-10.314,3.366-15.288v-8.742l0.402,0.147v-8.888l6.474,0.512
			c-0.073,0.475-0.33,0.805-1.39,0.951v4.316h5.633V108.4l6.619,0.622c-0.073,0.512-0.402,0.768-1.426,0.914v5.925h5.815v-5.779
			l6.619,0.512c-0.072,0.512-0.329,0.805-1.353,0.951v5.743c0,0.073-0.147,0.183-0.366,0.256l4.28,3.401
			c-0.292,0.403-0.768,0.512-1.792,0.512H124.047z M124.121,118.129c0,0.146-1.572,0.951-4.718,0.951l5.413,1.792h17.849
			l2.194-3.072c-1.427,0.439-2.781,0.439-4.096,0.439v-1.792h-16.642V118.129z"/>
		<path fill="#FFFFFF" d="M183.299,137.99l3.145,2.999c-0.255,0.402-0.732,0.512-1.719,0.512h-32.698l-0.147-0.585h4.865v-11.997
			c-1.17,0.585-2.304,0.585-3.731,0.585v-20.189l5.267,1.938h5.925l2.158-2.743l4.061,2.816c-0.256,0.439-0.805,0.512-1.72,0.512
			h-4.937v4.499h0.585l1.354-1.756l3.913,2.597c-0.147,0.183-0.439,0.403-0.915,0.475v4.28c0,0.073-1.097,1.024-4.095,1.024v-0.987
			h-0.805v4.462h0.549l2.231-2.779l4.096,2.853c-0.255,0.439-0.805,0.512-1.719,0.512h-11.192v1.098
			c0,0.146-0.292,0.439-0.804,0.695l5.01,1.902h14.338l2.084-2.67l5.047,3.401c-0.255,0.366-0.658,0.585-1.646,0.768v8.339
			L183.299,137.99z M159.561,111.838h-1.792v4.499h1.792V111.838z M164.609,116.922h-6.84v4.462h6.84V116.922z M159.598,126.432
			v-4.462h-1.829v4.462H159.598z M161.647,131.296v9.619h1.828v-9.619H161.647z M170.058,131.296h-1.829v9.619h1.829V131.296z
			 M174.813,115.642c-1.244,2.487-2.889,4.792-4.938,6.364l-0.475-0.256c1.427-3.255,2.195-8.485,2.377-12.764l6.218,1.024
			c-0.11,0.475-0.476,0.731-1.317,0.805c-0.402,1.39-0.915,2.816-1.572,4.242h4.279l2.451-3.328l4.572,3.401
			c-0.292,0.403-0.841,0.512-1.792,0.512H174.813z M179.166,123.542l2.341-3.255l4.315,3.329c-0.292,0.403-0.841,0.512-1.792,0.512
			h-11.814l-0.145-0.585H179.166z M176.642,131.296h-1.829v9.619h1.829V131.296z"/>
		<path fill="#FFFFFF" d="M211.498,127.895l1.902-2.487l5.047,3.548c-0.22,0.256-0.622,0.549-1.28,0.695v12.107
			c0,0.037-1.389,1.207-5.303,1.207v-2.268h-12.435v0.549c0,0.146-0.732,1.938-5.195,1.938v-17.409l0.658,0.256
			c-0.073-1.463-0.182-2.377-1.938-2.67v-0.439h2.011c0.147,0,0.22-0.146,0.22-0.512v-1.719h-0.366
			c-1.719,2.414-3.95,4.242-6.217,5.303l-0.439-0.329c1.134-1.682,2.268-4.608,2.963-7.534l4.06,1.536v-2.231h-6.657l-0.147-0.585
			h6.804V108.4l6.217,0.585c-0.073,0.512-0.402,0.768-1.462,0.951v2.706h0.658l2.048-2.816l3.877,2.889
			c-0.292,0.403-0.841,0.512-1.719,0.512h-4.864v3.621h2.048l2.231-2.926l4.096,2.999c-0.255,0.439-0.767,0.512-1.719,0.512h-6.656
			v5.011c0,2.231-0.403,3.767-2.817,4.462l2.597,0.987H211.498z M211.863,128.48h-12.435v3.402h12.435V128.48z M211.863,132.467
			h-12.435v3.475h12.435V132.467z M199.428,140.111h12.435v-3.584h-12.435V140.111z M201.256,118.861
			c4.133,0.878,5.487,2.414,5.487,3.694c0,1.28-1.28,2.341-2.633,2.341c-0.768,0-1.573-0.366-2.122-1.207
			c0.11-1.536-0.255-3.475-0.987-4.645L201.256,118.861z M218.3,108.912l4.353,3.694c-0.257,0.402-0.585,0.512-1.427,0.621
			c-1.024,2.634-2.487,5.011-4.462,7.096c1.974,1.061,4.17,1.829,6.401,2.414l-0.037,0.403c-1.975,0.475-3.401,2.012-4.06,4.389
			c-2.194-1.207-4.023-2.597-5.523-4.353c-2.413,1.719-5.267,3.109-8.705,4.17l-0.182-0.439c2.963-1.573,5.339-3.658,7.168-6.072
			c-1.353-2.304-2.341-5.157-2.999-8.814h-2.56l-0.183-0.585h9.62L218.3,108.912z M209.376,112.021
			c0.915,2.597,2.377,4.608,4.206,6.145c1.062-1.902,1.866-3.987,2.414-6.145H209.376z"/>
		<path fill="#FFFFFF" d="M224.48,128.626c1.902-4.755,3.878-12.984,4.828-20.189l6.584,1.609c-0.11,0.476-0.44,0.768-1.464,0.841
			c-0.767,2.561-1.646,4.975-2.67,7.242l1.829,0.658c-0.147,0.329-0.44,0.585-1.17,0.695v22.384
			c-0.037,0.329-2.049,1.316-3.878,1.316h-0.877v-17.702c-0.878,1.243-1.792,2.377-2.744,3.401L224.48,128.626z M259.629,130.455
			c-0.255,0.402-0.805,0.512-1.756,0.512h-6.474c1.829,2.816,5.34,4.901,8.631,5.962l-0.109,0.365
			c-1.792,0.512-3.073,2.085-3.694,4.682c-2.889-2.487-4.426-6.217-5.413-11.009h-0.073v10.972c0,0.073-0.951,1.244-5.12,1.244
			v-6.547c-2.561,2.268-5.815,4.096-9.619,5.487l-0.293-0.476c3.694-2.67,6.401-6.657,7.827-10.68h-4.865v4.974
			c0,0.037-0.768,1.28-4.462,1.28v-22.457l5.705,0.476c-0.037,0.475-0.293,0.731-1.244,0.878v10.204
			c3.183-1.39,5.779-3.255,7.754-5.559c-1.025-1.17-1.866-2.524-2.597-3.987c-1.426,1.573-2.999,2.853-4.682,3.877l-0.402-0.293
			c1.646-2.67,3.218-7.352,4.023-11.923l6.327,2.048c-0.147,0.439-0.512,0.731-1.499,0.731c-0.44,0.841-0.878,1.646-1.39,2.414
			h5.779l2.487-3.401l4.572,3.475c-0.292,0.403-0.841,0.512-1.792,0.512h-1.499c-0.952,2.195-2.268,4.096-3.878,5.743
			c2.304,0.621,4.975,1.024,8.047,1.207l-0.037,0.403c-1.975,0.841-2.853,2.414-3.036,4.864c-3.621-0.768-6.291-2.012-8.376-3.694
			c-2.67,1.792-5.925,3.145-9.729,4.096l-0.073-0.256v3.804h6.949v-5.084l6.364,0.549c-0.073,0.439-0.292,0.695-1.244,0.841v3.694
			h2.159l2.377-3.145L259.629,130.455z M245.84,114.216c-0.403,0.622-0.842,1.207-1.317,1.756c0.951,1.024,2.121,1.866,3.548,2.597
			c0.841-1.353,1.499-2.816,1.975-4.352H245.84z"/>
		<path fill="#FFFFFF" d="M272.43,110.046c-0.11,0.476-0.439,0.768-1.464,0.841c-0.767,2.561-1.646,4.975-2.669,7.242l1.829,0.658
			c-0.147,0.329-0.44,0.585-1.17,0.695v22.384c-0.037,0.329-2.049,1.316-3.878,1.316H264.2v-17.702
			c-0.878,1.243-1.792,2.377-2.743,3.401l-0.44-0.256c1.902-4.755,3.878-12.984,4.828-20.189L272.43,110.046z M288.705,133.454
			c0,0.366-2.012,1.28-3.658,1.28h-0.877v-13.679c-0.22,0.256-0.549,0.365-1.207,0.439c-0.988,8.595-3.438,16.934-12.984,21.726
			l-0.22-0.475c3.731-3.036,5.852-7.169,7.096-11.777c-0.147,0.037-0.292,0.037-0.439,0.037c-0.658,0-1.317-0.256-1.902-0.878
			c-0.073-1.17-0.475-2.414-1.17-3.365c-0.951,1.28-2.048,2.451-3.255,3.548l-0.403-0.475c2.634-4.682,3.914-11.082,4.499-17.337
			h-3.182l-0.147-0.585h7.608l2.414-3.219l4.499,3.292c-0.293,0.402-0.842,0.512-1.792,0.512h-4.426
			c-0.402,2.56-1.024,4.974-1.902,7.242h0.768l2.231-2.377l3.914,3.365v-7.425l5.632,0.476c-0.073,0.402-0.292,0.658-1.097,0.768
			V133.454z M277.038,120.324c-0.805,1.975-1.829,3.84-3.036,5.559c1.719,0.073,2.926,0.366,3.731,0.805
			c0.329-2.084,0.549-4.206,0.658-6.364H277.038z M289.986,109.059l6.217,0.512c-0.037,0.512-0.22,0.805-1.462,0.988v26.773
			c0,3.036-0.732,5.34-6.072,5.852c0-3.109-0.805-4.279-4.353-4.755v-0.475h5.048c0.475,0,0.622-0.183,0.622-0.622V109.059z"/>
	</g>
</g>
<g id="secondary">
</g>
</svg>
