<?xml version="1.0" encoding="utf-8"?>
<!-- Generator: Adobe Illustrator 17.0.0, SVG Export Plug-In . SVG Version: 6.00 Build 0)  -->
<!DOCTYPE svg PUBLIC "-//W3C//DTD SVG 1.1//EN" "http://www.w3.org/Graphics/SVG/1.1/DTD/svg11.dtd">
<svg version="1.1" xmlns="http://www.w3.org/2000/svg" xmlns:xlink="http://www.w3.org/1999/xlink" x="0px" y="0px" width="320px"
	 height="180px" viewBox="0 0 320 180" enable-background="new 0 0 320 180" xml:space="preserve">
<g id="backup" display="none">
	
		<text transform="matrix(1 0 0 1 17.6404 155.7666)" display="inline" fill="#FFFFFF" font-family="'KozMinPr6N-Heavy-83pv-RKSJ-H'" font-size="111.709">、</text>
	<g display="inline">
		
			<text transform="matrix(1 0 0 1 5.9014 75.3387)" fill="#FFFFFF" font-family="'KozMinPr6N-Heavy-83pv-RKSJ-H'" font-size="75.7747">自己國家</text>
	</g>
	<g display="inline">
		
			<text transform="matrix(1 0 0 1 81.6757 160.4919)" fill="#FFFFFF" font-family="'KozMinPr6N-Heavy-83pv-RKSJ-H'" font-size="75.7747">自己救</text>
	</g>
</g>
<g id="backgrounds">
	<rect y="0" fill="#4D4D4D" width="320" height="180"/>
</g>
<g id="stripes">
</g>
<g id="main">
	<g>
		<path fill="#FFFFFF" d="M49.478,139.904c16.422,2.122,28.151,9.271,28.151,17.873c0,5.362-4.134,8.49-8.378,8.49
			c-2.682,0-5.362-1.117-7.262-3.687c-0.781-6.926-4.804-16.868-13.069-21.672L49.478,139.904z"/>
	</g>
	<g>
		<g>
			<path fill="#FFFFFF" d="M63.188,18.811l11.063,8.26c-0.53,0.682-1.592,1.439-3.334,1.818v49.33c0,0.151-2.956,3.183-11.366,3.183
				v-5.381H30.756v1.971c0,0.454-1.667,4.471-11.139,4.471V20.023l11.82,4.697h6.365c0.455-4.395,0.682-10.457,0.682-14.549
				l16.52,2.956c-0.228,0.984-0.834,1.515-2.88,1.515c-2.955,2.956-7.577,6.972-12.275,10.078h18.868L63.188,18.811z M59.551,25.934
				H30.756v15.079h28.795V25.934z M59.551,42.226H30.756v15.533h28.795V42.226z M30.756,74.809h28.795V58.972H30.756V74.809z"/>
			<path fill="#FFFFFF" d="M149.115,56.243l0.076,11.519c4.622,1.439,6.062,2.121,6.062,4.471c0,5.076-3.259,8.184-18.565,8.184
				h-28.037c-12.351,0-17.049-2.955-17.049-14.095V37.376l12.427,4.471h27.81V19.038H88.647l-0.379-1.213h42.737l4.318-5.683
				l11.215,8.032c-0.53,0.682-1.591,1.439-3.334,1.818v25.233c0,0.151-3.258,2.5-11.366,2.5v-6.668h-28.87v23.718
				c0,2.122,1.212,2.804,5.229,2.804h27.431c3.713,0,5.607-0.228,7.198-1.895c1.516-1.895,3.713-6.44,5.684-11.442H149.115z"/>
			<path fill="#FFFFFF" d="M220.798,11.839l10.078,7.427c-0.53,0.682-1.516,1.288-3.03,1.667v57.74
				c0,0.151-2.652,3.106-10.306,3.106v-5.834h-44.783v2.425c0,0.303-1.288,4.243-10.078,4.243V12.749l10.987,4.395h43.116
				L220.798,11.839z M172.757,74.732h44.783V18.356h-44.783V74.732z M173.969,58.289c3.789-0.303,12.579-1.515,21.293-2.804
				l0.151,0.91c-3.258,2.121-8.184,5.229-15.306,9.168c-0.379,0.985-1.062,1.592-1.895,1.819L173.969,58.289z M216.631,31.541
				c-0.53,0.909-1.592,1.061-3.486,1.061h-10.76c0.076,4.471,0.303,8.79,0.909,12.654c0.985-2.728,1.818-5.759,2.501-8.865
				l10.608,3.485c-0.379,0.909-1.061,1.439-3.106,1.364c-1.971,5.683-4.471,10.381-7.274,14.397c1.212,3.03,3.258,5.531,3.713,5.531
				c0.833,0,3.409-6.138,4.243-8.335l0.53,0.151l-1.137,10.306c1.288,2.425,1.971,4.167,1.971,5.455
				c0,2.273-2.425,3.183-4.017,3.183c-6.214,0-10.153-7.729-11.139-9.623c-4.547,4.243-9.851,7.198-15.837,9.396l-0.683-0.834
				c5.305-3.106,10.154-7.956,14.095-14.17c-1.592-4.698-2.576-10.002-3.106-15.686c-0.379,0.303-0.985,0.606-1.743,0.758v9.169
				c0,0.151-1.743,2.197-6.744,2.197v-2.955h-3.106v2.349c0,0.076-0.834,2.197-6.517,2.197V36.163l6.896,2.88h2.197l2.349-3.107
				l6.669,4.471c-0.228-2.5-0.379-5.152-0.455-7.805h-19.854l-0.303-1.212h20.08c-0.075-3.334-0.151-6.82-0.151-10.382l11.215,0.985
				c-0.076,0.985-0.682,1.439-2.728,1.743c-0.076,2.576-0.076,5.152-0.076,7.653h2.652l2.955-3.789
				c-0.303-0.228-0.606-0.53-0.834-0.834c0.152-1.894-0.454-4.092-1.591-5.304l0.53-0.455c6.441,0.151,8.639,2.046,8.639,3.865
				c0,1.439-1.288,2.804-2.88,3.334L216.631,31.541z M183.062,48.969h3.106v-8.714h-3.106V48.969z"/>
			<path fill="#FFFFFF" d="M297.861,15.931l8.942,8.487c-0.606,0.682-1.364,0.834-2.956,0.985
				c-2.576,2.121-6.668,4.925-10.153,6.592l2.197,1.592c-0.606,0.833-1.667,1.061-3.713,1.061h-15.23
				c1.363,6.365,3.788,11.518,6.819,15.686c3.789-4.168,7.729-9.472,9.699-12.882l10.229,7.123c-0.303,0.53-0.833,0.909-1.742,0.909
				c-0.379,0-0.758-0.076-1.213-0.151c-4.092,2.197-9.851,4.85-15.534,6.896c5.607,6.819,13.109,10.987,21.142,14.17l-0.228,0.833
				c-4.471,0.683-8.032,3.94-9.851,9.018c-11.442-8.411-17.731-18.792-20.384-40.615c-2.728,2.425-6.138,4.622-10.002,6.517
				c9.699,6.517,13.261,16.671,13.261,24.93c0,14.17-8.26,15.458-15.307,15.458c-0.151-7.577-3.106-8.714-8.335-9.699V72.08h9.32
				c1.061,0,1.894-0.151,2.272-0.757c0.758-1.213,1.364-3.259,1.592-5.76c-9.32,4.547-21.293,7.881-33.266,8.941l-0.228-0.984
				c12.958-3.562,25.537-11.14,32.659-19.55l-0.151-0.91c-8.411,3.94-19.929,7.427-30.386,8.79l-0.303-0.833
				c10.078-3.638,20.914-10.685,26.899-17.201l-0.379-0.606c-7.35,3.259-16.216,5.684-25.536,7.199l-0.379-1.062
				c9.927-3.562,18.793-9.244,24.324-14.7h-15.382l-0.304-1.212h34.856l5.229-6.744l5.986,4.319
				c0.455-2.501,0.909-5.986,1.137-8.639h-45.162c0.076,0.758,0.151,1.516,0.151,2.197c0,5.38-2.804,9.093-7.274,9.093
				c-2.955,0-5.683-1.591-5.683-4.85c0-2.425,1.742-4.318,4.016-5.304c2.729-0.985,6.138-3.864,6.365-7.047h0.909
				c0.606,1.667,1.062,3.258,1.364,4.697h17.125V10.476l14.246,1.363c-0.151,0.985-0.758,1.592-2.88,1.895v7.426h16.064
				L297.861,15.931z"/>
		</g>
	</g>
	<g>
		<g>
			<path fill="#FFFFFF" d="M138.962,103.964l11.063,8.26c-0.53,0.682-1.592,1.439-3.334,1.818v49.33
				c0,0.151-2.956,3.182-11.367,3.182v-5.38H106.53v1.971c0,0.454-1.667,4.471-11.139,4.471v-62.438l11.82,4.697h6.365
				c0.455-4.395,0.682-10.457,0.682-14.549l16.52,2.956c-0.228,0.984-0.834,1.515-2.88,1.515
				c-2.955,2.956-7.577,6.972-12.275,10.078h18.868L138.962,103.964z M135.324,111.087H106.53v15.079h28.794V111.087z
				 M135.324,127.379H106.53v15.533h28.794V127.379z M106.53,159.962h28.794v-15.837H106.53V159.962z"/>
			<path fill="#FFFFFF" d="M224.89,141.396l0.076,11.519c4.622,1.439,6.062,2.121,6.062,4.471c0,5.076-3.259,8.184-18.565,8.184
				h-28.037c-12.351,0-17.049-2.955-17.049-14.095v-28.945L179.804,127h27.81v-22.809h-43.191l-0.379-1.213h42.737l4.318-5.683
				l11.215,8.032c-0.53,0.682-1.591,1.439-3.334,1.818v25.233c0,0.151-3.258,2.5-11.366,2.5v-6.668h-28.87v23.718
				c0,2.122,1.212,2.804,5.229,2.804h27.431c3.713,0,5.607-0.228,7.198-1.895c1.516-1.895,3.713-6.44,5.684-11.442H224.89z"/>
			<path fill="#FFFFFF" d="M273.688,112.072c-0.53,0.833-1.667,1.061-3.637,1.061h-11.442v42.282
				c0,6.517-1.439,11.366-11.821,12.275c-0.151-6.592-0.682-9.093-6.592-10.153v-0.985h7.35c0.606,0,0.834-0.303,0.834-1.061
				v-12.807c-1.895,2.88-4.622,6.896-8.032,11.367c-0.151,0.984-0.909,2.046-1.895,2.425l-4.168-11.291
				c2.35-0.682,8.108-2.728,14.095-5.077v-26.976h-13.109l-0.303-1.213h13.412V95.629l13.185,1.137
				c-0.076,0.984-0.455,1.591-2.955,1.97v13.185h0.985l4.925-6.364l0.683,0.454c0.227-2.955-0.834-6.517-2.804-8.486l0.53-0.455
				c8.411,0.834,11.215,3.713,11.215,6.289c0,2.425-2.425,4.623-5.077,4.623c-0.455,0-0.834,0-1.288-0.152L273.688,112.072z
				 M236.71,118.437c7.957,3.031,10.608,6.972,10.608,10.154c0,3.106-2.576,5.456-5.304,5.456c-1.439,0-2.955-0.683-4.092-2.35
				c0.228-1.137,0.303-2.349,0.303-3.562c0-3.409-0.758-6.971-2.197-9.32L236.71,118.437z M259.442,138.366
				c10.306,1.97,13.716,6.062,13.716,9.472c0,3.031-2.652,5.531-5.531,5.531c-1.44,0-2.956-0.606-4.244-2.121
				c-0.227-4.244-1.97-9.396-4.471-12.503L259.442,138.366z M308.394,113.663c-0.606,0.834-1.743,1.061-3.713,1.061h-2.197
				c-1.667,11.973-4.547,22.657-10.154,31.447c4.396,4.773,9.775,8.562,16.367,11.518l-0.227,0.758
				c-5.229,1.137-8.185,4.168-9.548,9.169c-5.153-3.713-9.093-8.562-12.124-14.321c-5.607,5.986-13.033,10.836-23.036,14.321
				l-0.303-0.834c9.32-5.607,15.609-12.957,19.777-21.823c-2.122-6.365-3.562-13.563-4.547-21.368
				c-2.728,4.395-5.91,8.107-9.548,11.29l-0.909-0.454c1.364-2.88,2.576-6.517,3.638-10.685c-0.228,0-0.53,0-0.909-0.076
				c-2.273,2.652-7.123,7.427-11.14,10.533l-0.682-0.303c1.137-5.002,2.349-12.807,2.652-16.368l10.532,4.623
				c1.971-7.957,3.334-17.429,3.865-26.446l14.852,3.031c-0.228,0.985-0.909,1.667-2.955,1.818
				c-1.213,4.698-2.652,9.018-4.243,12.958h9.851l5.229-7.199L308.394,113.663z M283.312,114.724
				c-0.984,2.35-2.121,4.623-3.334,6.669c1.44,6.138,3.486,11.518,6.138,16.216c2.273-6.896,3.638-14.549,4.396-22.885H283.312z"/>
		</g>
	</g>
</g>
<g id="secondary">
</g>
</svg>
