<?xml version="1.0" encoding="utf-8"?>
<!-- Generator: Adobe Illustrator 17.0.0, SVG Export Plug-In . SVG Version: 6.00 Build 0)  -->
<!DOCTYPE svg PUBLIC "-//W3C//DTD SVG 1.1//EN" "http://www.w3.org/Graphics/SVG/1.1/DTD/svg11.dtd">
<svg version="1.1" xmlns="http://www.w3.org/2000/svg" xmlns:xlink="http://www.w3.org/1999/xlink" x="0px" y="0px" width="320px"
	 height="320px" viewBox="0 0 320 320" enable-background="new 0 0 320 320" xml:space="preserve">
<g id="backup" display="none">
	
		<text transform="matrix(1 0 0 1 58.6069 129.2632)" display="inline" fill="#FFFFFF" font-family="'KozMinPro-Heavy-83pv-RKSJ-H'" font-size="86.7197" glyph-orientation-vertical="0" writing-mode="tb">黨版</text>
	
		<text transform="matrix(1 0 0 1 133.7603 290.998)" display="inline" fill="#FFFFFF" font-family="'KozMinPro-Heavy-83pv-RKSJ-H'" font-size="86.7197">襲來</text>
	
		<text transform="matrix(1 0 0 1 16.5444 119.4175)" display="inline" fill="#FFFFFF" font-family="'KozMinPro-Heavy-83pv-RKSJ-H'" font-size="40.3904">民進</text>
	
		<text transform="matrix(1 0 0 1 99.2095 290.7842)" display="inline" fill="#FFFFFF" font-family="'KozMinPro-Heavy-83pv-RKSJ-H'" font-size="98.7678">、</text>
</g>
<g id="backgrounds">
	<rect width="320" height="320"/>
</g>
<g id="stripes">
</g>
<g id="main">
	<g>
		<path fill="#FFFFFF" d="M34.499,195.601c0.521,1.994,0.694,3.902,0.694,5.636c0,8.586-5.723,12.835-10.753,12.835
			c-3.469,0-6.851-1.908-6.851-5.377c0-2.861,2.255-4.943,4.943-5.897c4.336-0.608,9.713-3.296,10.84-7.285L34.499,195.601z
			 M89.741,138.017l9.973,9.54c-0.694,0.78-1.474,1.041-3.295,1.127c-3.295,2.515-8.845,6.331-12.662,8.412l-0.694-0.52
			c0.521-2.862,1.214-7.892,1.561-11.361h-51.6c0.347,7.458-4.249,11.361-8.932,11.361c-3.035,0-5.984-1.648-5.984-4.77
			c0-2.602,2.081-4.51,4.51-5.377c3.555-0.867,7.632-3.815,7.892-7.718h1.127c0.694,1.822,1.041,3.555,1.301,5.117h7.024
			c-0.607-0.26-1.214-0.694-1.821-1.301c-0.607-3.122-2.342-6.764-4.423-8.932l0.521-0.521c10.233-0.087,13.702,3.035,13.702,6.071
			c0,1.908-1.474,3.815-3.469,4.683h7.545V131.34l15.35,1.474c-0.173,1.214-0.954,1.821-3.469,2.168v8.845h4.423
			c2.081-3.382,4.51-8.152,5.897-11.708l12.054,6.071c-0.26,0.607-0.867,0.867-1.734,0.867c-0.521,0-1.041,0-1.648-0.173
			c-3.035,1.648-7.632,3.469-11.794,4.943h12.748L89.741,138.017z M18.196,194.04h33.908v-5.81H27.041l-0.433-1.388h25.496v-5.637
			H40.57c0,0-1.821,3.729-11.274,3.729v-22.461l12.054,4.51h34.169l3.902-5.03c-4.336,2.168-9.279,2.168-11.274,2.168v-2.689H48.202
			c-0.433,1.127-4.51,3.642-9.453,3.642h-1.561v-18.558l11.534,4.423h18.732l3.815-5.03l11.014,7.285
			c-0.347,0.521-1.127,1.041-2.341,1.301v7.024c0,0.087-0.087,0.173-0.26,0.26l11.274,7.544c-0.433,0.521-1.3,1.214-2.688,1.475
			v9.626c-0.087,0.347-1.822,1.214-3.989,1.995l7.285,4.597c-0.433,0.694-1.041,1.04-2.081,1.127l9.626,6.071
			c-0.607,1.04-1.734,1.214-3.989,1.214H18.63L18.196,194.04z M40.57,179.817h11.534V168.37H40.57V179.817z M41.871,169.931
			c6.938,0.78,9.279,3.209,9.279,5.377c0,2.081-2.168,3.902-4.422,3.902c-1.214,0-2.515-0.433-3.469-1.734
			c0.26-2.428-0.607-5.377-2.081-7.024L41.871,169.931z M43.172,197.249c8.412,3.382,11.274,7.198,11.274,10.32
			c0,3.296-3.296,5.637-6.591,5.637c-2.168,0-4.423-1.041-5.637-3.643c0.607-1.994,0.954-4.249,0.954-6.503
			c0-1.995-0.26-3.989-0.781-5.464L43.172,197.249z M48.202,160.045h19.946v-7.718H48.202V160.045z M57.567,196.989
			c12.662,1.3,16.824,6.071,16.824,10.146c0,3.296-2.862,6.157-6.157,6.157c-1.474,0-3.122-0.521-4.51-1.994
			c-0.694-4.856-3.296-10.494-6.677-13.788L57.567,196.989z M76.299,168.37H63.898v11.447h1.475c1.04-3.035,2.341-7.458,3.035-10.58
			l7.892,2.775V168.37z M63.898,181.205v5.637H77.08l3.035-3.469c-0.607,0.087-2.515,0.087-3.816,0.087v-2.255H63.898z
			 M63.898,188.229v5.81h20.207l5.116-5.897c-0.52,0.087-1.041,0.087-1.647,0.087H63.898z M76.299,179.817v-5.81
			c-0.26,0-0.52-0.087-0.867-0.087c-1.994,1.821-5.203,4.076-7.891,5.897H76.299z M75.086,196.295
			c18.125-0.608,24.108,5.81,24.108,11.013c0,3.382-2.601,6.244-5.984,6.244c-1.128,0-2.428-0.346-3.643-1.041
			c-3.382-5.55-9.192-11.967-14.83-15.522L75.086,196.295z"/>
		<path fill="#FFFFFF" d="M88.094,242.342l10.233,8.846c-0.52,0.954-1.388,1.3-3.382,1.561c-2.081,9.365-5.377,18.298-10.84,26.103
			c4.683,4.77,10.32,8.325,16.39,11.274l-0.26,0.954c-4.856,0.694-8.846,4.077-10.927,9.54c-4.769-4.163-8.585-8.672-11.534-14.136
			c-5.203,5.204-11.707,9.627-19.946,13.095l-0.434-1.04c7.458-5.203,13.009-11.967,16.998-19.686
			c-2.688-7.544-4.336-16.824-5.29-28.965h-1.647c0,15.957-0.347,37.204-20.467,50.733l-0.78-0.607
			c9.366-14.136,10.147-32.001,10.147-48.824v-4.944c-0.694,0.173-1.561,0.26-2.602,0.26H32.678v14.742h4.076l4.249-5.55
			l11.361,7.979c-0.521,0.694-1.734,1.474-3.469,1.821v26.363c-0.087,0.954-5.29,3.729-9.366,3.729h-1.908v-32.955h-4.944
			c-0.433,15.09-4.076,28.011-15.003,36.857l-0.867-0.607c4.249-11.014,5.03-23.763,5.03-38.505v-39.805l14.222,1.127v-3.035
			l14.136,1.301c-0.087,1.127-0.867,1.648-3.035,1.994v21.594l3.295-5.81l5.898,6.071v-22.634l12.748,4.422h14.83l5.724-7.457
			l10.32,7.632c-0.607,0.954-1.908,1.213-4.163,1.213H67.454v21.421h14.742L88.094,242.342z M36.061,222.396
			c-0.347,0.694-1.301,1.127-3.382,1.388v21.334h3.382V222.396z M70.489,249.887c1.388,8.586,3.989,15.437,7.372,21.074
			c2.515-6.677,4.163-13.788,5.203-21.074H70.489z"/>
	</g>
	<g>
		<path fill="#FFFFFF" d="M213.978,280.071c-0.347,0.608-0.868,0.954-1.908,0.954c-0.347,0-0.867-0.086-1.388-0.173
			c-3.729,0.954-8.759,1.561-13.702,1.908v0.086c6.938,2.342,14.83,3.469,22.374,4.077v1.04c-4.769,1.388-7.718,5.464-8.932,11.361
			c-14.136-4.596-24.542-11.361-30.18-25.236c-3.295,1.994-7.111,3.642-11.447,5.03v7.892c5.723-0.173,11.967-0.346,18.298-0.607
			v1.127c-7.025,2.602-17.518,5.723-33.648,9.886c-0.607,1.127-1.561,1.821-2.515,1.995l-5.55-11.968
			c2.688,0,6.591-0.086,11.361-0.173v-5.203c-6.504,1.213-13.529,1.994-20.813,2.428l-0.347-1.3
			c12.054-2.342,22.548-6.158,29.485-10.754h-28.098l-0.433-1.388h34.082v-5.723c-1.648,0.954-4.163,1.648-7.718,2.081
			c0-5.723-0.781-7.284-4.51-8.065v-1.041h4.423c0.52,0,0.52-0.26,0.52-2.688h-11.186v8.586c0,0.694-3.296,2.948-8.759,2.948h-1.908
			v-29.745l11.794,4.423h9.192l3.989-5.204h-29.832l-0.433-1.388h12.748v-0.086c-1.561-0.174-3.035-0.954-3.902-2.775
			c0.26-1.041,0.433-2.168,0.433-3.296s-0.174-2.255-0.521-3.122l0.433-0.173h-6.331l-0.433-1.388h13.268v-7.632l13.963,1.3
			c-0.173,0.954-0.781,1.475-2.688,1.735v4.596h1.994l4.683-5.897l8.759,6.07c-0.608,1.041-1.821,1.214-3.989,1.214h-11.014
			l10.321,2.515c-0.26,1.041-1.127,1.475-3.296,1.475c-2.167,1.561-5.463,3.729-8.325,5.463h5.29l4.336-4.856l8.325,5.117
			c-0.607,0.954-1.821,1.127-3.902,1.127h-9.453l10.84,7.632c-0.52,0.694-1.734,1.475-3.555,1.821v11.621
			c0,1.994-0.087,3.729-0.954,5.204l8.498,0.78c-0.694-1.388-0.867-3.469-0.867-6.59v-40.153l14.049,1.127
			c-0.173,1.041-0.781,1.648-2.948,1.995v3.035h10.493l4.857-5.898l9.365,6.071c-0.607,1.04-1.908,1.214-3.989,1.214h-20.726v5.376
			h11.1l3.642-4.769l10.494,6.938c-0.347,0.521-1.127,1.04-2.342,1.3v3.469c-0.087,0.608-3.556,2.168-6.765,2.689l6.071,3.729
			c-0.608,0.953-1.821,1.127-3.816,1.127h-18.385v4.336h11.274l3.642-4.163l7.198,4.423c-0.607,0.954-1.821,1.127-3.815,1.127
			h-18.298v4.423h11.274l3.642-4.163l7.285,4.423c-0.608,0.954-1.821,1.127-3.816,1.127h-18.385v1.214
			c0,2.428,0.173,2.428,3.035,2.428h11.794c2.861,0,4.076,0,6.504-2.602h0.52l0.434,2.168c3.468,1.127,4.249,1.475,4.249,2.862
			c0,2.861-1.388,4.163-7.978,4.596l7.024,4.683c-0.607,1.04-1.734,1.213-4.076,1.213h-9.886L213.978,280.071z M160.037,235.236
			c0.347-2.688,0.78-6.59,0.954-9.453h-14.569c6.417,1.648,8.585,3.902,8.585,5.81c0,1.821-1.995,3.296-4.336,3.556v0.086H160.037z
			 M163.332,243.215h-11.186v4.856h11.186V243.215z M152.145,254.228h11.186v-4.769h-11.186V254.228z M182.759,272.44l-1.041,0.694
			c2.775,3.296,6.504,5.898,10.754,7.806c3.295-2.429,6.938-5.898,9.019-8.499H182.759z M191.778,231.247
			c-1.041,0.694-5.29,1.821-9.019,1.821l9.279,3.47h11.707v-5.291H191.778z M205.306,266.629h-11.621
			c-4.596,0-7.544-0.173-9.453-0.78c-0.346,0.086-0.694,0.086-1.04,0.173v5.03h18.385L205.306,266.629z M203.224,242.955
			l2.775-3.209h-2.255v-1.821h-11.794v5.03H203.224z"/>
		<path fill="#FFFFFF" d="M269.651,255.703c0.954,2.255,2.168,4.336,3.556,6.33c3.035-5.984,5.03-15.436,5.463-25.062l15.004,3.382
			c-0.347,1.127-1.041,1.821-3.296,1.994c-1.127,3.209-2.429,6.158-3.902,8.759c10.753,1.735,14.395,6.071,14.395,9.8
			c0,3.469-3.034,6.331-6.417,6.331c-1.648,0-3.296-0.608-4.769-2.168c-0.521-3.902-2.256-8.325-4.51-11.707
			c-2.948,4.509-6.504,7.978-10.667,10.407c7.371,9.453,18.732,15.87,30.267,18.645l-0.174,0.954
			c-4.596,1.214-8.151,5.203-9.626,11.187c-13.182-6.765-20.813-17.692-25.323-34.603v34.949c0,1.301-5.55,4.423-10.32,4.423h-2.429
			v-23.588c-8.672,7.892-20.553,15.003-33.735,19.079l-0.52-1.041c11.1-6.071,21.42-16.477,28.358-28.184
			c-0.781,0.346-1.734,0.521-2.688,0.521c-1.735,0-3.643-0.781-4.944-2.689v-0.694c0-2.428-0.433-5.117-1.127-7.458
			c-4.163,5.898-9.192,10.233-15.003,13.356l-0.954-0.694c5.29-6.504,9.626-18.298,11.274-30.873l14.569,4.077
			c-0.346,1.127-1.127,1.734-3.469,1.821c-1.3,3.382-2.775,6.504-4.423,9.279c6.418,1.821,9.366,4.422,10.146,6.851
			c0.954-1.994,1.822-3.989,2.515-6.071v-18.905h-33.214l-0.433-1.475h33.648v-15.263l16.044,1.475
			c-0.173,1.3-0.781,1.994-3.296,2.342v11.447h15.871l6.677-8.411l12.315,8.586c-0.608,1.04-1.822,1.3-4.337,1.3h-30.526V255.703z"
			/>
	</g>
	<g>
		<path fill="#FFFFFF" d="M54.752,112.229l-0.646,5.574c1.292,1.332,1.777,2.221,1.777,2.988s-0.767,2.464-3.393,2.464
			c-1.454,0-3.11-0.525-4.443-1.09c-7.795-3.716-11.026-9.653-12.318-16.923H28.5v10.662c3.231-0.162,6.906-0.404,10.622-0.646
			v0.444c-3.312,1.656-8.36,3.675-16.559,6.502c-0.282,0.525-0.767,0.848-1.252,0.97l-3.15-6.786c1.09-0.04,2.625-0.081,4.483-0.161
			V85.814l6.422,2.343h15.712l2.14-2.827l5.775,4.039c-0.242,0.323-0.727,0.686-1.575,0.848v7.391c0,0.04-1.575,1.454-5.937,1.454
			v-2.1h-2.908c-0.081,0.485-0.363,0.727-1.495,0.888c0.041,2.383,0.202,4.645,0.606,6.745h5.897l3.069-3.918l5.614,3.998
			c-0.323,0.444-0.848,0.566-1.979,0.566h-12.48c1.05,5.129,3.554,9.249,8.926,11.632c0.323,0.121,0.606,0.202,0.808,0.202
			c0.282,0,0.485-0.121,0.727-0.444c0.646-0.889,1.858-2.908,2.585-4.484L54.752,112.229z M45.18,88.803H28.5v7.512h16.68V88.803z
			 M28.5,104.595h7.108c-0.363-2.424-0.565-4.968-0.646-7.634H28.5V104.595z"/>
		<path fill="#FFFFFF" d="M69.98,103.666c-0.363,0.404-0.969,0.727-2.14,0.929v9.653c2.787,2.747,5.452,3.11,13.005,3.11
			c4.443,0,10.461-0.041,15.509-0.162v0.444c-2.1,0.525-3.312,2.221-3.554,4.766H80.886c-7.795,0-10.865-1.292-13.49-7.553
			c-1.656,2.464-4.16,5.614-5.816,7.432c0,0.565-0.283,0.848-0.687,1.01l-2.867-6.058c1.171-0.363,2.746-0.929,4.402-1.535v-12.238
			h-4.362l-0.161-0.727h3.877l2.625-3.514L69.98,103.666z M59.035,86.137c6.462,0.808,8.603,3.272,8.603,5.331
			c0,1.818-1.575,3.312-3.312,3.312c-0.848,0-1.737-0.323-2.504-1.171c-0.162-2.545-1.292-5.493-3.029-7.27L59.035,86.137z
			 M71.273,98.94c-1.171,0.97-2.423,1.818-3.716,2.545l-0.404-0.283c2.625-3.635,5.331-10.057,6.745-16.398l7.552,2.665
			c-0.202,0.485-0.646,0.808-1.736,0.767c-0.929,1.818-1.899,3.473-2.989,4.968l0.767,0.283h3.595
			c0.323-2.666,0.566-6.059,0.646-8.401l8.482,1.656c-0.122,0.525-0.485,0.808-1.575,0.808c-1.454,1.696-3.676,3.998-5.937,5.937
			h4.483l2.747-3.514l5.008,3.595c-0.283,0.444-0.888,0.566-1.939,0.566h-6.947v5.654h0.04l2.585-3.352l4.806,3.433
			c-0.323,0.444-0.888,0.566-1.939,0.566h-5.493v5.735h0.04l2.585-3.353l4.806,3.433c-0.323,0.444-0.888,0.565-1.939,0.565h-5.493
			v5.816h1.898l2.787-3.635l5.13,3.716c-0.283,0.444-0.888,0.565-1.939,0.565H76.927v1.575c0,0.404-1.696,1.616-4.604,1.616h-1.05
			V98.94z M80.522,94.134h-3.595v5.654h3.595V94.134z M80.522,106.17v-5.735h-3.595v5.735H80.522z M80.522,112.632v-5.816h-3.595
			v5.816H80.522z"/>
	</g>
	<g>
		<path fill="#FFFFFF" d="M102.667,276.76c14.519,1.876,24.889,8.197,24.889,15.803c0,4.74-3.655,7.506-7.408,7.506
			c-2.37,0-4.74-0.988-6.42-3.26c-0.691-6.124-4.247-14.914-11.555-19.16L102.667,276.76z"/>
	</g>
</g>
<g id="secondary">
</g>
</svg>
