<?xml version="1.0" encoding="utf-8"?>
<!-- Generator: Adobe Illustrator 17.0.0, SVG Export Plug-In . SVG Version: 6.00 Build 0)  -->
<!DOCTYPE svg PUBLIC "-//W3C//DTD SVG 1.1//EN" "http://www.w3.org/Graphics/SVG/1.1/DTD/svg11.dtd">
<svg version="1.1" xmlns="http://www.w3.org/2000/svg" xmlns:xlink="http://www.w3.org/1999/xlink" x="0px" y="0px" width="320px"
	 height="88px" viewBox="0 0 320 88" enable-background="new 0 0 320 88" xml:space="preserve">
<g id="backup" display="none">
	
		<text transform="matrix(1 0 0 1 12.538 33.6095)" display="inline" fill="#FFFFFF" font-family="'BodoniSvtyTwoITCTT-Bold'" font-size="32.6174">318</text>
	<g display="inline">
		
			<text transform="matrix(1 0 0 1 11.334 73.9967)" fill="#FFFFFF" font-family="'KozMinPr6N-Heavy-83pv-RKSJ-H'" font-size="37.6033">衝擊</text>
	</g>
	
		<text transform="matrix(1 0 0 1 121.7764 31.6095)" display="inline" fill="#FFFFFF" font-family="'KozMinPr6N-Heavy-83pv-RKSJ-H'" font-size="25.1498">新國會</text>
	<g display="inline">
		
			<text transform="matrix(1 0 0 1 120.5723 73.9967)" fill="#FFFFFF" font-family="'KozMinPr6N-Heavy-83pv-RKSJ-H'" font-size="37.6033">降臨</text>
	</g>
	
		<text transform="matrix(1 0 0 1 234.5674 31.6095)" display="inline" fill="#FFFFFF" font-family="'KozMinPr6N-Heavy-83pv-RKSJ-H'" font-size="25.1498">黨版、</text>
	<g display="inline">
		
			<text transform="matrix(1 0 0 1 233.3633 73.9967)" fill="#FFFFFF" font-family="'KozMinPr6N-Heavy-83pv-RKSJ-H'" font-size="37.6033">襲來</text>
	</g>
</g>
<g id="backgrounds">
</g>
<g id="stripes">
</g>
<g id="main">
	<g>
		<path fill="#FFFFFF" d="M29.141,27.249c0,1.936-0.87,3.55-2.609,4.844c-1.74,1.294-3.926,1.94-6.557,1.94
			c-1.826,0-3.257-0.348-4.289-1.043c-1.033-0.696-1.549-1.652-1.549-2.871c0-0.783,0.244-1.424,0.733-1.924
			c0.489-0.5,1.125-0.75,1.908-0.75c1.479,0,2.218,0.674,2.218,2.022c0,1.044-0.707,1.773-2.12,2.186
			c-0.5,0.152-0.75,0.326-0.75,0.522c0,0.239,0.31,0.489,0.93,0.75c0.62,0.261,1.233,0.392,1.843,0.392
			c1.587,0,2.826-0.533,3.719-1.598c0.891-1.065,1.337-2.555,1.337-4.469c0-1.848-0.533-3.164-1.599-3.947
			c-0.717-0.522-1.565-0.783-2.544-0.783h-0.456c-0.152,0-0.403,0-0.751,0c-0.261,0-0.391-0.087-0.391-0.26
			c0-0.152,0.049-0.25,0.146-0.293c0.098-0.043,0.473-0.119,1.125-0.228c0.892-0.151,1.636-0.677,2.234-1.576
			c0.598-0.899,0.897-1.935,0.897-3.104c0-1.191-0.359-2.162-1.077-2.909c-0.717-0.748-1.652-1.122-2.805-1.122
			c-0.739,0-1.392,0.163-1.957,0.489s-0.848,0.707-0.848,1.142c0,0.196,0.143,0.315,0.429,0.359
			c1.671,0.305,2.507,1.022,2.507,2.153c0,0.565-0.176,1.027-0.526,1.386c-0.351,0.358-0.811,0.538-1.38,0.538
			c-0.768,0-1.369-0.229-1.808-0.685s-0.657-1.076-0.657-1.859c0-1.391,0.576-2.517,1.729-3.375s2.653-1.289,4.501-1.289
			c2.131,0,3.85,0.452,5.154,1.354c1.305,0.903,1.957,2.083,1.957,3.539c0,1.153-0.495,2.186-1.484,3.099s-2.3,1.544-3.931,1.892
			l0.033,0.163c1.565,0.022,2.979,0.414,4.24,1.174C28.325,24.085,29.141,25.466,29.141,27.249z"/>
		<path fill="#FFFFFF" d="M43.417,33.381c0,0.174-0.283,0.261-0.849,0.261h-0.783c-0.305-0.022-1.5-0.022-3.588,0H34.12
			c-0.261,0-0.565,0-0.913,0c-0.305,0-0.479,0-0.521,0c-0.544,0-0.815-0.098-0.815-0.292c0-0.13,0.054-0.206,0.161-0.228
			s0.527-0.033,1.26-0.033c0.948-0.021,1.529-0.141,1.745-0.357c0.129-0.195,0.193-0.487,0.193-0.878V19.763
			c0-2.579-0.021-3.976-0.064-4.193c-0.065-0.347-0.366-0.52-0.905-0.52h-1.647c-0.561,0.021-0.84-0.065-0.84-0.261
			c0-0.13,0.356-0.228,1.072-0.293c1.841-0.152,3.411-0.608,4.711-1.37c0.064-0.043,0.454-0.293,1.17-0.75l1.234-0.75l0.13,0.489
			c0,0.065,0,0.24,0,0.522v15.82c0,1.979,0,3.099,0,3.359c0.021,0.87,0.454,1.294,1.297,1.272
			C42.739,33.044,43.417,33.142,43.417,33.381z"/>
		<path fill="#FFFFFF" d="M61.611,27.804c0,1.565-0.632,2.925-1.893,4.077c-1.587,1.457-3.62,2.185-6.1,2.185
			c-2.392,0-4.37-0.565-5.936-1.696c-1.566-1.13-2.349-2.566-2.349-4.306c0-2.044,0.804-3.555,2.413-4.534
			c0.762-0.457,1.838-0.87,3.229-1.24l-0.032-0.163c-3.088-0.783-4.632-2.392-4.632-4.827c0-1.587,0.641-2.892,1.924-3.914
			s2.925-1.533,4.926-1.533c2.152,0,3.881,0.5,5.187,1.5c1.305,1,1.957,2.316,1.957,3.947c0,2.218-1.403,3.838-4.208,4.86v0.13
			C59.773,23.096,61.611,24.933,61.611,27.804z M56.294,28.782c0-2.305-0.212-3.925-0.636-4.86
			c-0.424-0.935-1.169-1.402-2.234-1.402c-1,0-1.724,0.435-2.169,1.305c-0.446,0.87-0.669,2.283-0.669,4.24
			c0,1.914,0.256,3.3,0.767,4.159c0.511,0.859,1.332,1.289,2.463,1.289c0.892,0,1.527-0.364,1.908-1.093
			C56.104,31.69,56.294,30.478,56.294,28.782z M55.446,17.888c0-2.131-0.239-3.674-0.718-4.631c-0.283-0.565-0.75-0.848-1.402-0.848
			c-1.436,0-2.153,1.609-2.153,4.827c0,3.197,0.794,4.795,2.382,4.795c0.695,0,1.185-0.304,1.468-0.914
			C55.305,20.508,55.446,19.432,55.446,17.888z"/>
	</g>
	<g>
		<g>
			<path fill="#FFFFFF" d="M44.082,52.679l4.135,3.045c-0.263,0.414-0.826,0.526-1.767,0.526h-1.429v15.34
				c0,3.233-0.789,5.564-6.091,5.94c0-3.797-1.053-4.587-3.872-5v-0.451h4.512c0.338,0,0.451-0.188,0.451-0.564V56.25h-2.52v7.332
				c-0.037,0.188-0.978,0.602-1.992,0.827l3.008,2.256c-0.264,0.451-0.79,0.526-1.73,0.526h-4.135v2.632
				c1.879-0.113,3.91-0.301,5.939-0.451l0.038,0.414c-2.632,1.354-6.542,3.045-12.708,5.376c-0.226,0.489-0.639,0.79-1.09,0.865
				L22.049,70.5c1.354-0.038,3.572-0.188,6.204-0.338v-2.97h-5.264l-0.188-0.602h5.452v-3.459H27.2v0.714
				c0,0.075-0.489,1.391-3.798,1.391V53.957h-0.15c-0.714,1.166-1.578,2.481-2.557,3.835l1.504,0.564
				c-0.15,0.338-0.488,0.602-1.203,0.714v17.145c-0.074,0.338-2.067,1.316-3.984,1.316h-0.902V63.206
				c-1.129,1.128-2.294,2.181-3.572,3.121l-0.301-0.338c2.782-4.587,5.227-11.43,6.241-15.641l4.925,2.331v-0.677l4.023,1.617h0.827
				v-3.083h-5.827l-0.188-0.602h6.016v-2.481c-2.067,0.188-4.249,0.338-6.241,0.414l-0.113-0.489
				c4.174-1.354,9.4-3.835,11.994-5.564l4.662,4.324h2.707l2.293-3.008l4.211,3.083c-0.263,0.414-0.864,0.526-1.805,0.526h-8.309
				l-0.037-0.15c-0.414-0.038-0.902-0.15-1.467-0.338c-1.016,0.226-2.219,0.451-3.496,0.639v3.045h0.375l2.256-2.82l4.137,2.895
				c-0.264,0.451-0.79,0.526-1.73,0.526h-5.037v3.083h0.714l1.429-1.88l4.023,2.782c-0.188,0.263-0.678,0.564-1.316,0.677v0.451
				h4.324L44.082,52.679z M12.35,53.807c2.33-3.497,4.512-8.723,5.414-11.994l5.827,3.158c-0.188,0.376-0.526,0.639-1.466,0.526
				c-2.182,2.782-5.603,6.316-9.475,8.723L12.35,53.807z M28.253,54.22H27.2v3.797h1.053V54.22z M27.2,62.529h1.053v-3.91H27.2
				V62.529z M33.705,54.22h-1.053v3.797h1.053V54.22z M33.705,58.619h-1.053v3.91h1.053V58.619z M32.915,66.59l1.504-2.03h-0.714
				v-1.429h-1.053v3.459H32.915z"/>
			<path fill="#FFFFFF" d="M57.246,54.859v-1.842h-1.428c0,0.188-0.752,1.466-4.174,1.466v-8.911l4.398,1.729h1.203v-1.917h-6.24
				l-0.188-0.602h6.429v-2.933l5.715,0.526c-0.074,0.489-0.375,0.752-1.315,0.865v1.542h1.053l2.03-2.444l3.91,2.519
				c-0.264,0.451-0.789,0.526-1.729,0.526h-5.264v1.917h1.165l1.392-1.842l4.136,2.745c-0.113,0.15-0.414,0.376-0.865,0.451v4.023
				c0,0.113-0.263,0.263-0.714,0.451l2.745,1.805c-0.227,0.451-0.752,0.526-1.692,0.526h-6.166v3.873h1.015v-3.309
				c1.843,0.113,3.686,0.263,5.49,0.414c-0.076,0.489-0.339,0.752-1.316,0.865v2.632c0,0.075-0.789,0.827-4.174,0.827v-0.827h-6.579
				V60.8c0,0.075-0.79,0.827-4.173,0.827v-5.602l5.338,0.414v-0.978h-6.768l-0.188-0.602H57.246z M78.188,69.786l2.444-2.933
				l4.512,3.008c-0.264,0.451-0.752,0.526-1.768,0.526H70.631v1.767c0,3.083-0.939,5.151-6.842,5.489
				c0-3.534-1.692-4.211-5.039-4.587v-0.451h5.979c0.376,0,0.564-0.15,0.564-0.526v-1.692H50.517l-0.188-0.602h14.965v-3.271H53.486
				l-0.188-0.602h11.994v-2.369c-1.467,0.038-2.971,0.075-4.475,0.075c-1.918,0-3.835-0.038-5.64-0.15l-0.075-0.564
				c6.73-0.79,15.076-2.782,19.4-4.549l4.324,4.437c-0.227,0.15-0.527,0.263-0.902,0.263c-0.414,0-0.979-0.15-1.617-0.414
				c-1.691,0.263-3.609,0.451-5.678,0.602v2.669h4.889l2.406-2.782l4.436,2.857c-0.263,0.451-0.789,0.526-1.767,0.526h-9.964v3.271
				H78.188z M57.246,47.904h-1.428v1.993h1.428V47.904z M55.818,52.416h1.428v-1.917h-1.428V52.416z M56.081,59.333h1.165v-2.481
				c-0.188,0.226-0.488,0.376-1.165,0.451V59.333z M63.074,47.904h-1.429v1.993h1.429V47.904z M63.074,52.416v-1.917h-1.429v1.917
				H63.074z M63.751,54.859l0.94-1.128c-0.602,0.075-0.715,0.075-1.617,0.075v-0.79h-1.429v1.842H63.751z M74.429,44.52v0.827
				c0,1.729-0.864,4.925-6.692,6.354l-0.226-0.376c2.218-1.842,2.331-4.211,2.331-5.978v-3.271l5.264,1.842h1.579l1.616-2.105
				l4.023,2.933c-0.226,0.263-0.677,0.451-1.203,0.526v1.354c0,0.376,0,0.376,0.301,0.376h1.053c0.15,0,0.301,0,0.488-0.188
				c0.339-0.301,0.752-1.203,1.129-1.805h0.301l0.112,1.88c0.978,0.414,1.091,0.677,1.091,1.354c0,1.429-0.979,2.331-3.271,2.331
				h-1.24l2.256,1.842c-0.227,0.376-0.564,0.451-1.392,0.526c-0.902,1.128-2.03,2.068-3.309,2.895
				c2.144,0.526,4.512,0.752,6.956,0.865l0.037,0.451c-1.691,0.564-2.707,2.03-3.083,4.211c-3.12-0.865-5.715-1.955-7.745-3.647
				c-2.181,0.827-4.587,1.391-7.144,1.805l-0.15-0.489c2.105-0.752,4.022-1.767,5.603-3.008c-0.902-1.128-1.692-2.444-2.294-4.061
				h-1.616l-0.188-0.602h7.632l1.316-1.241c-0.827-0.564-0.902-1.654-0.902-3.609V44.52H74.429z M71.571,51.964
				c0.864,1.053,1.955,1.88,3.271,2.557c0.752-0.79,1.392-1.654,1.918-2.557H71.571z"/>
		</g>
	</g>
	<g>
		<path fill="#FFFFFF" d="M143.252,16.974l3.269,2.59c-0.201,0.277-0.578,0.353-1.257,0.353h-1.207v13.151
			c-0.025,0.201-1.082,0.931-2.918,0.931h-0.653V19.917H138.7v0.905c0,4.551-0.453,9.882-6.739,13.151l-0.227-0.251
			c3.168-3.697,3.471-8.399,3.471-13v-0.855c-0.201,0.201-0.554,0.252-1.107,0.252h-3.193c-0.025,0.201-0.176,0.352-0.629,0.427
			v3.068h0.755l1.383-1.986l2.515,2.037c-0.176,0.277-0.527,0.352-1.182,0.352h-3.471v1.559l0.025-0.025
			c3.068,0.553,4.1,1.735,4.1,2.766c0,0.905-0.855,1.685-1.761,1.685c-0.452,0-0.931-0.201-1.333-0.679
			c0.025-1.156-0.377-2.54-1.031-3.445v7.192c0,0.276-1.559,0.956-2.766,0.956h-0.679v-5.18c-1.232,1.282-2.716,2.389-4.325,3.319
			l-0.227-0.327c1.785-2.087,3.144-5.079,3.897-7.82h-3.444l-0.102-0.402h4.2v-3.495h-4.351l-0.101-0.402h7.016
			c0.302-1.609,0.579-3.822,0.704-5.382l4.175,0.931c-0.075,0.302-0.302,0.453-0.956,0.453c-0.805,1.157-2.137,2.766-3.42,3.999
			h1.358l1.408-1.811l2.54,1.811v-7.544l3.621,1.106c1.508-0.981,3.042-2.264,3.872-3.194l3.646,2.892
			c-0.177,0.15-0.428,0.251-0.78,0.251c-0.251,0-0.553-0.05-0.904-0.15c-1.459,0.478-3.747,0.905-5.96,1.156v5.281h2.766
			L143.252,16.974z M122.883,14.233l-0.101-0.402h4.023v-3.771l4.501,0.427c-0.05,0.352-0.276,0.528-0.98,0.628v2.716h0.402
			l1.408-1.986l2.59,2.037c-0.176,0.276-0.527,0.352-1.182,0.352H122.883z M124.693,14.434c2.439,1.132,3.27,2.414,3.27,3.445
			c0,1.056-0.881,1.811-1.761,1.811c-0.528,0-1.056-0.251-1.408-0.855c0.101-0.453,0.126-0.93,0.126-1.433
			c0-1.031-0.176-2.112-0.479-2.867L124.693,14.434z"/>
		<path fill="#FFFFFF" d="M167.948,10.537l3.345,2.464c-0.176,0.226-0.503,0.427-1.006,0.553v19.162c0,0.05-0.881,1.031-3.42,1.031
			v-1.936h-14.861v0.805c0,0.101-0.428,1.408-3.345,1.408V10.838l3.646,1.458h14.309L167.948,10.537z M152.006,31.408h14.861V12.699
			h-14.861V31.408z M152.408,25.952c1.257-0.101,4.174-0.503,7.065-0.931l0.051,0.302c-1.081,0.704-2.716,1.735-5.08,3.043
			c-0.126,0.327-0.352,0.528-0.628,0.604L152.408,25.952z M166.565,17.075c-0.177,0.302-0.528,0.352-1.157,0.352h-3.57
			c0.025,1.484,0.101,2.917,0.302,4.2c0.327-0.905,0.604-1.911,0.829-2.942l3.521,1.157c-0.126,0.302-0.353,0.478-1.031,0.453
			c-0.654,1.886-1.484,3.445-2.414,4.778c0.402,1.006,1.081,1.835,1.232,1.835c0.276,0,1.131-2.037,1.408-2.766l0.176,0.05
			l-0.377,3.42c0.427,0.805,0.653,1.383,0.653,1.811c0,0.755-0.805,1.057-1.333,1.057c-2.062,0-3.369-2.565-3.696-3.194
			c-1.509,1.408-3.269,2.389-5.256,3.118l-0.226-0.277c1.76-1.031,3.369-2.64,4.677-4.702c-0.528-1.559-0.854-3.319-1.031-5.205
			c-0.126,0.101-0.327,0.201-0.578,0.251v3.043c0,0.05-0.578,0.729-2.238,0.729v-0.981h-1.03v0.78c0,0.025-0.277,0.729-2.163,0.729
			v-6.161l2.288,0.955h0.729l0.779-1.031l2.213,1.484c-0.075-0.83-0.126-1.71-0.15-2.59h-6.589l-0.101-0.402h6.664
			c-0.025-1.106-0.05-2.263-0.05-3.445l3.721,0.327c-0.024,0.327-0.226,0.478-0.904,0.579c-0.025,0.854-0.025,1.71-0.025,2.54h0.88
			l0.98-1.257c-0.101-0.075-0.201-0.176-0.276-0.276c0.051-0.629-0.15-1.358-0.528-1.761l0.177-0.15
			c2.137,0.05,2.866,0.679,2.866,1.282c0,0.478-0.428,0.931-0.956,1.106L166.565,17.075z M155.426,22.858h1.03v-2.892h-1.03V22.858z
			"/>
		<path fill="#FFFFFF" d="M172.378,20.042c4.124-2.49,8.122-6.79,9.656-10.184l4.828,1.534c-0.101,0.352-0.402,0.553-1.358,0.654
			c2.641,1.76,6.689,3.269,11.417,3.822v0.428c-1.408,0.528-2.012,2.087-2.238,3.47c-0.276-0.101-0.553-0.201-0.829-0.327
			c-0.151,0.125-0.378,0.251-0.68,0.302v4.325c0,0.05-0.88,0.729-3.244,0.729v-0.729h-10.687c0,0.201-0.353,0.503-0.704,0.704
			l3.093,1.182h5.834l1.282-1.685l3.496,2.414c-0.151,0.176-0.428,0.377-0.881,0.478v5.758c-0.025,0.226-1.76,0.981-3.018,0.981
			h-0.629v-1.484h-6.261v0.302c0,0.076-0.503,1.308-3.571,1.308v-8.952c-0.604,0.176-0.955,0.176-1.836,0.176v-6.312
			c-1.156,0.553-2.363,1.006-3.57,1.358L172.378,20.042z M189.704,18.659l0.779-1.006c-2.163-1.408-3.998-3.219-5.331-5.331
			c-1.434,1.761-4.099,3.948-7.293,5.708l1.711,0.628H189.704z M179.243,19.061v4.602h3.797v-4.602H179.243z M179.796,19.564
			c2.163,0.679,2.892,1.609,2.892,2.389c0,0.754-0.729,1.358-1.483,1.358c-0.452,0-0.905-0.201-1.207-0.704
			c0.051-0.227,0.075-0.478,0.075-0.754c0-0.78-0.201-1.584-0.502-2.163L179.796,19.564z M184.348,16.497l1.333-1.811l2.489,1.86
			c-0.176,0.277-0.528,0.353-1.156,0.353h-6.362l-0.126-0.402H184.348z M187.717,26.354h-6.261v2.64h6.261V26.354z M181.456,32.012
			h6.261v-2.615h-6.261V32.012z M189.93,20.143v-1.082h-3.897v4.602h0.302c0.327-1.232,0.654-2.993,0.83-4.225L189.93,20.143z
			 M189.83,20.771c-0.705,0.88-1.836,2.012-2.918,2.892h3.018v-2.892H189.83z"/>
	</g>
	<g>
		<g>
			<path fill="#FFFFFF" d="M154.937,47.829c-0.226,0.414-0.602,0.526-1.466,0.602c-1.016,1.654-2.294,3.158-3.836,4.474
				c2.406,0.714,5.001,1.128,7.558,1.391v0.414c-1.917,0.602-3.12,2.218-3.647,4.625c-2.895-0.978-5.376-2.181-7.443-3.873
				c-3.084,1.805-6.768,3.196-10.979,4.098c1.578,2.105,1.578,3.609,1.578,4.399c0,3.609-1.654,6.204-6.391,6.617
				c0-3.008-0.64-3.873-2.068-4.286v9.7c0,0.376-1.541,1.617-4.136,1.617h-0.94V42.715l5.603,2.068h1.466l2.52-2.745l4.549,4.625
				c-0.301,0.376-0.789,0.526-1.691,0.526c-1.316,2.105-3.91,5.978-5.752,8.309c2.105,1.09,3.76,2.331,4.887,3.647
				c3.609-1.466,6.693-3.497,9.1-5.978c-0.865-1.09-1.654-2.369-2.256-3.797c-1.805,1.729-3.948,3.233-6.354,4.249l-0.263-0.263
				c2.631-2.632,4.699-7.294,5.451-11.505l6.955,0.94c-0.112,0.414-0.375,0.602-1.391,0.677c-0.564,1.09-1.203,2.105-1.955,3.121
				h3.723l2.744-2.594L154.937,47.829z M128.242,65.838h2.143c1.241,0,1.392-1.504,1.392-2.331c0-2.745-0.677-5.602-2.595-7.933
				c0.451-2.444,1.091-7.332,1.43-10.189h-2.369V65.838z M153.244,66.327l4.174,3.233c-0.301,0.414-0.827,0.526-1.805,0.526h-5.527
				v6.429c0,0.038-0.977,1.391-5.15,1.391v-7.82h-10.076l-0.15-0.602h3.572v-6.692h-1.43l-0.15-0.602h8.234v-3.91l6.279,0.526
				c-0.076,0.414-0.264,0.677-1.129,0.79v2.444l1.993-2.594l3.91,2.82c-0.263,0.451-0.827,0.526-1.767,0.526h-4.137v6.692h0.865
				L153.244,66.327z M143.545,47.189c-0.377,0.489-0.79,0.978-1.241,1.429c0.902,1.053,1.993,1.88,3.233,2.594
				c0.978-1.278,1.805-2.594,2.406-4.023H143.545z M142.905,69.485h2.03v-6.692h-2.03V69.485z"/>
			<path fill="#FFFFFF" d="M189.532,64.071l1.466-1.917l4.061,2.82c-0.188,0.226-0.602,0.489-1.203,0.602v10.452
				c0,0.038-1.053,1.015-3.984,1.015v-2.331h-1.241v1.354c0,0.038-0.489,1.429-3.91,1.429V65.161
				c-0.263,0.188-0.677,0.414-1.241,0.526v10.377c0,0.075-1.09,0.978-3.91,0.978v-2.557h-1.053v1.542
				c0,0.075-0.602,1.466-4.061,1.466v-5.076c-0.225,0.038-0.525,0.038-0.826,0.038h-9.062v2.669c0,0.338-1.354,1.391-3.609,1.391
				h-0.79V44.294l4.926,1.842h3.534l2.481-3.647l4.475,3.722c-0.264,0.414-0.865,0.526-1.843,0.526h-3.384v6.73l1.24-1.617
				l4.174,3.158c-0.226,0.263-0.715,0.564-1.316,0.677v6.655l4.174,1.729h0.602l1.504-1.955l3.985,2.782v-2.519l4.061,1.692H189.532
				z M166.071,46.738h-1.504v7.181h1.504V46.738z M164.567,54.521v8.271h5.376v-8.271H164.567z M164.567,63.394v8.459h1.466v-8.459
				H164.567z M171.937,68.62l2.519,2.406v-6.993c-0.112,0.15-1.879,0.865-3.646,0.865h-0.488v6.467L171.937,68.62z M190.51,43.317
				l4.662,3.647c-0.301,0.414-0.865,0.526-1.842,0.526h-12.408c-0.714,0.94-1.466,1.917-2.33,2.782l3.76,1.429h3.722l1.88-2.444
				l4.625,3.271c-0.227,0.338-0.602,0.526-1.43,0.677v6.843c0,0.188-1.466,0.978-3.91,0.978h-0.864v-1.805h-4.399v0.79
				c0,0.301-1.391,1.278-3.722,1.278h-0.827V51.4c-0.902,0.827-1.842,1.542-2.857,2.143l-0.451-0.263
				c1.617-2.97,2.895-7.632,3.422-11.505l6.88,1.729c-0.15,0.451-0.563,0.714-1.466,0.714c-0.451,0.865-0.979,1.767-1.617,2.669
				h6.617L190.51,43.317z M178.516,73.884h1.053v-9.211h-1.053V73.884z M186.374,52.303h-4.399v6.316h4.399V52.303z M188.63,74.109
				h1.241v-9.437h-1.241V74.109z"/>
		</g>
	</g>
	<g>
		<path fill="#FFFFFF" d="M240.15,28.717c0.15,0.579,0.201,1.132,0.201,1.635c0,2.489-1.66,3.722-3.119,3.722
			c-1.006,0-1.986-0.553-1.986-1.559c0-0.83,0.654-1.433,1.434-1.71c1.258-0.176,2.816-0.956,3.144-2.112L240.15,28.717z
			 M256.168,12.02l2.893,2.767c-0.201,0.226-0.428,0.302-0.956,0.327c-0.956,0.729-2.565,1.835-3.671,2.439l-0.201-0.15
			c0.15-0.83,0.352-2.289,0.452-3.294h-14.962c0.101,2.163-1.232,3.294-2.59,3.294c-0.881,0-1.735-0.478-1.735-1.383
			c0-0.754,0.604-1.308,1.308-1.559c1.031-0.251,2.213-1.106,2.288-2.238h0.327c0.201,0.528,0.302,1.031,0.377,1.484h2.037
			c-0.176-0.076-0.353-0.201-0.528-0.377c-0.176-0.905-0.679-1.961-1.282-2.59l0.15-0.151c2.968-0.025,3.974,0.88,3.974,1.76
			c0,0.553-0.428,1.106-1.006,1.358h2.188v-3.621l4.451,0.427c-0.051,0.353-0.276,0.528-1.006,0.629v2.565h1.282
			c0.604-0.981,1.308-2.364,1.71-3.395l3.495,1.761c-0.075,0.176-0.251,0.251-0.503,0.251c-0.15,0-0.302,0-0.478-0.05
			c-0.88,0.478-2.213,1.006-3.42,1.433h3.696L256.168,12.02z M235.422,28.265h9.833V26.58h-7.268l-0.126-0.402h7.394v-1.634h-3.345
			c0,0-0.528,1.081-3.27,1.081v-6.513l3.496,1.308h9.907l1.132-1.459c-1.258,0.629-2.69,0.629-3.27,0.629V18.81h-5.783
			c-0.126,0.327-1.308,1.056-2.741,1.056h-0.452v-5.381l3.344,1.282h5.432l1.107-1.458l3.193,2.112
			c-0.101,0.151-0.327,0.302-0.68,0.377v2.037c0,0.025-0.024,0.05-0.075,0.076l3.27,2.188c-0.126,0.151-0.378,0.352-0.78,0.428
			v2.791c-0.024,0.101-0.527,0.352-1.156,0.578l2.112,1.333c-0.126,0.201-0.302,0.302-0.604,0.327l2.791,1.76
			c-0.176,0.302-0.503,0.353-1.156,0.353h-22.18L235.422,28.265z M241.91,24.141h3.345v-3.319h-3.345V24.141z M242.287,21.274
			c2.012,0.227,2.691,0.931,2.691,1.56c0,0.604-0.629,1.131-1.283,1.131c-0.352,0-0.729-0.125-1.006-0.503
			c0.076-0.704-0.176-1.559-0.604-2.037L242.287,21.274z M242.664,29.195c2.439,0.981,3.27,2.087,3.27,2.993
			c0,0.955-0.955,1.634-1.911,1.634c-0.629,0-1.282-0.302-1.635-1.056c0.177-0.578,0.276-1.232,0.276-1.886
			c0-0.579-0.075-1.157-0.226-1.584L242.664,29.195z M244.123,18.408h5.783v-2.238h-5.783V18.408z M246.839,29.12
			c3.671,0.377,4.878,1.761,4.878,2.942c0,0.956-0.829,1.785-1.785,1.785c-0.428,0-0.905-0.15-1.308-0.578
			c-0.201-1.408-0.955-3.043-1.937-3.998L246.839,29.12z M252.271,20.822h-3.596v3.319h0.427c0.303-0.88,0.68-2.163,0.881-3.068
			l2.288,0.805V20.822z M248.675,24.543v1.634h3.822l0.88-1.006c-0.176,0.025-0.729,0.025-1.106,0.025v-0.653H248.675z
			 M248.675,26.58v1.685h5.858l1.484-1.71c-0.151,0.025-0.302,0.025-0.479,0.025H248.675z M252.271,24.141v-1.685
			c-0.075,0-0.151-0.025-0.251-0.025c-0.579,0.528-1.51,1.182-2.289,1.71H252.271z M251.918,28.918
			c5.256-0.176,6.991,1.685,6.991,3.194c0,0.981-0.755,1.811-1.735,1.811c-0.326,0-0.704-0.101-1.056-0.302
			c-0.981-1.609-2.666-3.47-4.3-4.501L251.918,28.918z"/>
		<path fill="#FFFFFF" d="M280.84,17.125l2.967,2.565c-0.15,0.276-0.402,0.377-0.98,0.453c-0.604,2.716-1.559,5.306-3.143,7.569
			c1.357,1.383,2.992,2.414,4.752,3.27l-0.075,0.276c-1.408,0.201-2.565,1.182-3.169,2.766c-1.383-1.207-2.489-2.515-3.344-4.099
			c-1.509,1.509-3.395,2.792-5.784,3.797l-0.126-0.302c2.163-1.509,3.772-3.47,4.93-5.708c-0.78-2.188-1.258-4.878-1.534-8.398
			h-0.478c0,4.627-0.102,10.788-5.936,14.71l-0.226-0.176c2.716-4.099,2.942-9.279,2.942-14.157v-1.434
			c-0.201,0.051-0.453,0.076-0.755,0.076h-6.11v4.275h1.182l1.232-1.609l3.294,2.313c-0.151,0.201-0.503,0.428-1.006,0.528v7.645
			c-0.025,0.276-1.534,1.081-2.716,1.081h-0.553v-9.556h-1.434c-0.126,4.375-1.182,8.122-4.351,10.688l-0.251-0.176
			c1.231-3.194,1.458-6.89,1.458-11.165V10.813l4.124,0.327v-0.88l4.099,0.377c-0.024,0.327-0.251,0.478-0.88,0.578v6.262
			l0.955-1.685l1.711,1.76v-6.563l3.696,1.283h4.3l1.66-2.163l2.992,2.213c-0.176,0.277-0.554,0.353-1.207,0.353h-8.223v6.211h4.274
			L280.84,17.125z M265.752,11.341c-0.101,0.201-0.377,0.327-0.98,0.402v6.186h0.98V11.341z M275.735,19.313
			c0.402,2.489,1.156,4.476,2.138,6.11c0.729-1.937,1.207-3.998,1.508-6.11H275.735z"/>
		<path fill="#FFFFFF" d="M285.747,28.039c3.696,0.478,6.337,2.087,6.337,4.023c0,1.207-0.93,1.911-1.886,1.911
			c-0.604,0-1.207-0.251-1.635-0.83c-0.176-1.559-1.081-3.797-2.942-4.878L285.747,28.039z"/>
	</g>
	<g>
		<g>
			<path fill="#FFFFFF" d="M268.141,69.259c-0.15,0.263-0.375,0.414-0.826,0.414c-0.15,0-0.377-0.038-0.602-0.075
				c-1.617,0.414-3.798,0.677-5.941,0.827v0.038c3.008,1.015,6.43,1.504,9.701,1.767v0.451c-2.068,0.602-3.347,2.369-3.873,4.925
				c-6.129-1.993-10.641-4.925-13.084-10.941c-1.429,0.865-3.083,1.579-4.963,2.181v3.421c2.481-0.075,5.188-0.15,7.934-0.263v0.489
				c-3.046,1.128-7.596,2.481-14.588,4.286c-0.264,0.489-0.678,0.79-1.091,0.865l-2.406-5.188c1.165,0,2.857-0.038,4.925-0.075
				v-2.256c-2.819,0.526-5.865,0.865-9.023,1.053l-0.15-0.564c5.227-1.015,9.775-2.669,12.783-4.662h-12.182l-0.188-0.602h14.775
				v-2.481c-0.714,0.414-1.805,0.714-3.346,0.902c0-2.481-0.338-3.158-1.955-3.497v-0.451h1.918c0.225,0,0.225-0.113,0.225-1.166
				h-4.85v3.722c0,0.301-1.429,1.278-3.797,1.278h-0.828V50.761l5.113,1.917h3.986l1.729-2.256h-12.934l-0.188-0.602h5.527v-0.038
				c-0.678-0.075-1.316-0.414-1.692-1.203c0.112-0.451,0.188-0.94,0.188-1.429s-0.076-0.978-0.227-1.354l0.188-0.075h-2.745
				l-0.188-0.602h5.752v-3.309l6.054,0.564c-0.075,0.414-0.339,0.639-1.165,0.752v1.993h0.864l2.03-2.557l3.797,2.632
				c-0.263,0.451-0.789,0.526-1.729,0.526h-4.775l4.475,1.09c-0.113,0.451-0.489,0.639-1.43,0.639
				c-0.939,0.677-2.368,1.617-3.609,2.369h2.294l1.88-2.105l3.609,2.218c-0.264,0.414-0.789,0.489-1.691,0.489h-4.099l4.7,3.309
				c-0.227,0.301-0.752,0.639-1.542,0.79v5.038c0,0.865-0.038,1.617-0.413,2.256l3.684,0.338c-0.301-0.602-0.375-1.504-0.375-2.857
				V41.888l6.09,0.489c-0.074,0.451-0.338,0.714-1.277,0.865v1.316h4.549l2.105-2.557l4.061,2.632
				c-0.264,0.451-0.827,0.526-1.729,0.526h-8.985v2.331h4.812l1.578-2.068l4.55,3.008c-0.15,0.226-0.489,0.451-1.015,0.564v1.504
				c-0.038,0.263-1.542,0.94-2.934,1.166l2.633,1.617c-0.264,0.414-0.79,0.489-1.654,0.489h-7.971v1.88h4.887l1.58-1.805l3.12,1.917
				c-0.263,0.414-0.79,0.489-1.654,0.489h-7.933v1.917h4.887l1.58-1.805l3.158,1.917c-0.264,0.414-0.79,0.489-1.654,0.489h-7.971
				v0.526c0,1.053,0.074,1.053,1.315,1.053h5.113c1.241,0,1.767,0,2.819-1.128h0.227l0.188,0.94
				c1.504,0.489,1.842,0.639,1.842,1.241c0,1.241-0.602,1.805-3.459,1.993l3.046,2.03c-0.263,0.451-0.752,0.526-1.767,0.526h-4.287
				L268.141,69.259z M244.756,49.821c0.15-1.166,0.338-2.857,0.413-4.098h-6.316c2.782,0.714,3.722,1.692,3.722,2.519
				c0,0.79-0.864,1.429-1.879,1.542v0.038H244.756z M246.184,53.28h-4.85v2.105h4.85V53.28z M241.334,58.055h4.85v-2.068h-4.85
				V58.055z M254.605,65.951l-0.451,0.301c1.203,1.429,2.82,2.557,4.662,3.384c1.43-1.053,3.008-2.557,3.91-3.685H254.605z
				 M258.516,48.092c-0.451,0.301-2.293,0.79-3.91,0.79l4.023,1.504h5.076v-2.293H258.516z M264.381,63.432h-5.037
				c-1.993,0-3.271-0.075-4.099-0.338c-0.15,0.038-0.301,0.038-0.451,0.075v2.181h7.971L264.381,63.432z M263.479,53.167
				l1.203-1.391h-0.977v-0.79h-5.113v2.181H263.479z"/>
			<path fill="#FFFFFF" d="M292.285,58.694c0.413,0.978,0.939,1.88,1.541,2.745c1.316-2.594,2.181-6.692,2.369-10.866l6.504,1.466
				c-0.15,0.489-0.451,0.79-1.429,0.865c-0.489,1.391-1.053,2.669-1.692,3.797c4.662,0.752,6.242,2.632,6.242,4.249
				c0,1.504-1.316,2.745-2.783,2.745c-0.714,0-1.428-0.263-2.067-0.94c-0.226-1.692-0.978-3.609-1.955-5.076
				c-1.278,1.955-2.819,3.459-4.624,4.512c3.195,4.098,8.121,6.88,13.121,8.083l-0.075,0.414c-1.993,0.526-3.534,2.256-4.173,4.85
				c-5.715-2.933-9.023-7.67-10.979-15.001v15.152c0,0.564-2.406,1.917-4.475,1.917h-1.053V67.379
				c-3.76,3.421-8.91,6.504-14.625,8.271l-0.227-0.451c4.812-2.632,9.287-7.144,12.295-12.219c-0.338,0.15-0.752,0.226-1.166,0.226
				c-0.752,0-1.578-0.338-2.143-1.166V61.74c0-1.053-0.188-2.218-0.488-3.233c-1.805,2.557-3.986,4.437-6.505,5.79l-0.413-0.301
				c2.293-2.82,4.173-7.933,4.887-13.385l6.316,1.767c-0.15,0.489-0.488,0.752-1.504,0.79c-0.563,1.466-1.203,2.82-1.917,4.023
				c2.782,0.79,4.061,1.917,4.399,2.97c0.413-0.865,0.789-1.729,1.09-2.632v-8.196h-14.4l-0.188-0.639h14.588v-6.617l6.955,0.639
				c-0.074,0.564-0.338,0.865-1.428,1.015v4.963h6.88l2.896-3.647l5.338,3.722c-0.263,0.451-0.789,0.564-1.879,0.564h-13.234V58.694
				z"/>
		</g>
	</g>
</g>
<g id="secondary">
</g>
</svg>
