<?xml version="1.0" encoding="utf-8"?>
<!-- Generator: Adobe Illustrator 17.0.0, SVG Export Plug-In . SVG Version: 6.00 Build 0)  -->
<!DOCTYPE svg PUBLIC "-//W3C//DTD SVG 1.1//EN" "http://www.w3.org/Graphics/SVG/1.1/DTD/svg11.dtd">
<svg version="1.1" xmlns="http://www.w3.org/2000/svg" xmlns:xlink="http://www.w3.org/1999/xlink" x="0px" y="0px" width="320px"
	 height="320px" viewBox="0 0 320 320" enable-background="new 0 0 320 320" xml:space="preserve">
<g id="backup" display="none">
</g>
<g id="backgrounds">
	<g>
		<rect x="120" fill="#E2220E" width="80" height="320"/>
		<line fill="none" stroke="#C1272D" stroke-miterlimit="10" x1="120" y1="0" x2="120" y2="320"/>
		<line fill="none" stroke="#C1272D" stroke-miterlimit="10" x1="200" y1="0" x2="200" y2="320"/>
	</g>
</g>
<g id="stripes">
</g>
<g id="main">
	<g opacity="0.15">
		<path d="M283.131,236.078l6.674,4.849c-0.337,0.527-0.961,0.672-2.354,0.672h-43.059l-0.24-0.769h10.129v-22.609h-8.593
			l-0.24-0.769h8.833v-8.16l8.785,0.864c-0.097,0.624-0.529,1.008-1.824,1.199v6.097h11.185v-8.16l8.929,0.864
			c-0.096,0.624-0.528,1.008-1.872,1.199v6.049l3.265-4.128l6.096,4.272c-0.384,0.575-1.008,0.672-2.305,0.672h-7.056v22.609
			L283.131,236.078z M266.33,245.583c-0.336,0.624-1.104,1.008-2.832,0.912c-4.033,3.456-10.993,6.576-18.578,8.353l-0.191-0.48
			c5.568-3.168,10.752-8.496,13.057-12.576L266.33,245.583z M272.427,218.221h-11.185v6.912h11.185V218.221z M261.242,225.901v7.009
			h11.185v-7.009H261.242z M261.242,233.678v7.152h11.185v-7.152H261.242z M270.362,243.711c14.449,0.96,18.817,4.752,18.817,7.633
			c0,1.92-1.968,3.456-4.176,3.456c-1.104,0-2.256-0.433-3.265-1.393c-1.776-2.64-5.328-6.48-11.569-9.169L270.362,243.711z"/>
		<path d="M261.338,259.787c-0.192,0.624-0.625,1.056-1.969,1.056c-1.199,3.217-2.496,6.192-3.984,8.929l1.969,0.721
			c-0.145,0.479-0.528,0.768-1.488,0.96v29.427c-0.096,0.479-2.832,1.92-5.473,1.92h-1.248v-23.618
			c-1.488,1.776-3.072,3.408-4.752,4.849l-0.528-0.336c3.168-6.049,6.624-16.802,8.353-26.499L261.338,259.787z M286.828,288.541
			l-0.049,6.097c2.736,1.104,3.072,1.488,3.072,2.496c0,2.881-1.824,4.177-9.504,4.177h-10.081c-7.297,0-9.409-1.729-9.409-8.353
			v-15.121l-3.312,1.392l-0.576-0.672l3.889-1.632v-14.834l8.497,0.721c-0.097,0.624-0.384,1.056-1.776,1.248v10.081l2.448-1.009
			v-15.985l8.545,0.769c-0.097,0.672-0.433,1.056-1.824,1.248v11.185l2.017-0.815l2.447-4.369l6.77,3.937
			c-0.336,0.528-0.961,0.96-1.921,1.248v12.098c0,3.984-1.2,6.816-7.345,7.057c0-3.072-0.048-4.657-0.24-5.185
			c-0.191-0.48-0.672-0.96-1.488-1.2v-0.433h1.777c0.432,0,0.576-0.096,0.576-0.527v-11.953l-2.593,1.104v17.33
			c0,0.096-1.152,1.92-6.721,1.92v-16.514l-2.448,1.057v18.049c0,1.873,0.432,2.16,2.496,2.16h10.417
			c1.248,0,2.017-0.048,2.736-0.768c0.769-0.72,1.776-2.736,3.265-6.001H286.828z"/>
	</g>
	<g opacity="0.25">
		<path fill="#FFFFFF" d="M178.58,151.983l4.128,3.936c-0.336,0.528-0.96,0.673-2.257,0.673h-42.915l-0.192-0.769h6.385v-15.745
			c-1.536,0.768-3.023,0.768-4.896,0.768v-26.498l6.912,2.544h7.777l2.832-3.6l5.328,3.696c-0.336,0.576-1.056,0.672-2.256,0.672
			h-6.48v5.904h0.768l1.777-2.304l5.136,3.408c-0.192,0.24-0.575,0.527-1.2,0.624v5.616c0,0.096-1.439,1.344-5.376,1.344v-1.296
			h-1.056v5.856h0.719l2.929-3.648l5.376,3.745c-0.336,0.575-1.056,0.672-2.256,0.672h-14.689v1.439
			c0,0.192-0.383,0.576-1.056,0.912l6.577,2.497h18.817l2.735-3.505l6.625,4.465c-0.336,0.479-0.863,0.768-2.16,1.008v10.945
			L178.58,151.983z M147.425,117.66h-2.353v5.904h2.353V117.66z M154.05,124.333h-8.978v5.856h8.978V124.333z M147.473,136.813
			v-5.856h-2.4v5.856H147.473z M150.161,143.198v12.625h2.4v-12.625H150.161z M161.202,143.198h-2.4v12.625h2.4V143.198z
			 M167.443,122.652c-1.633,3.265-3.793,6.289-6.481,8.353l-0.624-0.336c1.873-4.272,2.881-11.137,3.121-16.753l8.16,1.344
			c-0.145,0.624-0.624,0.96-1.729,1.057c-0.527,1.824-1.199,3.696-2.064,5.568h5.617l3.217-4.369l6,4.465
			c-0.385,0.528-1.104,0.672-2.353,0.672H167.443z M173.155,133.021l3.072-4.272l5.665,4.368c-0.385,0.528-1.104,0.672-2.354,0.672
			h-15.505l-0.192-0.768H173.155z M169.843,143.198h-2.399v12.625h2.399V143.198z"/>
		<path fill="#FFFFFF" d="M167.587,186.733l2.496-3.265l6.624,4.656c-0.287,0.336-0.815,0.72-1.68,0.912v15.89
			c0,0.048-1.824,1.584-6.961,1.584v-2.977h-16.321v0.721c0,0.191-0.96,2.544-6.816,2.544v-22.851l0.864,0.337
			c-0.096-1.921-0.24-3.121-2.545-3.505v-0.576h2.641c0.192,0,0.288-0.191,0.288-0.672v-2.256h-0.479
			c-2.257,3.168-5.186,5.568-8.161,6.96l-0.576-0.432c1.488-2.208,2.977-6.049,3.889-9.889l5.328,2.016v-2.928h-8.737l-0.191-0.769
			h8.929v-11.089l8.161,0.769c-0.096,0.672-0.528,1.008-1.92,1.248v3.552h0.863l2.688-3.696l5.089,3.793
			c-0.385,0.527-1.104,0.672-2.257,0.672h-6.384v4.752h2.688l2.928-3.84l5.377,3.937c-0.336,0.576-1.008,0.672-2.256,0.672h-8.736
			v6.576c0,2.929-0.529,4.944-3.697,5.856l3.408,1.297H167.587z M168.066,187.501h-16.321v4.465h16.321V187.501z M168.066,192.733
			h-16.321v4.561h16.321V192.733z M151.745,202.767h16.321v-4.705h-16.321V202.767z M154.146,174.876
			c5.425,1.152,7.2,3.168,7.2,4.849c0,1.68-1.68,3.072-3.456,3.072c-1.008,0-2.063-0.48-2.784-1.584
			c0.145-2.017-0.336-4.561-1.296-6.097L154.146,174.876z M176.516,161.818l5.713,4.849c-0.336,0.528-0.769,0.672-1.873,0.816
			c-1.344,3.456-3.264,6.576-5.855,9.312c2.592,1.393,5.472,2.4,8.4,3.169l-0.049,0.527c-2.592,0.624-4.464,2.641-5.328,5.761
			c-2.88-1.584-5.28-3.408-7.248-5.713c-3.169,2.257-6.913,4.081-11.426,5.473l-0.24-0.576c3.889-2.063,7.01-4.8,9.409-7.969
			c-1.776-3.023-3.072-6.769-3.937-11.568h-3.359l-0.24-0.769h12.625L176.516,161.818z M164.803,165.899
			c1.199,3.408,3.12,6.048,5.52,8.064c1.393-2.496,2.449-5.232,3.169-8.064H164.803z"/>
	</g>
	<g opacity="0.15">
		<path d="M41.673,23.26l2.497-3.215l6.145,4.561c-0.289,0.336-0.816,0.719-1.681,0.863V57.92c0,4.127-0.96,7.104-7.393,7.633
			c0-4.945-0.864-6.049-3.889-6.529v-0.527h4.368c0.289,0,0.433-0.24,0.433-0.721V46.783h-3.312
			c-0.672,6.623-2.64,13.537-8.257,18.77l-0.48-0.289c2.881-8.064,2.881-18.049,2.881-28.178V20.764l7.201,2.496H41.673z
			 M39.225,37.086c0,2.736,0,5.809-0.287,8.928h3.216V35.309h-2.929V37.086z M42.153,24.029h-2.929v10.512h2.929V24.029z
			 M69.66,37.758l5.808,4.801c-0.288,0.527-0.72,0.719-1.776,0.816c-1.008,4.031-2.64,8.064-5.04,11.713
			c2.304,1.775,4.849,3.168,7.393,4.32L75.9,59.936c-2.688,0.432-4.801,2.449-5.904,5.664c-2.017-1.729-3.745-3.6-5.186-5.76
			c-1.824,1.824-3.888,3.504-6.336,4.943l-0.288-0.527c1.968-2.16,3.552-4.752,4.8-7.584c-1.92-3.842-3.168-8.545-3.984-14.738
			h-1.248v21.602c0,0.48-1.968,2.018-5.279,2.018h-1.201V20.621l7.153,2.639h7.296l2.4-3.168l6.48,4.561
			c-0.287,0.385-0.912,0.816-1.92,1.008v5.568c0,3.938-0.96,6.914-7.488,7.393c0-5.328-1.344-6.049-4.129-6.48v-0.576h4.656
			c0.336,0,0.48-0.24,0.48-0.672v-6.863h-8.449v17.137h8.641L69.66,37.758z M59.723,41.934c1.057,3.938,2.881,7.105,5.137,9.648
			c0.96-3.215,1.584-6.48,1.968-9.648H59.723z"/>
		<path d="M68.795,104.383c-0.047,0.336-3.264,1.584-5.952,1.584c8.833,0.719,11.714,2.928,11.714,4.752
			c0,1.584-2.018,2.881-4.178,2.881c-1.056,0-2.16-0.289-3.072-1.008c-2.063-1.922-6.048-4.609-11.952-6.338l0.144-0.527
			c2.353,0,4.465,0.049,6.337,0.145v-1.729H46.186l6.385,4.607c-0.288,0.336-0.769,0.529-1.488,0.529
			c-0.432,0-0.912-0.096-1.536-0.24c-4.464,2.256-11.617,3.984-18.722,4.512l-0.191-0.527c5.664-2.016,11.616-5.762,14.641-8.881
			h-1.2c0,0.191-1.008,2.543-6.816,2.543V85.324l-2.208,1.008c-0.288,0.672-0.769,1.057-1.344,1.152l-3.457-6.527
			c1.152-0.049,2.784-0.193,4.801-0.385V70.395l5.424,1.633c2.785-1.344,5.809-3.168,7.249-4.32l5.329,4.848
			c-0.193,0.193-0.433,0.289-0.769,0.289c-0.288,0-0.624-0.096-1.009-0.24c-2.256,0.432-6.336,0.912-10.225,1.008v6.336
			c1.536-0.143,3.121-0.336,4.705-0.479c-0.576-1.297-1.44-2.449-2.4-3.266l0.287-0.287c6.721,0.48,8.93,2.928,8.93,5.088
			c0,1.824-1.537,3.361-3.312,3.361c-0.768,0-1.584-0.289-2.352-1.057c-0.097-0.768-0.24-1.584-0.529-2.4
			c-2.256,1.199-5.136,2.592-8.928,4.369l7.008,2.688h16.898l2.496-3.217l0.623,0.432c0-2.879-0.479-4.08-3.359-4.848l0.047-0.576
			h3.361c0.623,0,0.863,0,1.104-0.191c0.48-0.48,0.768-2.689,0.912-7.633h-3.217c-0.623,5.953-2.928,11.568-14.064,15.17
			l-0.48-0.576c7.009-4.561,7.537-9.602,7.729-14.594h-3.648l-0.239-0.768h13.489l2.352-2.832l5.857,4.271
			c-0.289,0.385-0.865,0.721-1.681,0.863c-0.336,8.979-0.96,11.953-7.44,12.242l5.28,3.648c-0.288,0.336-0.815,0.719-1.681,0.912
			V104.383z M61.835,88.732H44.073v4.273h17.762V88.732z M61.835,98.143v-4.369H44.073v4.369H61.835z M44.073,103.375h17.762V98.91
			H44.073V103.375z"/>
	</g>
</g>
<g id="secondary">
</g>
</svg>
