<?xml version="1.0" encoding="utf-8"?>
<!-- Generator: Adobe Illustrator 17.0.0, SVG Export Plug-In . SVG Version: 6.00 Build 0)  -->
<!DOCTYPE svg PUBLIC "-//W3C//DTD SVG 1.1//EN" "http://www.w3.org/Graphics/SVG/1.1/DTD/svg11.dtd">
<svg version="1.1" xmlns="http://www.w3.org/2000/svg" xmlns:xlink="http://www.w3.org/1999/xlink" x="0px" y="0px" width="640px"
	 height="320px" viewBox="0 0 640 320" enable-background="new 0 0 640 320" xml:space="preserve">
<g id="backup" display="none">
</g>
<g id="backgrounds">
</g>
<g id="stripes">
</g>
<g id="main">
	<polygon fill="#B3B3B3" points="194.125,277.707 106.013,277.707 217.328,118.527 259.605,118.527 	"/>
	<polygon fill="#B3B3B3" points="532.843,277.707 444.73,277.707 379.846,118.527 422.123,118.527 	"/>
	<polygon fill="#CCCCCC" points="381.767,242.479 257.22,242.479 292.486,90.377 347.071,90.377 	"/>
	<polygon fill="#CCCCCC" points="250.132,242.479 208.616,242.479 269.309,94.936 288.203,94.936 	"/>
	<polygon fill="#B3B3B3" points="264.308,242.479 250.132,242.479 288.203,94.936 293.376,101.153 	"/>
	<polygon fill="#CCCCCC" points="388.855,242.479 430.371,242.479 370.23,94.936 351.336,94.936 	"/>
	<polygon fill="#B3B3B3" points="374.679,242.479 388.855,242.479 351.336,94.936 346.14,101.153 	"/>
	<g>
		<polygon fill="#F2F2F2" points="368.11,111.543 361.312,111.543 359.287,104.691 365.752,104.691 		"/>
		<polygon fill="#666666" points="367.399,110.991 361.669,110.991 359.935,105.194 365.426,105.194 		"/>
		<polygon fill="#F2F2F2" points="363.423,106.727 362.918,106.727 362.431,105.194 362.93,105.194 		"/>
		<polygon fill="#F2F2F2" points="364.795,110.991 364.274,110.991 363.756,109.361 364.27,109.361 		"/>
		<polygon fill="#F2F2F2" points="364.949,108.295 364.776,107.768 366.302,107.768 366.482,108.295 		"/>
		<polygon fill="#F2F2F2" points="360.863,108.295 360.705,107.768 362.232,107.768 362.395,108.295 		"/>
		<path fill="#F2F2F2" d="M365.627,108.031c0.393,1.174-0.211,2.14-1.355,2.14s-2.366-0.966-2.723-2.14
			c-0.352-1.154,0.267-2.075,1.376-2.075C364.033,105.956,365.241,106.877,365.627,108.031z"/>
		<path fill="#666666" d="M364.862,108.031c0.241,0.731-0.139,1.33-0.849,1.33c-0.711,0-1.473-0.599-1.7-1.33
			c-0.225-0.723,0.16-1.304,0.857-1.304S364.624,107.308,364.862,108.031z"/>
	</g>
	<g>
		<polygon fill="#F2F2F2" points="370.723,119.14 363.556,119.14 361.312,111.543 368.11,111.543 		"/>
		<polygon fill="#666666" points="369.963,118.527 363.924,118.527 362.001,112.1 367.776,112.1 		"/>
		<polygon fill="#F2F2F2" points="365.697,113.796 365.165,113.796 364.626,112.1 365.151,112.1 		"/>
		<polygon fill="#F2F2F2" points="367.218,118.527 366.669,118.527 366.094,116.716 366.636,116.716 		"/>
		<polygon fill="#F2F2F2" points="367.331,115.534 367.139,114.95 368.746,114.95 368.945,115.534 		"/>
		<polygon fill="#F2F2F2" points="363.029,115.534 362.854,114.95 364.461,114.95 364.642,115.534 		"/>
		<path fill="#F2F2F2" d="M368.04,115.241c0.436,1.302-0.182,2.375-1.388,2.375c-1.205,0-2.51-1.073-2.906-2.375
			c-0.39-1.279,0.245-2.298,1.412-2.298C366.325,112.943,367.612,113.963,368.04,115.241z"/>
		<path fill="#666666" d="M367.235,115.241c0.267,0.811-0.122,1.475-0.87,1.475s-1.562-0.664-1.813-1.475
			c-0.249-0.802,0.146-1.445,0.88-1.445C366.165,113.796,366.971,114.439,367.235,115.241z"/>
	</g>
	<g>
		<polygon fill="#F2F2F2" points="373.637,127.61 366.058,127.61 363.556,119.14 370.723,119.14 		"/>
		<polygon fill="#666666" points="372.821,126.924 366.436,126.924 364.292,119.759 370.383,119.759 		"/>
		<polygon fill="#F2F2F2" points="368.221,121.647 367.661,121.647 367.061,119.759 367.614,119.759 		"/>
		<polygon fill="#F2F2F2" points="369.919,126.924 369.338,126.924 368.696,124.902 369.268,124.902 		"/>
		<polygon fill="#F2F2F2" points="369.98,123.583 369.766,122.932 371.462,122.932 371.684,123.583 		"/>
		<polygon fill="#F2F2F2" points="365.437,123.583 365.242,122.932 366.938,122.932 367.14,123.583 		"/>
		<path fill="#F2F2F2" d="M370.723,123.257c0.486,1.452-0.146,2.65-1.42,2.65c-1.274,0-2.672-1.198-3.114-2.65
			c-0.434-1.425,0.218-2.56,1.448-2.56C368.868,120.697,370.246,121.832,370.723,123.257z"/>
		<path fill="#666666" d="M369.873,123.257c0.298,0.904-0.1,1.645-0.891,1.645c-0.791,0-1.662-0.741-1.943-1.645
			c-0.277-0.894,0.128-1.61,0.902-1.61C368.715,121.647,369.579,122.363,369.873,123.257z"/>
	</g>
	<g>
		<polygon fill="#F2F2F2" points="376.907,137.112 368.865,137.112 366.058,127.61 373.637,127.61 		"/>
		<polygon fill="#CCCCCC" points="376.025,136.34 369.253,136.34 366.848,128.302 373.29,128.302 		"/>
		<polygon fill="#F2F2F2" points="371.042,130.415 370.448,130.415 369.776,128.302 370.362,128.302 		"/>
		<polygon fill="#F2F2F2" points="372.947,136.34 372.331,136.34 371.609,134.067 372.216,134.067 		"/>
		<polygon fill="#F2F2F2" points="372.943,132.586 372.703,131.856 374.499,131.856 374.748,132.586 		"/>
		<polygon fill="#F2F2F2" points="368.13,132.586 367.912,131.856 369.708,131.856 369.935,132.586 		"/>
		<path fill="#F2F2F2" d="M373.723,132.22c0.545,1.63-0.099,2.975-1.45,2.975c-1.351,0-2.856-1.346-3.352-2.975
			c-0.487-1.597,0.181-2.869,1.484-2.869C371.707,129.351,373.188,130.623,373.723,132.22z"/>
		<path fill="#CCCCCC" d="M372.823,132.22c0.334,1.015-0.072,1.847-0.91,1.847s-1.776-0.832-2.091-1.847
			c-0.311-1.002,0.104-1.805,0.923-1.805S372.493,131.218,372.823,132.22z"/>
	</g>
	<g>
		<polygon fill="#F2F2F2" points="380.6,147.848 372.037,147.848 368.865,137.112 376.907,137.112 		"/>
		<polygon fill="#CCCCCC" points="379.644,146.973 372.434,146.973 369.717,137.891 376.553,137.891 		"/>
		<polygon fill="#F2F2F2" points="374.212,140.273 373.582,140.273 372.824,137.891 373.446,137.891 		"/>
		<polygon fill="#F2F2F2" points="376.366,146.973 375.711,146.973 374.893,144.399 375.539,144.399 		"/>
		<polygon fill="#F2F2F2" points="376.279,142.725 376.008,141.9 377.917,141.9 378.198,142.725 		"/>
		<polygon fill="#F2F2F2" points="371.163,142.725 370.916,141.9 372.826,141.9 373.082,142.725 		"/>
		<path fill="#F2F2F2" d="M377.1,142.311c0.617,1.842-0.039,3.365-1.476,3.365c-1.437,0-3.066-1.523-3.628-3.365
			c-0.55-1.803,0.134-3.237,1.517-3.237C374.896,139.074,376.497,140.508,377.1,142.311z"/>
		<path fill="#CCCCCC" d="M376.143,142.311c0.377,1.147-0.036,2.088-0.927,2.088s-1.907-0.941-2.262-2.088
			c-0.351-1.132,0.073-2.038,0.943-2.038S375.771,141.18,376.143,142.311z"/>
	</g>
	<g>
		<polygon fill="#F2F2F2" points="401.85,209.612 390.284,209.612 384.619,190.438 395.253,190.438 		"/>
		<polygon fill="#CCCCCC" points="400.418,208.019 390.697,208.019 385.845,191.802 394.899,191.802 		"/>
		<polygon fill="#F2F2F2" points="392.134,196 391.295,196 389.961,191.802 390.784,191.802 		"/>
		<polygon fill="#F2F2F2" points="395.999,208.019 395.116,208.019 393.636,203.364 394.502,203.364 		"/>
		<polygon fill="#F2F2F2" points="395.247,200.361 394.762,198.889 397.311,198.889 397.812,200.361 		"/>
		<polygon fill="#F2F2F2" points="388.406,200.361 387.965,198.889 390.514,198.889 390.971,200.361 		"/>
		<path fill="#F2F2F2" d="M396.282,199.622c1.104,3.3,0.457,6.046-1.476,6.046s-4.337-2.746-5.342-6.046
			c-0.977-3.207-0.262-5.741,1.574-5.741S395.209,196.416,396.282,199.622z"/>
		<path fill="#CCCCCC" d="M395.004,199.622c0.675,2.051,0.262,3.741-0.935,3.741s-2.69-1.69-3.327-3.741
			c-0.625-2.015-0.186-3.622,0.973-3.622C392.873,196,394.34,197.607,395.004,199.622z"/>
	</g>
	<g>
		<polygon fill="#F2F2F2" points="384.806,160.074 375.649,160.074 372.037,147.848 380.6,147.848 		"/>
		<polygon fill="#666666" points="383.761,159.073 376.054,159.073 372.96,148.731 380.242,148.731 		"/>
		<polygon fill="#F2F2F2" points="377.802,151.437 377.13,151.437 376.27,148.731 376.932,148.731 		"/>
		<polygon fill="#F2F2F2" points="380.258,159.073 379.557,159.073 378.623,156.135 379.313,156.135 		"/>
		<polygon fill="#F2F2F2" points="380.064,154.226 379.755,153.287 381.792,153.287 382.112,154.226 		"/>
		<polygon fill="#F2F2F2" points="374.604,154.226 374.323,153.287 376.36,153.287 376.652,154.226 		"/>
		<path fill="#F2F2F2" d="M380.931,153.756c0.703,2.099,0.039,3.837-1.496,3.837s-3.31-1.738-3.95-3.837
			c-0.625-2.052,0.072-3.682,1.546-3.682S380.244,151.704,380.931,153.756z"/>
		<path fill="#666666" d="M379.909,153.756c0.43,1.306,0.011,2.379-0.941,2.379c-0.952,0-2.057-1.073-2.463-2.379
			c-0.4-1.288,0.033-2.319,0.961-2.319S379.486,152.468,379.909,153.756z"/>
	</g>
	<g>
		<polygon fill="#F2F2F2" points="389.64,174.123 379.8,174.123 375.649,160.074 384.806,160.074 		"/>
		<polygon fill="#666666" points="388.49,172.968 380.211,172.968 376.656,161.085 384.446,161.085 		"/>
		<polygon fill="#F2F2F2" points="381.902,164.184 381.182,164.184 380.197,161.085 380.905,161.085 		"/>
		<polygon fill="#F2F2F2" points="384.727,172.968 383.974,172.968 382.898,169.582 383.638,169.582 		"/>
		<polygon fill="#F2F2F2" points="384.395,167.387 384.04,166.308 386.223,166.308 386.591,167.387 		"/>
		<polygon fill="#F2F2F2" points="378.541,167.387 378.218,166.308 380.401,166.308 380.737,167.387 		"/>
		<path fill="#F2F2F2" d="M385.312,166.846c0.808,2.414,0.141,4.415-1.507,4.415c-1.649,0-3.595-2.001-4.331-4.415
			c-0.718-2.356-0.009-4.224,1.568-4.224S384.523,164.49,385.312,166.846z"/>
		<path fill="#666666" d="M384.217,166.846c0.494,1.502,0.072,2.736-0.949,2.736s-2.233-1.234-2.699-2.736
			c-0.459-1.479-0.02-2.662,0.973-2.662C382.536,164.184,383.731,165.367,384.217,166.846z"/>
	</g>
	<g>
		<polygon fill="#F2F2F2" points="395.253,190.438 384.619,190.438 379.8,174.123 389.64,174.123 		"/>
		<polygon fill="#666666" points="393.976,189.09 385.034,189.09 380.906,175.291 389.28,175.291 		"/>
		<polygon fill="#F2F2F2" points="386.627,178.878 385.853,178.878 384.713,175.291 385.474,175.291 		"/>
		<polygon fill="#F2F2F2" points="389.912,189.09 389.099,189.09 387.845,185.145 388.643,185.145 		"/>
		<polygon fill="#F2F2F2" points="389.399,182.593 388.987,181.34 391.339,181.34 391.765,182.593 		"/>
		<polygon fill="#F2F2F2" points="383.09,182.593 382.715,181.34 385.067,181.34 385.456,182.593 		"/>
		<path fill="#F2F2F2" d="M390.372,181.964c0.939,2.805,0.276,5.135-1.503,5.135s-3.932-2.33-4.787-5.135
			c-0.833-2.732-0.117-4.896,1.58-4.896S389.457,179.232,390.372,181.964z"/>
		<path fill="#666666" d="M389.193,181.964c0.574,1.744,0.153,3.18-0.949,3.18s-2.441-1.436-2.982-3.18
			c-0.533-1.716-0.091-3.087,0.979-3.087C387.31,178.878,388.628,180.248,389.193,181.964z"/>
	</g>
	<g>
		<polygon fill="#F2F2F2" points="278.165,111.543 271.367,111.543 273.75,104.691 280.215,104.691 		"/>
		<polygon fill="#666666" points="277.81,110.991 272.08,110.991 274.075,105.194 279.566,105.194 		"/>
		<polygon fill="#F2F2F2" points="276.577,106.727 276.072,106.727 276.57,105.194 277.07,105.194 		"/>
		<polygon fill="#F2F2F2" points="275.205,110.991 274.684,110.991 275.215,109.361 275.73,109.361 		"/>
		<polygon fill="#F2F2F2" points="277.094,108.295 277.259,107.768 278.786,107.768 278.626,108.295 		"/>
		<polygon fill="#F2F2F2" points="273.008,108.295 273.189,107.768 274.715,107.768 274.54,108.295 		"/>
		<path fill="#F2F2F2" d="M277.942,108.031c-0.362,1.174-1.588,2.14-2.731,2.14c-1.144,0-1.744-0.966-1.347-2.14
			c0.391-1.154,1.601-2.075,2.71-2.075S278.298,106.877,277.942,108.031z"/>
		<path fill="#666666" d="M277.177,108.031c-0.23,0.731-0.994,1.33-1.705,1.33c-0.711,0-1.088-0.599-0.844-1.33
			c0.241-0.723,0.999-1.304,1.696-1.304S277.404,107.308,277.177,108.031z"/>
	</g>
	<g>
		<polygon fill="#F2F2F2" points="275.893,119.14 268.725,119.14 271.367,111.543 278.165,111.543 		"/>
		<polygon fill="#666666" points="275.527,118.527 269.488,118.527 271.699,112.1 277.474,112.1 		"/>
		<polygon fill="#F2F2F2" points="274.303,113.796 273.772,113.796 274.324,112.1 274.849,112.1 		"/>
		<polygon fill="#F2F2F2" points="272.782,118.527 272.233,118.527 272.822,116.716 273.364,116.716 		"/>
		<polygon fill="#F2F2F2" points="274.82,115.534 275.004,114.95 276.611,114.95 276.434,115.534 		"/>
		<polygon fill="#F2F2F2" points="270.517,115.534 270.718,114.95 272.325,114.95 272.131,115.534 		"/>
		<path fill="#F2F2F2" d="M275.717,115.241c-0.402,1.302-1.71,2.375-2.915,2.375c-1.205,0-1.819-1.073-1.379-2.375
			c0.433-1.279,1.724-2.298,2.891-2.298C275.48,112.943,276.112,113.963,275.717,115.241z"/>
		<path fill="#666666" d="M274.912,115.241c-0.255,0.811-1.07,1.475-1.819,1.475c-0.749,0-1.135-0.664-0.865-1.475
			c0.267-0.802,1.076-1.445,1.809-1.445S275.164,114.439,274.912,115.241z"/>
	</g>
	<g>
		<polygon fill="#F2F2F2" points="273.359,127.61 265.78,127.61 268.725,119.14 275.893,119.14 		"/>
		<polygon fill="#666666" points="272.984,126.924 266.599,126.924 269.064,119.759 275.154,119.759 		"/>
		<polygon fill="#F2F2F2" points="271.779,121.647 271.218,121.647 271.832,119.759 272.386,119.759 		"/>
		<polygon fill="#F2F2F2" points="270.081,126.924 269.501,126.924 270.159,124.902 270.732,124.902 		"/>
		<polygon fill="#F2F2F2" points="272.292,123.583 272.496,122.932 274.193,122.932 273.996,123.583 		"/>
		<polygon fill="#F2F2F2" points="267.748,123.583 267.972,122.932 269.669,122.932 269.452,123.583 		"/>
		<path fill="#F2F2F2" d="M273.244,123.257c-0.448,1.452-1.85,2.65-3.124,2.65s-1.901-1.198-1.41-2.65
			c0.482-1.425,1.864-2.56,3.095-2.56C273.036,120.697,273.684,121.832,273.244,123.257z"/>
		<path fill="#666666" d="M272.394,123.257c-0.284,0.904-1.158,1.645-1.949,1.645s-1.186-0.741-0.885-1.645
			c0.297-0.894,1.164-1.61,1.938-1.61C272.272,121.647,272.675,122.363,272.394,123.257z"/>
	</g>
	<g>
		<polygon fill="#F2F2F2" points="270.516,137.112 262.475,137.112 265.78,127.61 273.359,127.61 		"/>
		<polygon fill="#CCCCCC" points="270.131,136.34 263.359,136.34 266.125,128.302 272.566,128.302 		"/>
		<polygon fill="#F2F2F2" points="268.958,130.415 268.365,130.415 269.053,128.302 269.638,128.302 		"/>
		<polygon fill="#F2F2F2" points="267.053,136.34 266.437,136.34 267.177,134.067 267.784,134.067 		"/>
		<polygon fill="#F2F2F2" points="269.463,132.586 269.693,131.856 271.49,131.856 271.268,132.586 		"/>
		<polygon fill="#F2F2F2" points="264.65,132.586 264.902,131.856 266.698,131.856 266.455,132.586 		"/>
		<path fill="#F2F2F2" d="M270.479,132.22c-0.503,1.63-2.013,2.975-3.363,2.975c-1.351,0-1.99-1.346-1.439-2.975
			c0.541-1.597,2.027-2.869,3.329-2.869S270.972,130.623,270.479,132.22z"/>
		<path fill="#CCCCCC" d="M269.578,132.22c-0.319,1.015-1.26,1.847-2.098,1.847s-1.241-0.832-0.903-1.847
			c0.333-1.002,1.265-1.805,2.085-1.805C269.481,130.415,269.893,131.218,269.578,132.22z"/>
	</g>
	<g>
		<polygon fill="#F2F2F2" points="267.304,147.848 258.741,147.848 262.475,137.112 270.516,137.112 		"/>
		<polygon fill="#CCCCCC" points="266.911,146.973 259.701,146.973 262.825,137.891 269.661,137.891 		"/>
		<polygon fill="#F2F2F2" points="265.788,140.273 265.158,140.273 265.933,137.891 266.554,137.891 		"/>
		<polygon fill="#F2F2F2" points="263.634,146.973 262.978,146.973 263.815,144.399 264.461,144.399 		"/>
		<polygon fill="#F2F2F2" points="266.279,142.725 266.538,141.9 268.447,141.9 268.197,142.725 		"/>
		<polygon fill="#F2F2F2" points="261.162,142.725 261.446,141.9 263.356,141.9 263.081,142.725 		"/>
		<path fill="#F2F2F2" d="M267.366,142.311c-0.568,1.842-2.203,3.365-3.64,3.365c-1.437,0-2.087-1.523-1.463-3.365
			c0.61-1.803,2.217-3.237,3.599-3.237C267.244,139.074,267.922,140.508,267.366,142.311z"/>
		<path fill="#CCCCCC" d="M266.409,142.311c-0.36,1.147-1.379,2.088-2.27,2.088s-1.301-0.941-0.92-2.088
			c0.377-1.132,1.384-2.038,2.254-2.038S266.764,141.18,266.409,142.311z"/>
	</g>
	<g>
		<polygon fill="#F2F2F2" points="248.826,209.612 237.261,209.612 243.929,190.438 254.563,190.438 		"/>
		<polygon fill="#CCCCCC" points="248.419,208.019 238.699,208.019 244.278,191.802 253.331,191.802 		"/>
		<polygon fill="#F2F2F2" points="247.866,196 247.027,196 248.393,191.802 249.216,191.802 		"/>
		<polygon fill="#F2F2F2" points="244.001,208.019 243.117,208.019 244.632,203.364 245.498,203.364 		"/>
		<polygon fill="#F2F2F2" points="248.174,200.361 248.636,198.889 251.185,198.889 250.739,200.361 		"/>
		<polygon fill="#F2F2F2" points="241.333,200.361 241.84,198.889 244.388,198.889 243.898,200.361 		"/>
		<path fill="#F2F2F2" d="M249.684,199.622c-1.018,3.3-3.432,6.046-5.365,6.046s-2.57-2.746-1.454-6.046
			c1.085-3.207,3.431-5.741,5.266-5.741S250.674,196.416,249.684,199.622z"/>
		<path fill="#CCCCCC" d="M248.406,199.622c-0.644,2.051-2.145,3.741-3.341,3.741s-1.603-1.69-0.921-3.741
			c0.671-2.015,2.144-3.622,3.303-3.622C248.605,196,249.039,197.607,248.406,199.622z"/>
	</g>
	<g>
		<polygon fill="#F2F2F2" points="263.647,160.074 254.489,160.074 258.741,147.848 267.304,147.848 		"/>
		<polygon fill="#666666" points="263.245,159.073 255.538,159.073 259.096,148.731 266.378,148.731 		"/>
		<polygon fill="#F2F2F2" points="262.198,151.437 261.526,151.437 262.406,148.731 263.068,148.731 		"/>
		<polygon fill="#F2F2F2" points="259.742,159.073 259.041,159.073 259.997,156.135 260.687,156.135 		"/>
		<polygon fill="#F2F2F2" points="262.666,154.226 262.961,153.287 264.998,153.287 264.713,154.226 		"/>
		<polygon fill="#F2F2F2" points="257.205,154.226 257.529,153.287 259.566,153.287 259.253,154.226 		"/>
		<path fill="#F2F2F2" d="M263.835,153.756c-0.648,2.099-2.429,3.837-3.964,3.837c-1.536,0-2.193-1.738-1.482-3.837
			c0.694-2.052,2.441-3.682,3.914-3.682S264.468,151.704,263.835,153.756z"/>
		<path fill="#666666" d="M262.814,153.756c-0.41,1.306-1.519,2.379-2.472,2.379c-0.952,0-1.367-1.073-0.932-2.379
			c0.429-1.288,1.524-2.319,2.452-2.319S263.218,152.468,262.814,153.756z"/>
	</g>
	<g>
		<polygon fill="#F2F2F2" points="259.444,174.123 249.603,174.123 254.489,160.074 263.647,160.074 		"/>
		<polygon fill="#666666" points="259.036,172.968 250.757,172.968 254.846,161.085 262.636,161.085 		"/>
		<polygon fill="#F2F2F2" points="258.098,164.184 257.378,164.184 258.387,161.085 259.095,161.085 		"/>
		<polygon fill="#F2F2F2" points="255.273,172.968 254.521,172.968 255.622,169.582 256.362,169.582 		"/>
		<polygon fill="#F2F2F2" points="258.532,167.387 258.871,166.308 261.054,166.308 260.727,167.387 		"/>
		<polygon fill="#F2F2F2" points="252.678,167.387 253.049,166.308 255.232,166.308 254.873,167.387 		"/>
		<path fill="#F2F2F2" d="M259.796,166.846c-0.745,2.414-2.699,4.415-4.347,4.415s-2.308-2.001-1.491-4.415
			c0.797-2.356,2.708-4.224,4.285-4.224C259.821,162.622,260.523,164.49,259.796,166.846z"/>
		<path fill="#666666" d="M258.702,166.846c-0.472,1.502-1.688,2.736-2.709,2.736s-1.439-1.234-0.939-2.736
			c0.492-1.479,1.691-2.662,2.685-2.662C258.732,164.184,259.166,165.367,258.702,166.846z"/>
	</g>
	<g>
		<polygon fill="#F2F2F2" points="254.563,190.438 243.929,190.438 249.603,174.123 259.444,174.123 		"/>
		<polygon fill="#666666" points="254.153,189.09 245.211,189.09 249.958,175.291 258.333,175.291 		"/>
		<polygon fill="#F2F2F2" points="253.373,178.878 252.598,178.878 253.765,175.291 254.526,175.291 		"/>
		<polygon fill="#F2F2F2" points="250.088,189.09 249.276,189.09 250.559,185.145 251.357,185.145 		"/>
		<polygon fill="#F2F2F2" points="253.755,182.593 254.149,181.34 256.501,181.34 256.121,182.593 		"/>
		<polygon fill="#F2F2F2" points="247.446,182.593 247.877,181.34 250.229,181.34 249.812,182.593 		"/>
		<path fill="#F2F2F2" d="M255.132,181.964c-0.865,2.805-3.027,5.135-4.806,5.135s-2.434-2.33-1.484-5.135
			c0.925-2.732,3.032-4.896,4.729-4.896C255.267,177.069,255.975,179.232,255.132,181.964z"/>
		<path fill="#666666" d="M253.953,181.964c-0.548,1.744-1.892,3.18-2.994,3.18c-1.102,0-1.518-1.436-0.937-3.18
			c0.571-1.716,1.894-3.087,2.964-3.087S254.492,180.248,253.953,181.964z"/>
	</g>
	<polygon fill="#E6E6E6" points="402.019,242.479 236.969,242.479 268.061,141.082 371.305,141.082 	"/>
	<polygon fill="#CCCCCC" points="270.384,242.479 262.283,242.479 279.633,161.085 284.143,167.387 	"/>
	<polygon fill="#CCCCCC" points="369.616,242.479 378.73,242.479 361.075,161.085 355.857,167.387 	"/>
	<polygon fill="#999999" points="356.222,167.387 284.326,167.387 279.633,161.085 360.898,161.085 	"/>
	<polygon fill="#808080" points="369.616,242.479 270.384,242.479 284.143,167.387 355.857,167.387 	"/>
	<g>
		<polygon fill="#666666" points="307.212,120.383 292.757,120.383 295.814,103.696 308.647,103.696 		"/>
		<polygon fill="#F2F2F2" points="298.036,108.295 295.482,108.295 296.129,104.691 298.616,104.691 		"/>
		<polygon fill="#F2F2F2" points="301.101,108.295 298.547,108.295 299.113,104.691 301.6,104.691 		"/>
		<polygon fill="#F2F2F2" points="304.676,108.295 302.122,108.295 302.594,104.691 305.081,104.691 		"/>
		<polygon fill="#F2F2F2" points="307.741,108.295 305.187,108.295 305.578,104.691 308.065,104.691 		"/>
		<polygon fill="#666666" points="305.432,141.082 288.964,141.082 290.385,133.323 306.099,133.323 		"/>
		<polygon fill="#F2F2F2" points="293.023,139.472 289.886,139.472 290.856,134.067 293.892,134.067 		"/>
		<polygon fill="#F2F2F2" points="296.787,139.472 293.65,139.472 294.499,134.067 297.535,134.067 		"/>
		<polygon fill="#F2F2F2" points="301.179,139.472 298.042,139.472 298.749,134.067 301.785,134.067 		"/>
		<polygon fill="#F2F2F2" points="304.943,139.472 301.806,139.472 302.392,134.067 305.428,134.067 		"/>
		<polygon fill="#666666" points="328.868,141.082 312.399,141.082 312.747,133.323 328.461,133.323 		"/>
		<polygon fill="#F2F2F2" points="316.236,139.472 313.099,139.472 313.321,134.067 316.357,134.067 		"/>
		<polygon fill="#F2F2F2" points="320,139.472 316.863,139.472 316.964,134.067 320,134.067 		"/>
		<polygon fill="#F2F2F2" points="324.392,139.472 321.255,139.472 321.214,134.067 324.25,134.067 		"/>
		<polygon fill="#F2F2F2" points="328.156,139.472 325.019,139.472 324.857,134.067 327.893,134.067 		"/>
		<polygon fill="#666666" points="351.036,141.082 334.568,141.082 333.901,133.323 349.615,133.323 		"/>
		<polygon fill="#F2F2F2" points="338.194,139.472 335.057,139.472 334.572,134.067 337.608,134.067 		"/>
		<polygon fill="#F2F2F2" points="341.958,139.472 338.821,139.472 338.215,134.067 341.251,134.067 		"/>
		<polygon fill="#F2F2F2" points="346.35,139.472 343.213,139.472 342.465,134.067 345.501,134.067 		"/>
		<polygon fill="#F2F2F2" points="350.114,139.472 346.977,139.472 346.108,134.067 349.144,134.067 		"/>
		<polygon fill="#F2F2F2" points="297.243,113.226 294.597,113.226 295.291,109.361 297.865,109.361 		"/>
		<polygon fill="#F2F2F2" points="300.419,113.226 297.772,113.226 298.38,109.361 300.953,109.361 		"/>
		<polygon fill="#F2F2F2" points="304.123,113.226 301.477,113.226 301.983,109.361 304.557,109.361 		"/>
		<polygon fill="#F2F2F2" points="307.299,113.226 304.652,113.226 305.072,109.361 307.645,109.361 		"/>
		<polygon fill="#F2F2F2" points="296.391,118.527 293.646,118.527 294.392,114.371 297.059,114.371 		"/>
		<polygon fill="#F2F2F2" points="299.685,118.527 296.94,118.527 297.593,114.371 300.26,114.371 		"/>
		<polygon fill="#F2F2F2" points="303.529,118.527 300.783,118.527 301.327,114.371 303.995,114.371 		"/>
		<polygon fill="#F2F2F2" points="306.823,118.527 304.078,118.527 304.528,114.371 307.196,114.371 		"/>
		<polygon fill="#999999" points="307.716,121.012 292.083,121.012 292.317,119.759 307.82,119.759 		"/>
		<polygon fill="#666666" points="327.784,120.383 313.328,120.383 314.077,103.696 326.91,103.696 		"/>
		<polygon fill="#F2F2F2" points="316.935,108.295 314.381,108.295 314.53,104.691 317.016,104.691 		"/>
		<polygon fill="#F2F2F2" points="320,108.295 317.446,108.295 317.513,104.691 320,104.691 		"/>
		<polygon fill="#F2F2F2" points="323.576,108.295 321.022,108.295 320.995,104.691 323.481,104.691 		"/>
		<polygon fill="#F2F2F2" points="326.64,108.295 324.086,108.295 323.978,104.691 326.465,104.691 		"/>
		<polygon fill="#F2F2F2" points="316.825,113.226 314.178,113.226 314.338,109.361 316.911,109.361 		"/>
		<polygon fill="#F2F2F2" points="320,113.226 317.354,113.226 317.426,109.361 320,109.361 		"/>
		<polygon fill="#F2F2F2" points="323.705,113.226 321.058,113.226 321.03,109.361 323.603,109.361 		"/>
		<polygon fill="#F2F2F2" points="326.88,113.226 324.234,113.226 324.118,109.361 326.692,109.361 		"/>
		<polygon fill="#F2F2F2" points="316.706,118.527 313.96,118.527 314.131,114.371 316.799,114.371 		"/>
		<polygon fill="#F2F2F2" points="320,118.527 317.255,118.527 317.332,114.371 320,114.371 		"/>
		<polygon fill="#F2F2F2" points="323.843,118.527 321.098,118.527 321.067,114.371 323.735,114.371 		"/>
		<polygon fill="#F2F2F2" points="327.138,118.527 324.392,118.527 324.268,114.371 326.936,114.371 		"/>
		<polygon fill="#999999" points="328.375,121.012 312.742,121.012 312.802,119.759 328.305,119.759 		"/>
		<polygon fill="#666666" points="347.243,120.383 332.788,120.383 331.353,103.696 344.186,103.696 		"/>
		<polygon fill="#F2F2F2" points="334.813,108.295 332.259,108.295 331.935,104.691 334.422,104.691 		"/>
		<polygon fill="#F2F2F2" points="337.878,108.295 335.324,108.295 334.919,104.691 337.406,104.691 		"/>
		<polygon fill="#F2F2F2" points="341.453,108.295 338.899,108.295 338.4,104.691 340.887,104.691 		"/>
		<polygon fill="#F2F2F2" points="344.518,108.295 341.964,108.295 341.384,104.691 343.871,104.691 		"/>
		<polygon fill="#F2F2F2" points="335.348,113.226 332.701,113.226 332.355,109.361 334.928,109.361 		"/>
		<polygon fill="#F2F2F2" points="338.523,113.226 335.877,113.226 335.443,109.361 338.017,109.361 		"/>
		<polygon fill="#F2F2F2" points="342.228,113.226 339.581,113.226 339.047,109.361 341.62,109.361 		"/>
		<polygon fill="#F2F2F2" points="345.403,113.226 342.757,113.226 342.135,109.361 344.709,109.361 		"/>
		<polygon fill="#F2F2F2" points="335.922,118.527 333.177,118.527 332.804,114.371 335.472,114.371 		"/>
		<polygon fill="#F2F2F2" points="339.217,118.527 336.471,118.527 336.005,114.371 338.673,114.371 		"/>
		<polygon fill="#F2F2F2" points="343.06,118.527 340.315,118.527 339.74,114.371 342.407,114.371 		"/>
		<polygon fill="#F2F2F2" points="346.354,118.527 343.609,118.527 342.941,114.371 345.608,114.371 		"/>
		<polygon fill="#999999" points="347.917,121.012 332.284,121.012 332.18,119.759 347.683,119.759 		"/>
		<polygon fill="#999999" points="320.758,63 320,63 320,100.798 320.966,100.798 		"/>
		<polygon fill="#666666" points="300.585,197.435 278.638,197.435 282.695,175.291 302.49,175.291 		"/>
		<polygon fill="#808080" points="285.679,185.145 281.688,185.145 283.244,176.473 287.073,176.473 		"/>
		<polygon fill="#808080" points="283.933,196 279.739,196 281.455,186.444 285.47,186.444 		"/>
		<polygon fill="#808080" points="300.844,185.145 296.853,185.145 297.793,176.473 301.622,176.473 		"/>
		<polygon fill="#808080" points="299.87,196 295.676,196 296.712,186.444 300.727,186.444 		"/>
		<polygon fill="#808080" points="296.199,183.861 286.678,183.861 287.839,176.473 297.028,176.473 		"/>
		<polygon fill="#808080" points="294.837,196 284.772,196 285.857,189.09 295.612,189.09 		"/>
		<polygon fill="#808080" points="295.762,187.759 286.066,187.759 286.477,185.145 296.055,185.145 		"/>
		<polygon fill="#808080" points="283.547,242.479 270.384,242.479 278.638,197.435 289.611,197.435 		"/>
		<polygon fill="#999999" points="282.668,234.414 274.809,234.414 280.41,201.853 287.295,201.853 		"/>
		<polygon fill="#808080" points="296.711,242.479 283.547,242.479 289.611,197.435 300.585,197.435 		"/>
		<polygon fill="#999999" points="294.457,234.414 286.598,234.414 290.738,201.853 297.623,201.853 		"/>
		<polygon fill="#666666" points="330.974,197.435 309.026,197.435 310.103,175.291 329.897,175.291 		"/>
		<polygon fill="#808080" points="314.413,185.145 310.422,185.145 310.811,176.473 314.64,176.473 		"/>
		<polygon fill="#808080" points="314.129,196 309.935,196 310.364,186.444 314.379,186.444 		"/>
		<polygon fill="#808080" points="329.578,185.145 325.587,185.145 325.36,176.473 329.189,176.473 		"/>
		<polygon fill="#808080" points="330.065,196 325.871,196 325.621,186.444 329.636,186.444 		"/>
		<polygon fill="#808080" points="324.76,183.861 315.24,183.861 315.406,176.473 324.594,176.473 		"/>
		<polygon fill="#808080" points="325.033,196 314.967,196 315.122,189.09 324.878,189.09 		"/>
		<polygon fill="#808080" points="324.848,187.759 315.152,187.759 315.211,185.145 324.789,185.145 		"/>
		<polygon fill="#808080" points="320,242.479 306.836,242.479 309.026,197.435 320,197.435 		"/>
		<polygon fill="#999999" points="318.035,234.414 310.176,234.414 311.393,201.853 318.279,201.853 		"/>
		<polygon fill="#808080" points="333.164,242.479 320,242.479 320,197.435 330.974,197.435 		"/>
		<polygon fill="#999999" points="329.824,234.414 321.965,234.414 321.721,201.853 328.607,201.853 		"/>
		<polygon fill="#666666" points="361.362,197.435 339.415,197.435 337.51,175.291 357.305,175.291 		"/>
		<polygon fill="#808080" points="343.147,185.145 339.156,185.145 338.378,176.473 342.207,176.473 		"/>
		<polygon fill="#808080" points="344.324,196 340.13,196 339.273,186.444 343.288,186.444 		"/>
		<polygon fill="#808080" points="358.312,185.145 354.321,185.145 352.927,176.473 356.756,176.473 		"/>
		<polygon fill="#808080" points="360.261,196 356.067,196 354.53,186.444 358.545,186.444 		"/>
		<polygon fill="#808080" points="353.322,183.861 343.801,183.861 342.972,176.473 352.161,176.473 		"/>
		<polygon fill="#808080" points="355.228,196 345.163,196 344.388,189.09 354.143,189.09 		"/>
		<polygon fill="#808080" points="353.934,187.759 344.238,187.759 343.945,185.145 353.523,185.145 		"/>
		<polygon fill="#808080" points="356.453,242.479 343.289,242.479 339.415,197.435 350.389,197.435 		"/>
		<polygon fill="#999999" points="353.402,234.414 345.543,234.414 342.377,201.853 349.262,201.853 		"/>
		<polygon fill="#808080" points="369.616,242.479 356.453,242.479 350.389,197.435 361.362,197.435 		"/>
		<polygon fill="#999999" points="365.191,234.414 357.332,234.414 352.705,201.853 359.59,201.853 		"/>
		<polygon fill="#B3B3B3" points="320,221.399 316.265,221.399 316.417,211.228 320,211.228 		"/>
		<polygon fill="#B3B3B3" points="323.735,221.399 320,221.399 320,211.228 323.583,211.228 		"/>
		<g>
			<polygon fill="#666666" points="230.367,153.287 221.54,153.287 234.327,129.704 242.008,129.704 			"/>
			<polygon fill="#F2F2F2" points="234.64,137.112 231.547,137.112 234.745,131.132 237.726,131.132 			"/>
			<polygon fill="#F2F2F2" points="238.351,137.112 235.259,137.112 238.322,131.132 241.303,131.132 			"/>
			<polygon fill="#F2F2F2" points="230.88,144.399 227.651,144.399 231.131,137.891 234.238,137.891 			"/>
			<polygon fill="#F2F2F2" points="234.755,144.399 231.526,144.399 234.86,137.891 237.967,137.891 			"/>
			<polygon fill="#F2F2F2" points="226.773,152.357 223.395,152.357 227.196,145.248 230.441,145.248 			"/>
			<polygon fill="#F2F2F2" points="230.826,152.357 227.448,152.357 231.09,145.248 234.335,145.248 			"/>
		</g>
		<g>
			<polygon fill="#666666" points="245.306,153.287 236.478,153.287 247.326,129.704 255.007,129.704 			"/>
			<polygon fill="#F2F2F2" points="248.248,137.112 245.156,137.112 247.861,131.132 250.842,131.132 			"/>
			<polygon fill="#F2F2F2" points="251.96,137.112 248.867,137.112 251.438,131.132 254.419,131.132 			"/>
			<polygon fill="#F2F2F2" points="245.087,144.399 241.858,144.399 244.803,137.891 247.91,137.891 			"/>
			<polygon fill="#F2F2F2" points="248.962,144.399 245.733,144.399 248.532,137.891 251.639,137.891 			"/>
			<polygon fill="#F2F2F2" points="241.635,152.357 238.257,152.357 241.474,145.248 244.719,145.248 			"/>
			<polygon fill="#F2F2F2" points="245.688,152.357 242.311,152.357 245.368,145.248 248.613,145.248 			"/>
		</g>
		<g>
			<polygon fill="#666666" points="215.428,153.287 206.601,153.287 221.328,129.704 229.009,129.704 			"/>
			<polygon fill="#F2F2F2" points="221.032,137.112 217.939,137.112 221.629,131.132 224.61,131.132 			"/>
			<polygon fill="#F2F2F2" points="224.743,137.112 221.651,137.112 225.206,131.132 228.187,131.132 			"/>
			<polygon fill="#F2F2F2" points="216.672,144.399 213.443,144.399 217.459,137.891 220.566,137.891 			"/>
			<polygon fill="#F2F2F2" points="220.547,144.399 217.318,144.399 221.187,137.891 224.295,137.891 			"/>
			<polygon fill="#F2F2F2" points="211.91,152.357 208.533,152.357 212.919,145.248 216.164,145.248 			"/>
			<polygon fill="#F2F2F2" points="215.964,152.357 212.586,152.357 216.813,145.248 220.058,145.248 			"/>
		</g>
		<g>
			<polygon fill="#666666" points="204.126,206.447 192.714,206.447 213.302,168.478 222.868,168.478 			"/>
			<polygon fill="#F2F2F2" points="212.455,180.101 208.558,180.101 213.587,170.698 217.308,170.698 			"/>
			<polygon fill="#F2F2F2" points="217.131,180.101 213.234,180.101 218.052,170.698 221.773,170.698 			"/>
			<polygon fill="#F2F2F2" points="206.417,191.802 202.301,191.802 207.896,181.34 211.816,181.34 			"/>
			<polygon fill="#F2F2F2" points="211.355,191.802 207.24,191.802 212.6,181.34 216.52,181.34 			"/>
			<polygon fill="#F2F2F2" points="199.66,204.895 195.3,204.895 201.562,193.184 205.704,193.184 			"/>
			<polygon fill="#F2F2F2" points="204.892,204.895 200.532,204.895 206.532,193.184 210.673,193.184 			"/>
		</g>
		<g>
			<polygon fill="#666666" points="223.438,206.447 212.027,206.447 229.491,168.478 239.057,168.478 			"/>
			<polygon fill="#F2F2F2" points="229.6,180.101 225.703,180.101 229.958,170.698 233.679,170.698 			"/>
			<polygon fill="#F2F2F2" points="234.276,180.101 230.379,180.101 234.423,170.698 238.144,170.698 			"/>
			<polygon fill="#F2F2F2" points="224.524,191.802 220.409,191.802 225.143,181.34 229.063,181.34 			"/>
			<polygon fill="#F2F2F2" points="229.463,191.802 225.347,191.802 229.847,181.34 233.766,181.34 			"/>
			<polygon fill="#F2F2F2" points="218.845,204.895 214.484,204.895 219.784,193.184 223.925,193.184 			"/>
			<polygon fill="#F2F2F2" points="224.077,204.895 219.717,204.895 224.753,193.184 228.894,193.184 			"/>
		</g>
		<g>
			<polygon fill="#666666" points="184.814,206.447 173.402,206.447 197.114,168.478 206.68,168.478 			"/>
			<polygon fill="#F2F2F2" points="195.31,180.101 191.413,180.101 197.216,170.698 200.936,170.698 			"/>
			<polygon fill="#F2F2F2" points="199.986,180.101 196.089,180.101 201.681,170.698 205.401,170.698 			"/>
			<polygon fill="#F2F2F2" points="188.309,191.802 184.194,191.802 190.649,181.34 194.569,181.34 			"/>
			<polygon fill="#F2F2F2" points="193.248,191.802 189.132,191.802 195.353,181.34 199.273,181.34 			"/>
			<polygon fill="#F2F2F2" points="180.475,204.895 176.115,204.895 183.341,193.184 187.482,193.184 			"/>
			<polygon fill="#F2F2F2" points="185.707,204.895 181.347,204.895 188.311,193.184 192.452,193.184 			"/>
		</g>
		<g>
			<polygon fill="#666666" points="408.954,153.287 417.781,153.287 405.082,129.704 397.401,129.704 			"/>
			<polygon fill="#F2F2F2" points="404.741,137.112 407.834,137.112 404.659,131.132 401.678,131.132 			"/>
			<polygon fill="#F2F2F2" points="401.03,137.112 404.123,137.112 401.082,131.132 398.101,131.132 			"/>
			<polygon fill="#F2F2F2" points="408.474,144.399 411.703,144.399 408.248,137.891 405.14,137.891 			"/>
			<polygon fill="#F2F2F2" points="404.6,144.399 407.829,144.399 404.519,137.891 401.412,137.891 			"/>
			<polygon fill="#F2F2F2" points="412.552,152.357 415.93,152.357 412.155,145.248 408.91,145.248 			"/>
			<polygon fill="#F2F2F2" points="408.498,152.357 411.876,152.357 408.261,145.248 405.016,145.248 			"/>
		</g>
		<g>
			<polygon fill="#666666" points="394.015,153.287 402.843,153.287 392.083,129.704 384.402,129.704 			"/>
			<polygon fill="#F2F2F2" points="391.133,137.112 394.226,137.112 391.543,131.132 388.562,131.132 			"/>
			<polygon fill="#F2F2F2" points="387.422,137.112 390.515,137.112 387.965,131.132 384.985,131.132 			"/>
			<polygon fill="#F2F2F2" points="394.267,144.399 397.496,144.399 394.576,137.891 391.468,137.891 			"/>
			<polygon fill="#F2F2F2" points="390.392,144.399 393.621,144.399 390.847,137.891 387.739,137.891 			"/>
			<polygon fill="#F2F2F2" points="397.689,152.357 401.067,152.357 397.877,145.248 394.632,145.248 			"/>
			<polygon fill="#F2F2F2" points="393.636,152.357 397.014,152.357 393.983,145.248 390.738,145.248 			"/>
		</g>
		<g>
			<polygon fill="#666666" points="423.893,153.287 432.72,153.287 418.081,129.704 410.4,129.704 			"/>
			<polygon fill="#F2F2F2" points="418.349,137.112 421.442,137.112 417.775,131.132 414.794,131.132 			"/>
			<polygon fill="#F2F2F2" points="414.638,137.112 417.731,137.112 414.198,131.132 411.217,131.132 			"/>
			<polygon fill="#F2F2F2" points="422.682,144.399 425.911,144.399 421.92,137.891 418.813,137.891 			"/>
			<polygon fill="#F2F2F2" points="418.807,144.399 422.036,144.399 418.191,137.891 415.084,137.891 			"/>
			<polygon fill="#F2F2F2" points="427.414,152.357 430.792,152.357 426.432,145.248 423.187,145.248 			"/>
			<polygon fill="#F2F2F2" points="423.361,152.357 426.739,152.357 422.538,145.248 419.293,145.248 			"/>
		</g>
		<g>
			<polygon fill="#666666" points="434.996,206.447 446.408,206.447 425.962,168.478 416.396,168.478 			"/>
			<polygon fill="#F2F2F2" points="426.766,180.101 430.662,180.101 425.669,170.698 421.948,170.698 			"/>
			<polygon fill="#F2F2F2" points="422.09,180.101 425.986,180.101 421.204,170.698 417.483,170.698 			"/>
			<polygon fill="#F2F2F2" points="432.76,191.802 436.876,191.802 431.32,181.34 427.4,181.34 			"/>
			<polygon fill="#F2F2F2" points="427.822,191.802 431.937,191.802 426.616,181.34 422.697,181.34 			"/>
			<polygon fill="#F2F2F2" points="439.468,204.895 443.828,204.895 437.609,193.184 433.468,193.184 			"/>
			<polygon fill="#F2F2F2" points="434.236,204.895 438.596,204.895 432.64,193.184 428.499,193.184 			"/>
		</g>
		<g>
			<polygon fill="#666666" points="415.684,206.447 427.095,206.447 409.773,168.478 400.207,168.478 			"/>
			<polygon fill="#F2F2F2" points="409.621,180.101 413.517,180.101 409.298,170.698 405.577,170.698 			"/>
			<polygon fill="#F2F2F2" points="404.945,180.101 408.842,180.101 404.833,170.698 401.112,170.698 			"/>
			<polygon fill="#F2F2F2" points="414.653,191.802 418.768,191.802 414.073,181.34 410.153,181.34 			"/>
			<polygon fill="#F2F2F2" points="409.714,191.802 413.83,191.802 409.369,181.34 405.45,181.34 			"/>
			<polygon fill="#F2F2F2" points="420.283,204.895 424.644,204.895 419.388,193.184 415.247,193.184 			"/>
			<polygon fill="#F2F2F2" points="415.051,204.895 419.411,204.895 414.419,193.184 410.278,193.184 			"/>
		</g>
		<g>
			<polygon fill="#666666" points="454.308,206.447 465.72,206.447 442.151,168.478 432.585,168.478 			"/>
			<polygon fill="#F2F2F2" points="443.911,180.101 447.807,180.101 442.04,170.698 438.319,170.698 			"/>
			<polygon fill="#F2F2F2" points="439.235,180.101 443.131,180.101 437.575,170.698 433.855,170.698 			"/>
			<polygon fill="#F2F2F2" points="450.868,191.802 454.983,191.802 448.567,181.34 444.647,181.34 			"/>
			<polygon fill="#F2F2F2" points="445.929,191.802 450.045,191.802 443.863,181.34 439.943,181.34 			"/>
			<polygon fill="#F2F2F2" points="458.653,204.895 463.013,204.895 455.831,193.184 451.689,193.184 			"/>
			<polygon fill="#F2F2F2" points="453.421,204.895 457.781,204.895 450.861,193.184 446.72,193.184 			"/>
		</g>
	</g>
	<polygon fill="#B3B3B3" points="632.594,320 7.406,320 19.281,306.769 620.719,306.769 	"/>
	<polygon fill="#B3B3B3" points="590.52,300.523 48.25,300.523 55.642,291.579 583.162,291.579 	"/>
	<polygon fill="#CCCCCC" points="620.719,306.769 19.281,306.769 48.865,300.523 591.135,300.523 	"/>
	<polygon fill="#B3B3B3" points="554.977,285.882 83.848,285.882 89.992,277.707 548.863,277.707 	"/>
	<polygon fill="#CCCCCC" points="583.76,291.579 56.24,291.579 83.848,285.882 555.271,285.882 	"/>
	<polygon fill="#B3B3B3" points="525.839,272.489 113.036,272.489 118.197,264.988 520.706,264.988 	"/>
	<polygon fill="#CCCCCC" points="549.149,277.707 89.992,277.707 113.317,272.489 525.839,272.489 	"/>
	<polygon fill="#B3B3B3" points="502.32,260.192 136.601,260.192 140.992,253.285 497.955,253.285 	"/>
	<polygon fill="#CCCCCC" points="520.706,264.988 118.472,264.988 137.141,260.192 502.05,260.192 	"/>
	<polygon fill="#B3B3B3" points="479.612,248.86 159.352,248.86 163.05,242.479 475.937,242.479 	"/>
	<polygon fill="#CCCCCC" points="497.691,253.285 141.519,253.285 159.87,248.86 479.353,248.86 	"/>
	<g>
		<path d="M302.767,151.955c0.411-0.117,0.842-0.234,1.272-0.364l0.009,0.117c-0.57,0.601-1.517,1.496-2.923,2.639
			c-0.068,0.189-0.19,0.336-0.321,0.39l-0.404-2.179c0.224-0.039,0.588-0.131,1.02-0.236l0.411-3.995h-0.813l-0.016-0.2h0.85
			l0.335-3.261l1.604,0.205c-0.034,0.157-0.134,0.253-0.396,0.302l-0.24,2.505l0.491-0.966l0.762,1.241
			c-0.087,0.137-0.231,0.175-0.473,0.175h-0.823L302.767,151.955z M309.82,150.301c-0.075,0.141-0.219,0.179-0.465,0.179h-3.257
			c-0.17,0.476-0.368,0.928-0.6,1.344h2.308l0.55-0.83l1.162,1.247c-0.063,0.105-0.194,0.21-0.378,0.248
			c-0.403,3.627-0.83,4.504-2.383,4.546c0.085-0.92,0.054-1.437-0.608-1.708c-0.547,0.652-1.178,1.213-1.914,1.694l-0.071-0.206
			c1.167-1.23,1.97-2.951,2.424-4.783c-0.743,1.819-2.024,3.282-3.635,4.303l-0.078-0.205c1.08-1.072,1.953-2.584,2.488-4.071
			h-0.009c-0.701,1.169-1.671,2.126-2.861,2.852l-0.069-0.189c1.049-1.095,1.802-2.662,2.272-4.241h-1.127l-0.019-0.205h4.397
			l0.651-1.005c-0.491,0.316-0.793,0.316-1.142,0.316l0.046-0.658h-1.642l-0.016,0.202c-0.002,0.025-0.248,0.621-1.332,0.621
			l0.422-4.852l1.241,0.665h1.473l0.525-0.809l1.194,1.162c-0.061,0.086-0.178,0.195-0.356,0.244l-0.182,2.894
			c-0.002,0.025-0.042,0.076-0.112,0.126L309.82,150.301z M307.728,145.76h-1.613l-0.108,1.348h1.625L307.728,145.76z
			 M305.878,148.728h1.64l0.1-1.422h-1.627L305.878,148.728z M307.214,155.113c0.218-0.216,0.439-1.18,0.664-3.08
			c-0.36,1.209-0.897,2.259-1.611,3.148c0.212,0.013,0.523,0.013,0.669,0.013C307.073,155.194,307.14,155.194,307.214,155.113z"/>
	</g>
	<g>
		<path d="M332.768,146.382l1.008,0.936c-0.055,0.137-0.182,0.174-0.415,0.174h-3.174l-0.058-0.198h2.194L332.768,146.382z
			 M332.865,151.629l1.26,1.125c-0.041,0.092-0.149,0.183-0.318,0.236l0.229,3.004c0.001,0.014-0.278,0.466-1.178,0.466
			l-0.067-0.968h-0.603l0.062,0.94c0.002,0.028-0.137,0.605-1.157,0.605l-0.317-5.303l1.245,0.666h0.469L332.865,151.629z
			 M332.571,148.039l0.985,0.915c-0.055,0.139-0.193,0.177-0.428,0.177h-2.443l-0.059-0.202h1.511L332.571,148.039z
			 M330.787,150.802l-0.06-0.206h1.525l0.437-0.907l0.995,0.933c-0.055,0.141-0.195,0.179-0.432,0.179H330.787z M333.248,145.76
			c-0.055,0.133-0.191,0.17-0.421,0.17h-2.288l-0.058-0.195h1.308l0.452-0.907L333.248,145.76z M332.173,155.275h0.603l-0.186-2.666
			h-0.594L332.173,155.275z M333.645,146.849l-0.061-0.197h1.251c-0.097-0.049-0.188-0.135-0.272-0.258
			c-0.025-0.525-0.225-1.155-0.512-1.518l0.059-0.06c1.105,0.156,1.518,0.664,1.558,1.114c0.027,0.305-0.123,0.587-0.334,0.722
			h1.186c0.059-0.551,0.077-1.329,0.082-1.847l1.665,0.579c-0.022,0.145-0.098,0.206-0.339,0.194
			c-0.27,0.328-0.718,0.743-1.13,1.074h0.62l0.438-0.88l1.093,0.904c-0.049,0.148-0.176,0.173-0.409,0.173h-1.864l0.116,1.214h0.467
			l0.427-0.857l1.051,0.883c-0.05,0.15-0.187,0.174-0.412,0.174h-1.515l0.125,1.311h0.782l0.458-0.947l1.145,0.973
			c-0.049,0.153-0.178,0.177-0.424,0.177h-5.29l-0.053-0.203h2.11l-0.115-1.311h-1.477l-0.063-0.2h1.522l-0.107-1.214H333.645z
			 M338.378,151.5c-0.025-0.428-0.186-0.891-0.421-1.161l0.059-0.076c0.994,0.102,1.374,0.552,1.418,0.964
			c0.028,0.259-0.079,0.505-0.245,0.649l0.42,0.353c-0.05,0.157-0.181,0.182-0.43,0.182h-1.215c0.06,0.315,0.128,0.619,0.204,0.896
			c0.069-0.264,0.119-0.528,0.16-0.791l1.307,0.751c-0.032,0.145-0.11,0.226-0.336,0.185c-0.148,0.425-0.355,0.852-0.603,1.255
			c0.138,0.215,0.331,0.485,0.409,0.485c0.117,0,0.343-1.155,0.381-1.434l0.059,0.013l0.076,1.706
			c0.238,0.407,0.355,0.666,0.377,0.872c0.027,0.246-0.122,0.686-0.535,0.686c-0.579,0-1.174-0.659-1.557-1.286
			c-0.399,0.422-0.864,0.778-1.399,1.039l-0.084-0.179c0.439-0.438,0.807-0.997,1.11-1.592c-0.187-0.431-0.338-0.913-0.472-1.405
			c-0.228,0.133-0.502,0.306-0.831,0.506l0.103,1.156c0.09,1.006-0.02,1.651-1.177,1.775c-0.076-0.933-0.167-1.328-0.789-1.423
			l-0.014-0.177h0.739c0.068,0,0.083-0.054,0.072-0.189l-0.045-0.539l-0.456,0.241c-0.044,0.176-0.153,0.27-0.258,0.298
			l-0.516-1.662c0.25,0,0.654-0.014,1.133-0.04l-0.095-1.148h-1.091l-0.064-0.209h1.137l-0.069-0.833
			c-0.377,0.039-0.757,0.052-1.119,0.052l-0.043-0.18c0.762-0.337,1.695-0.965,2.147-1.413l0.687,0.806l-0.11-0.78l1.564,0.165
			c0.008,0.166-0.05,0.256-0.311,0.294c0.073,0.642,0.156,1.29,0.263,1.888h0.125L338.378,151.5z M336.759,152.203
			c-0.059-0.326-0.108-0.651-0.157-0.975c-0.069-0.026-0.148-0.052-0.238-0.103c-0.121,0.026-0.251,0.065-0.391,0.09l0.088,0.988
			H336.759z M336.079,152.412l0.096,1.082c0.278-0.014,0.555-0.04,0.841-0.067c-0.079-0.331-0.158-0.66-0.22-1.015H336.079z"/>
	</g>
	<path fill="#FF0000" d="M330.75,57.625c0,0,1,2.875,0,6.25s-3,4.625-4.625,4.375s-3,0.875-3.375,1.625s-0.875,1.625-1.25,1.875
		s-0.694,0-0.694,0L320.758,63c0,0,2.398,1,4.945,0c2.547-1,4.547-5.5,4.547-5.5"/>
	<path fill="#0000FF" d="M320.758,63l0.018,3.292c0,0,0.603-0.429,1.541-0.804s1.559-0.363,1.559-0.363s-0.008-0.616-0.083-1.021
		c-0.076-0.404-0.232-0.667-0.232-0.667s-0.862,0.02-1.591-0.093S320.758,63,320.758,63z"/>
	<g>
		<g>
			<polygon fill="#E2220E" points="360,320 280,320 308.117,242.479 331.883,242.479 			"/>
		</g>
		<g>
			<polygon fill="#C1272D" points="280.5,320 279.5,320 307.969,242.479 308.266,242.479 			"/>
		</g>
		<g>
			<polygon fill="#C1272D" points="360.5,320 359.5,320 331.734,242.479 332.031,242.479 			"/>
		</g>
	</g>
</g>
<g id="secondary">
</g>
</svg>
