<?xml version="1.0" encoding="utf-8"?>
<!-- Generator: Adobe Illustrator 17.0.0, SVG Export Plug-In . SVG Version: 6.00 Build 0)  -->
<!DOCTYPE svg PUBLIC "-//W3C//DTD SVG 1.1//EN" "http://www.w3.org/Graphics/SVG/1.1/DTD/svg11.dtd">
<svg version="1.1" xmlns="http://www.w3.org/2000/svg" xmlns:xlink="http://www.w3.org/1999/xlink" x="0px" y="0px" width="320px"
	 height="320px" viewBox="0 0 320 320" enable-background="new 0 0 320 320" xml:space="preserve">
<g id="backup" display="none">
	
		<text transform="matrix(1 0 0 1 160.1133 55.6123)" display="inline" fill="#FFFFFF" font-family="'KozMinPro-Heavy-83pv-RKSJ-H'" font-size="62.5997" glyph-orientation-vertical="0" writing-mode="tb">監督條例</text>
	<g display="inline">
		
			<text transform="matrix(1 0 0 1 53.58 82.4736)" fill="#FFFFFF" font-family="'KozMinPro-Heavy-83pv-RKSJ-H'" font-size="78.4399" glyph-orientation-vertical="0" writing-mode="tb">服貿</text>
	</g>
	
		<text transform="matrix(1 0 0 1 267.6474 55.6123)" display="inline" fill="#FFFFFF" font-family="'KozMinPro-Heavy-83pv-RKSJ-H'" font-size="62.5997" glyph-orientation-vertical="0" writing-mode="tb">其他事務</text>
	
		<text transform="matrix(1 0 0 1 124.3428 44.7636)" display="inline" fill="#FFFFFF" font-family="'KozMinPro-Heavy-83pv-RKSJ-H'" font-size="35.7716">兩岸</text>
	
		<text transform="matrix(1 0 0 1 231.876 44.7636)" display="inline" fill="#FFFFFF" font-family="'KozMinPro-Heavy-83pv-RKSJ-H'" font-size="35.7716">兩岸</text>
</g>
<g id="backgrounds">
	<rect fill="#4D4D4D" width="106" height="320"/>
	<rect x="214" fill="#4D4D4D" width="106" height="320"/>
	<rect x="106" fill="#4D4D4D" width="108" height="320"/>
</g>
<g id="stripes">
	<polygon fill="#ED1C24" points="214,67.143 106,20.143 106,-8.857 214,38.143 	"/>
	<polygon fill="#ED1C24" points="214,118.286 106,71.286 106,42.286 214,89.286 	"/>
	<polygon fill="#ED1C24" points="214,169.429 106,122.429 106,93.429 214,140.429 	"/>
	<polygon fill="#ED1C24" points="214,220.571 106,173.571 106,144.571 214,191.571 	"/>
	<polygon fill="#ED1C24" points="214,271.714 106,224.714 106,195.714 214,242.714 	"/>
	<polygon fill="#ED1C24" points="214,16 106,-31 106,-60 214,-13 	"/>
	<polygon fill="#ED1C24" points="214,322.857 106,275.857 106,246.857 214,293.857 	"/>
	<polygon fill="#ED1C24" points="214.559,373.194 105.872,327.803 105.441,298.806 214.128,344.197 	"/>
</g>
<g id="main">
	<g>
		<path fill="#FFFFFF" d="M184.435,107.758l5.384,5.134c-0.439,0.689-1.252,0.877-2.943,0.877h-55.969l-0.251-1.002h8.326V92.232
			c-2.003,1.002-3.944,1.002-6.385,1.002V58.676l9.015,3.318h10.142l3.694-4.696l6.948,4.821c-0.438,0.752-1.377,0.876-2.942,0.876
			h-8.452v7.701h1.002l2.316-3.005l6.698,4.445c-0.251,0.314-0.752,0.689-1.565,0.814v7.325c0,0.125-1.878,1.753-7.012,1.753v-1.69
			h-1.378v7.638h0.94l3.819-4.758l7.012,4.883c-0.439,0.752-1.378,0.877-2.943,0.877h-19.158v1.878c0,0.25-0.501,0.751-1.377,1.19
			l8.577,3.255h24.541l3.569-4.57l8.64,5.822c-0.439,0.626-1.127,1.001-2.818,1.314v14.274L184.435,107.758z M143.805,62.995h-3.068
			v7.701h3.068V62.995z M152.444,71.697h-11.708v7.638h11.708V71.697z M143.868,87.975v-7.638h-3.131v7.638H143.868z
			 M147.374,96.301v16.465h3.13V96.301H147.374z M161.773,96.301h-3.131v16.465h3.131V96.301z M169.911,69.506
			c-2.128,4.258-4.945,8.202-8.451,10.893l-0.813-0.438c2.441-5.573,3.756-14.525,4.068-21.849l10.643,1.753
			c-0.188,0.813-0.814,1.252-2.254,1.377c-0.689,2.379-1.565,4.821-2.693,7.263h7.326l4.194-5.697l7.826,5.822
			c-0.501,0.688-1.44,0.876-3.068,0.876H169.911z M177.361,83.029l4.007-5.572l7.387,5.697c-0.501,0.689-1.439,0.877-3.067,0.877
			h-20.222l-0.25-1.002H177.361z M173.041,96.301h-3.131v16.465h3.131V96.301z"/>
		<path fill="#FFFFFF" d="M170.099,153.078l3.255-4.257l8.64,6.072c-0.375,0.438-1.064,0.94-2.191,1.19v20.722
			c0,0.063-2.379,2.066-9.078,2.066v-3.881h-21.286v0.939c0,0.251-1.252,3.319-8.889,3.319v-29.8l1.127,0.438
			c-0.125-2.505-0.314-4.069-3.319-4.57v-0.752h3.443c0.251,0,0.376-0.25,0.376-0.876v-2.943h-0.626
			c-2.943,4.132-6.761,7.262-10.642,9.078l-0.752-0.563c1.94-2.88,3.881-7.888,5.071-12.896l6.949,2.629v-3.819h-11.394
			l-0.251-1.002h11.645V119.71l10.642,1.001c-0.125,0.876-0.689,1.315-2.504,1.628v4.633h1.127l3.506-4.821l6.636,4.946
			c-0.501,0.689-1.44,0.876-2.943,0.876h-8.326v6.198h3.505l3.82-5.008l7.012,5.134c-0.439,0.752-1.315,0.877-2.943,0.877h-11.394
			v8.577c0,3.819-0.689,6.448-4.821,7.637l4.445,1.69H170.099z M170.725,154.08h-21.286v5.821h21.286V154.08z M170.725,160.904
			h-21.286v5.947h21.286V160.904z M149.439,173.988h21.286v-6.135h-21.286V173.988z M152.57,137.614
			c7.074,1.503,9.39,4.132,9.39,6.323s-2.191,4.007-4.507,4.007c-1.315,0-2.692-0.626-3.631-2.066
			c0.188-2.629-0.438-5.948-1.69-7.951L152.57,137.614z M181.744,120.586l7.45,6.323c-0.439,0.689-1.002,0.877-2.442,1.064
			c-1.753,4.507-4.258,8.577-7.638,12.146c3.381,1.816,7.137,3.131,10.956,4.132l-0.063,0.689c-3.381,0.813-5.822,3.443-6.949,7.512
			c-3.756-2.066-6.887-4.445-9.453-7.45c-4.132,2.943-9.015,5.322-14.9,7.137l-0.314-0.752c5.072-2.692,9.141-6.26,12.271-10.393
			c-2.316-3.944-4.007-8.827-5.134-15.087h-4.382l-0.314-1.001h16.465L181.744,120.586z M166.467,125.908
			c1.566,4.445,4.069,7.888,7.2,10.517c1.816-3.255,3.192-6.824,4.132-10.517H166.467z"/>
		<path fill="#FFFFFF" d="M129.719,216.93c3.255-8.139,6.636-22.225,8.263-34.557l11.269,2.754
			c-0.187,0.813-0.751,1.314-2.504,1.439c-1.315,4.383-2.817,8.514-4.57,12.396l3.13,1.127c-0.25,0.563-0.751,1.001-2.003,1.189
			v38.315c-0.063,0.563-3.506,2.254-6.637,2.254h-1.502v-30.301c-1.502,2.128-3.068,4.068-4.696,5.821L129.719,216.93z
			 M189.882,220.061c-0.438,0.688-1.377,0.876-3.004,0.876h-11.081c3.131,4.821,9.14,8.389,14.775,10.204l-0.187,0.626
			c-3.068,0.877-5.259,3.569-6.323,8.013c-4.946-4.257-7.575-10.642-9.266-18.844h-0.125v18.781c0,0.125-1.628,2.129-8.765,2.129
			V230.64c-4.382,3.881-9.954,7.012-16.465,9.391l-0.501-0.814c6.323-4.57,10.956-11.394,13.398-18.281h-8.327v8.514
			c0,0.063-1.315,2.191-7.638,2.191v-38.439l9.766,0.813c-0.062,0.814-0.501,1.252-2.128,1.503v17.466
			c5.447-2.379,9.892-5.572,13.272-9.516c-1.753-2.004-3.192-4.32-4.445-6.824c-2.442,2.692-5.134,4.883-8.013,6.636l-0.689-0.501
			c2.817-4.57,5.509-12.584,6.887-20.409l10.831,3.505c-0.251,0.752-0.876,1.252-2.567,1.252c-0.751,1.44-1.502,2.817-2.378,4.132
			h9.891l4.258-5.822l7.825,5.948c-0.501,0.689-1.439,0.876-3.067,0.876h-2.567c-1.628,3.757-3.881,7.012-6.636,9.829
			c3.944,1.064,8.514,1.753,13.773,2.066l-0.063,0.689c-3.381,1.44-4.884,4.132-5.196,8.327c-6.198-1.315-10.768-3.443-14.337-6.323
			c-4.57,3.067-10.142,5.383-16.653,7.012l-0.125-0.439v6.511h11.895v-8.702l10.893,0.939c-0.124,0.752-0.501,1.19-2.128,1.44v6.323
			h3.694l4.068-5.384L189.882,220.061z M166.28,192.263c-0.689,1.064-1.44,2.067-2.254,3.005c1.628,1.753,3.63,3.192,6.072,4.445
			c1.44-2.316,2.567-4.82,3.381-7.45H166.28z"/>
		<path fill="#FFFFFF" d="M149.189,247.727c-0.188,0.813-0.752,1.314-2.505,1.439c-1.315,4.383-2.817,8.514-4.57,12.396l3.13,1.127
			c-0.25,0.563-0.751,1.001-2.003,1.189v38.315c-0.063,0.563-3.506,2.254-6.636,2.254h-1.503v-30.301
			c-1.502,2.128-3.067,4.068-4.696,5.821l-0.751-0.438c3.255-8.139,6.636-22.225,8.263-34.557L149.189,247.727z M177.048,287.794
			c0,0.626-3.443,2.191-6.26,2.191h-1.503v-23.414c-0.375,0.438-0.939,0.626-2.066,0.751c-1.69,14.713-5.885,28.987-22.225,37.187
			l-0.375-0.813c6.385-5.196,10.016-12.271,12.145-20.159c-0.25,0.063-0.501,0.063-0.751,0.063c-1.127,0-2.254-0.438-3.256-1.502
			c-0.124-2.004-0.813-4.132-2.003-5.76c-1.628,2.191-3.506,4.194-5.572,6.072l-0.689-0.813c4.507-8.013,6.698-18.969,7.7-29.676
			h-5.446l-0.251-1.001h13.023l4.131-5.509l7.701,5.634c-0.501,0.689-1.44,0.876-3.068,0.876h-7.575
			c-0.688,4.383-1.753,8.515-3.255,12.396h1.315l3.819-4.069l6.698,5.76v-12.709l9.642,0.814c-0.125,0.688-0.502,1.127-1.878,1.314
			V287.794z M157.077,265.319c-1.378,3.381-3.131,6.573-5.196,9.516c2.943,0.125,5.008,0.626,6.386,1.378
			c0.563-3.569,0.939-7.199,1.127-10.893H157.077z M179.239,246.037l10.642,0.876c-0.062,0.877-0.375,1.378-2.504,1.69v45.827
			c0,5.196-1.252,9.14-10.393,10.017c0-5.322-1.378-7.326-7.45-8.139v-0.814h8.64c0.814,0,1.064-0.313,1.064-1.064V246.037z"/>
	</g>
	<g>
		<g>
			<path fill="#FFFFFF" d="M35.069,89.841l4.08-5.256l10.041,7.452c-0.47,0.55-1.334,1.177-2.746,1.412v53.031
				c0,6.747-1.569,11.61-12.081,12.473c0-8.079-1.412-9.883-6.355-10.669v-0.862h7.138c0.471,0,0.707-0.393,0.707-1.177V128.28
				h-5.413c-1.099,10.826-4.315,22.122-13.493,30.673l-0.785-0.47c4.707-13.179,4.707-29.496,4.707-46.048V85.762l11.767,4.079
				H35.069z M31.069,112.434c0,4.471,0,9.492-0.47,14.591h5.256v-17.493h-4.785V112.434z M35.854,91.096h-4.785v17.18h4.785V91.096z
				 M80.805,113.532l9.492,7.845c-0.47,0.863-1.176,1.177-2.902,1.334c-1.647,6.59-4.315,13.179-8.237,19.141
				c3.765,2.903,7.922,5.177,12.081,7.06l-0.235,0.863c-4.393,0.706-7.845,4-9.649,9.256c-3.295-2.823-6.119-5.883-8.472-9.413
				c-2.981,2.981-6.354,5.726-10.355,8.08l-0.471-0.863c3.216-3.53,5.806-7.766,7.845-12.394
				c-3.138-6.276-5.177-13.964-6.511-24.084H61.35v35.302c0,0.785-3.216,3.295-8.629,3.295H50.76V85.527l11.689,4.314h11.924
				l3.922-5.177l10.591,7.453c-0.471,0.627-1.491,1.333-3.138,1.647v9.1c0,6.433-1.569,11.297-12.239,12.081
				c0-8.708-2.196-9.885-6.746-10.59v-0.942h7.61c0.549,0,0.784-0.392,0.784-1.098V91.096H61.35v28.006h14.121L80.805,113.532z
				 M64.566,120.357c1.726,6.433,4.707,11.61,8.394,15.769c1.569-5.256,2.589-10.591,3.216-15.769H64.566z"/>
			<path fill="#FFFFFF" d="M79.393,222.407c-0.078,0.55-5.334,2.589-9.728,2.589c14.435,1.177,19.141,4.785,19.141,7.767
				c0,2.588-3.294,4.707-6.825,4.707c-1.726,0-3.53-0.471-5.021-1.647c-3.373-3.138-9.883-7.532-19.533-10.356l0.235-0.862
				c3.844,0,7.295,0.078,10.355,0.235v-2.824H42.444l10.433,7.532c-0.47,0.549-1.255,0.862-2.431,0.862
				c-0.707,0-1.491-0.157-2.511-0.392c-7.295,3.687-18.984,6.511-30.594,7.374l-0.314-0.862c9.256-3.295,18.984-9.414,23.926-14.513
				h-1.961c0,0.314-1.647,4.158-11.14,4.158v-34.91l-3.608,1.647c-0.47,1.099-1.255,1.726-2.196,1.883l-5.649-10.669
				c1.883-0.078,4.55-0.315,7.845-0.628v-16.631l8.864,2.668c4.55-2.196,9.493-5.177,11.846-7.06l8.708,7.922
				c-0.314,0.315-0.706,0.471-1.254,0.471c-0.471,0-1.02-0.157-1.647-0.393c-3.687,0.707-10.355,1.491-16.709,1.647v10.356
				c2.51-0.236,5.099-0.55,7.687-0.785c-0.941-2.118-2.353-4-3.922-5.334l0.47-0.47c10.983,0.784,14.592,4.785,14.592,8.316
				c0,2.98-2.51,5.491-5.413,5.491c-1.255,0-2.589-0.47-3.845-1.726c-0.157-1.255-0.392-2.589-0.862-3.922
				c-3.687,1.961-8.394,4.236-14.592,7.138l11.454,4.392h27.614l4.079-5.256l1.02,0.707c0-4.707-0.785-6.668-5.492-7.924
				l0.078-0.942h5.492c1.019,0,1.412,0,1.804-0.314c0.784-0.784,1.255-4.392,1.491-12.473H70.45
				c-1.02,9.728-4.785,18.906-22.986,24.79l-0.785-0.942c11.454-7.452,12.317-15.689,12.631-23.848h-5.963l-0.392-1.255h22.044
				l3.845-4.629l9.57,6.982c-0.47,0.628-1.412,1.177-2.745,1.412c-0.55,14.67-1.569,19.534-12.16,20.004l8.629,5.963
				c-0.47,0.549-1.333,1.177-2.745,1.491V222.407z M68.018,196.834H38.992v6.982h29.025V196.834z M68.018,212.209v-7.138H38.992
				v7.138H68.018z M38.992,220.761h29.025v-7.296H38.992V220.761z"/>
		</g>
	</g>
	<g>
		<path fill="#FFFFFF" d="M288.685,92.232l8.701,6.323c-0.438,0.689-1.251,0.877-3.067,0.877h-56.157l-0.314-1.002h13.21V68.943
			h-11.206l-0.314-1.001h11.519V57.298l11.457,1.127c-0.124,0.814-0.689,1.315-2.379,1.566v7.951h14.587V57.298l11.645,1.127
			c-0.125,0.814-0.689,1.315-2.442,1.566v7.888l4.257-5.384l7.952,5.572c-0.502,0.752-1.315,0.877-3.005,0.877h-9.203v29.486
			L288.685,92.232z M266.773,104.628c-0.438,0.813-1.44,1.314-3.694,1.19c-5.259,4.507-14.337,8.577-24.227,10.893l-0.251-0.626
			c7.262-4.132,14.024-11.081,17.028-16.403L266.773,104.628z M274.724,68.943h-14.587v9.015h14.587V68.943z M260.136,78.959v9.14
			h14.587v-9.14H260.136z M260.136,89.102v9.327h14.587v-9.327H260.136z M272.032,102.186c18.844,1.252,24.541,6.198,24.541,9.954
			c0,2.505-2.567,4.508-5.447,4.508c-1.439,0-2.943-0.563-4.257-1.816c-2.316-3.443-6.949-8.451-15.088-11.957L272.032,102.186z"/>
		<path fill="#FFFFFF" d="M260.262,123.153c-0.25,0.813-0.813,1.377-2.566,1.377c-1.566,4.195-3.256,8.076-5.196,11.645l2.566,0.939
			c-0.187,0.626-0.688,1.001-1.94,1.252v38.377c-0.125,0.626-3.694,2.505-7.137,2.505h-1.628v-30.802
			c-1.941,2.316-4.007,4.446-6.198,6.323l-0.689-0.438c4.132-7.888,8.64-21.912,10.893-34.557L260.262,123.153z M293.505,160.653
			l-0.063,7.951c3.569,1.44,4.007,1.941,4.007,3.256c0,3.756-2.379,5.446-12.395,5.446h-13.147c-9.516,0-12.271-2.254-12.271-10.893
			v-19.721l-4.319,1.816l-0.752-0.876l5.071-2.128v-19.346l11.081,0.94c-0.125,0.813-0.501,1.377-2.316,1.628v13.147l3.192-1.315
			V119.71l11.144,1.001c-0.125,0.876-0.563,1.377-2.379,1.628v14.587l2.63-1.065l3.192-5.697l8.828,5.134
			c-0.439,0.689-1.252,1.252-2.505,1.629v15.776c0,5.196-1.565,8.889-9.578,9.203c0-4.007-0.063-6.072-0.314-6.761
			c-0.25-0.626-0.876-1.252-1.94-1.566v-0.563h2.316c0.563,0,0.751-0.124,0.751-0.688v-15.589l-3.381,1.439v22.601
			c0,0.125-1.502,2.504-8.765,2.504v-21.536l-3.192,1.378v23.54c0,2.441,0.563,2.817,3.255,2.817h13.586
			c1.628,0,2.629-0.063,3.568-1.002c1.002-0.939,2.316-3.568,4.258-7.825H293.505z"/>
		<path fill="#FFFFFF" d="M291.94,213.986l6.949,5.76c-0.439,0.689-1.252,0.877-3.005,0.877h-7.638v9.641
			c0,0.063-2.254,2.379-9.015,2.379v-4.383h-7.262v3.82c0,5.134-1.378,9.015-11.645,9.829c0-6.199-2.817-7.137-8.263-7.889v-0.813
			h9.641c0.813,0,1.064-0.314,1.064-1.002v-3.944h-17.028l-0.314-1.001h17.342v-6.636h-24.604l-0.251-1.002h24.855v-6.51h-16.528
			l-0.314-1.001h16.841v-6.073h-6.135c0,0.626-1.753,3.318-9.079,3.318v-16.277l9.579,3.569h5.634v-5.697h-23.665l-0.313-1.002
			h23.978v-7.637l11.582,1.001c-0.063,0.752-0.376,1.315-2.379,1.628v5.008h10.58l4.696-5.697l8.64,5.822
			c-0.501,0.752-1.315,0.877-3.068,0.877H271.97v5.697h5.76l3.192-4.195l8.828,6.01c-0.376,0.439-1.064,0.94-2.191,1.19v6.949
			c-0.063,0.376-2.442,1.378-4.946,1.878l7.825,5.446c-0.313,0.439-1.001,0.94-2.191,1.19v4.32L291.94,213.986z M256.632,205.034
			h6.135v-7.387h-6.135V205.034z M278.355,197.647h-6.386v7.387h6.386V197.647z M271.97,206.036v6.073h6.636l2.567-3.382
			c-0.376,0.063-2.316,0.063-2.817,0.063v-2.754H271.97z M271.97,213.11v6.51h7.262v-6.51H271.97z M279.231,227.259v-6.636h-7.262
			v6.636H279.231z"/>
		<path fill="#FFFFFF" d="M261.889,263.754l7.137,6.761c-0.501,0.563-1.127,0.752-2.442,0.813c-2.254,3.131-6.072,7.45-9.516,9.829
			l-0.501-0.375c0.813-2.943,1.565-8.327,1.877-11.895h-2.566v26.106c0,5.259-1.315,8.952-10.08,9.578
			c0-5.947-1.565-7.325-6.072-8.013v-0.751h7.012c0.501,0,0.689-0.251,0.689-0.877v-10.016c-2.63,3.255-5.76,6.072-9.266,8.577
			l-0.689-0.814c4.633-6.323,7.701-15.338,9.328-23.789h-8.828l-0.313-1.002h20.096L261.889,263.754z M242.921,255.615
			c4.632,0,7.888,0.626,10.079,1.69c0.876-2.128,1.69-4.57,2.254-6.449h-16.716l-0.313-1.001h16.59l4.57-4.445l7.575,7.262
			c-0.502,0.563-1.128,0.752-2.505,0.814c-2.254,1.69-5.697,3.881-8.89,5.572c1.065,1.064,1.503,2.316,1.503,3.443
			c0,2.505-2.128,4.82-4.696,4.82c-1.001,0-2.066-0.375-3.131-1.251c-1.064-3.694-3.568-7.764-6.636-10.08L242.921,255.615z
			 M297.512,254.614c-0.501,0.688-1.439,0.876-3.067,0.876h-1.941c-1.502,4.821-3.757,8.89-6.887,12.271
			c3.631,1.19,7.825,2.003,12.772,2.379l-0.063,0.688c-2.316,1.378-3.506,4.57-3.82,8.89c-6.573-1.753-11.143-4.132-14.524-7.137
			c-1.753,1.127-3.631,2.129-5.634,3.068l8.201,0.689c-0.125,0.751-0.626,1.19-2.316,1.377c-0.187,1.816-0.438,3.631-0.813,5.447
			h5.134l3.192-3.881l8.139,5.821c-0.438,0.563-1.19,1.002-2.379,1.19c-0.939,14.587-3.005,17.968-12.646,18.093
			c0-4.57-0.501-6.386-5.446-7.638v-0.689l5.76,0.063c0.939,0,1.314,0,1.69-0.313c1.064-0.814,1.753-4.507,2.254-11.645h-5.885
			c-1.878,8.577-6.323,16.34-20.972,20.346l-0.439-0.751c8.577-4.633,11.582-11.77,12.646-19.596h-8.263l-0.314-1.001h8.702
			c0.251-2.004,0.376-4.069,0.438-6.135c-3.192,1.189-6.761,2.128-10.705,2.879l-0.25-0.751c7.199-2.442,12.645-5.885,16.465-10.455
			c-1.941-2.692-3.443-5.76-4.696-9.203c-2.379,2.191-5.008,3.944-7.763,5.322l-0.689-0.501c3.192-4.195,6.198-11.645,7.637-19.345
			l10.706,3.63c-0.314,0.814-0.94,1.252-2.567,1.252c-0.876,1.69-1.878,3.192-2.88,4.633h9.266l4.258-5.948L297.512,254.614z
			 M275.538,255.49c-0.814,1.001-1.691,2.004-2.567,2.88c1.69,2.567,3.756,4.696,6.323,6.323c1.628-2.692,2.754-5.822,3.569-9.203
			H275.538z"/>
	</g>
	<g>
		<path fill="#FFFFFF" d="M159.021,18.044c-0.25,0.393-0.751,0.501-1.789,0.501h-12.626v6.438h6.653l1.895-2.504l4.9,3.541
			c-0.25,0.286-0.679,0.608-1.43,0.752v15.917c0,2.827-0.608,4.865-6.117,5.473c0-3.542-1.394-4.292-3.97-4.686v-0.429h4.614
			c0.322,0,0.465-0.143,0.465-0.502v-3.004c-0.286,0.679-0.501,1.467-0.608,2.254c-1.216-1.145-2.111-3.326-2.504-5.58
			c-0.679,2.074-2.075,3.935-3.899,5.222v4.722c0,0.285-1.502,1.323-4.149,1.323h-0.93v-8.049c-0.322,0.681-0.536,1.539-0.644,2.361
			c-1.145-1.145-2.003-3.326-2.397-5.544c-0.679,2.075-2.038,3.97-3.862,5.258v4.757c0,0.143-0.679,1.932-4.9,1.932V22.908
			l5.329,2.075h6.475v-6.438h-14.093l-0.179-0.573h25.647l2.897-3.613L159.021,18.044z M138.453,29.526
			c-0.285,0.393-1.251,0.608-2.289,0.751v0.752c0.251,2.754,1.467,4.614,3.363,6.01V25.556h-6.903v15.238
			c1.538-2.361,2.754-6.475,3.004-9.873v-1.18h-2.217l-0.143-0.572h1.86l0.93-1.431L138.453,29.526z M151.617,25.556h-7.011v15.059
			c1.538-2.397,2.754-6.367,3.041-9.694v-1.18h-2.326l-0.142-0.572h1.931l0.93-1.467l2.432,1.824
			c-0.286,0.393-1.288,0.608-2.325,0.751c0,4.257,2.611,6.153,3.469,6.761V25.556z"/>
		<path fill="#FFFFFF" d="M169.647,26.915v5.973c0,1.503-0.071,3.149-0.393,4.865h8.191v-5.615h-7.154l-0.143-0.573h14.63
			l2.397-3.362l4.399,3.434c-0.285,0.393-0.786,0.501-1.752,0.501h-7.011v5.615h4.006l2.468-3.434l4.507,3.506
			c-0.286,0.393-0.787,0.501-1.753,0.501h-9.228v8.798c0,0.215-1.61,1.074-4.364,1.074h-1.001v-9.872h-8.299
			c-0.786,3.576-2.826,7.261-7.869,9.764l-0.214-0.25c3.076-4.4,3.291-10.087,3.291-14.952v-8.549l0.393,0.143V15.79l6.332,0.501
			c-0.071,0.465-0.322,0.787-1.359,0.93v4.22h5.509v-7.296l6.474,0.607c-0.071,0.502-0.393,0.752-1.394,0.895v5.794h5.687V15.79
			l6.475,0.501c-0.071,0.501-0.322,0.787-1.323,0.93v5.615c0,0.071-0.143,0.179-0.358,0.25l4.184,3.327
			c-0.285,0.393-0.751,0.501-1.752,0.501H169.647z M169.719,23.66c0,0.143-1.539,0.93-4.614,0.93l5.294,1.752h17.456L190,23.338
			c-1.395,0.43-2.719,0.43-4.007,0.43v-1.753h-16.275V23.66z"/>
	</g>
	<g>
		<path fill="#FFFFFF" d="M266.571,18.044c-0.25,0.393-0.751,0.501-1.789,0.501h-12.626v6.438h6.653l1.895-2.504l4.9,3.541
			c-0.25,0.286-0.679,0.608-1.43,0.752v15.917c0,2.827-0.608,4.865-6.117,5.473c0-3.542-1.394-4.292-3.97-4.686v-0.429h4.614
			c0.322,0,0.465-0.143,0.465-0.502v-3.004c-0.286,0.679-0.501,1.467-0.608,2.254c-1.216-1.145-2.111-3.326-2.504-5.58
			c-0.679,2.074-2.075,3.935-3.899,5.222v4.722c0,0.285-1.502,1.323-4.149,1.323h-0.93v-8.049c-0.322,0.681-0.536,1.539-0.644,2.361
			c-1.145-1.145-2.003-3.326-2.397-5.544c-0.679,2.075-2.038,3.97-3.862,5.258v4.757c0,0.143-0.679,1.932-4.9,1.932V22.908
			l5.329,2.075h6.475v-6.438h-14.093l-0.179-0.573h25.647l2.897-3.613L266.571,18.044z M246.004,29.526
			c-0.285,0.393-1.251,0.608-2.289,0.751v0.752c0.251,2.754,1.467,4.614,3.363,6.01V25.556h-6.903v15.238
			c1.538-2.361,2.754-6.475,3.004-9.873v-1.18h-2.217l-0.143-0.572h1.86l0.93-1.431L246.004,29.526z M259.167,25.556h-7.011v15.059
			c1.538-2.397,2.754-6.367,3.041-9.694v-1.18h-2.326l-0.142-0.572h1.931l0.93-1.467l2.432,1.824
			c-0.286,0.393-1.288,0.608-2.325,0.751c0,4.257,2.611,6.153,3.469,6.761V25.556z"/>
		<path fill="#FFFFFF" d="M277.197,26.915v5.973c0,1.503-0.071,3.149-0.393,4.865h8.191v-5.615h-7.154l-0.143-0.573h14.63
			l2.397-3.362l4.399,3.434c-0.285,0.393-0.786,0.501-1.752,0.501h-7.011v5.615h4.006l2.468-3.434l4.507,3.506
			c-0.286,0.393-0.787,0.501-1.753,0.501h-9.228v8.798c0,0.215-1.61,1.074-4.364,1.074h-1.001v-9.872h-8.299
			c-0.786,3.576-2.826,7.261-7.869,9.764l-0.214-0.25c3.076-4.4,3.291-10.087,3.291-14.952v-8.549l0.393,0.143V15.79l6.332,0.501
			c-0.071,0.465-0.322,0.787-1.359,0.93v4.22h5.509v-7.296l6.474,0.607c-0.071,0.502-0.393,0.752-1.394,0.895v5.794h5.687V15.79
			l6.475,0.501c-0.071,0.501-0.322,0.787-1.323,0.93v5.615c0,0.071-0.143,0.179-0.358,0.25l4.184,3.327
			c-0.285,0.393-0.751,0.501-1.752,0.501H277.197z M277.269,23.66c0,0.143-1.539,0.93-4.614,0.93l5.293,1.752h17.456l2.146-3.004
			c-1.396,0.43-2.719,0.43-4.007,0.43v-1.753h-16.275V23.66z"/>
	</g>
</g>
<g id="secondary">
</g>
</svg>
