<?xml version="1.0" encoding="utf-8"?>
<!-- Generator: Adobe Illustrator 17.0.0, SVG Export Plug-In . SVG Version: 6.00 Build 0)  -->
<!DOCTYPE svg PUBLIC "-//W3C//DTD SVG 1.1//EN" "http://www.w3.org/Graphics/SVG/1.1/DTD/svg11.dtd">
<svg version="1.1" xmlns="http://www.w3.org/2000/svg" xmlns:xlink="http://www.w3.org/1999/xlink" x="0px" y="0px" width="320px"
	 height="88px" viewBox="0 0 320 88" enable-background="new 0 0 320 88" xml:space="preserve">
<g id="backup" display="none">
	
		<text transform="matrix(1 0 0 1 188.4033 68.0365)" display="inline" fill="#FFFFFF" font-family="'KozMinPr6N-Heavy-83pv-RKSJ-H'" font-size="60.1123">黑潮</text>
	
		<text transform="matrix(1 0 0 1 12.665 72.179)" display="inline" fill="#FFFFFF" font-family="'BodoniSvtyTwoITCTT-Bold'" font-size="86.5141">4am</text>
	
		<text transform="matrix(1 0 0 1 165.4941 68.9867)" display="inline" fill="#FFFFFF" font-family="'KozMinPr6N-Heavy-83pv-RKSJ-H'" font-size="56.8589">･</text>
</g>
<g id="backgrounds">
	<rect y="0" fill="#4D4D4D" width="320" height="88"/>
</g>
<g id="stripes">
</g>
<g id="main">
	<g>
		<path fill="#FFFFFF" d="M201.328,58.96c0.601,2.044,0.902,3.968,0.902,5.59c0,6.132-3.847,9.258-7.574,9.258
			c-2.465,0-4.81-1.322-4.81-3.907c0-1.984,1.564-3.487,3.367-4.268c3.127-0.721,6.793-3.246,7.394-6.673H201.328z M189.906,56.374
			h23.986V48.8h-18.036l-0.24-0.962h18.275v-7.455h-8.417v0.902c0,0.241-1.323,3.126-8.537,3.126v-26.45l9.138,3.486h24.647
			l3.186-4.208l8.476,5.952c-0.361,0.481-1.082,1.082-2.344,1.322v17.013c-0.061,0.36-2.225,1.142-4.449,1.623l6.131,4.81
			c-0.42,0.661-1.262,0.841-2.946,0.841h-16.472v7.574h12.444l4.268-6.012l7.815,6.132c-0.481,0.661-1.263,0.841-3.006,0.841
			h-53.684L189.906,56.374z M205.476,39.422h8.417V22.469h-8.417v3.547l0.421-0.241c5.951,2.104,7.935,4.81,7.935,7.034
			c0,2.164-1.923,3.788-3.847,3.788c-1.142,0-2.285-0.542-3.126-1.804c0.06-0.481,0.06-1.022,0.06-1.563
			c0-2.405-0.481-5.11-1.442-6.913V39.422z M207.64,60.101c6.312,2.706,8.417,5.952,8.417,8.477c0,2.705-2.285,4.689-4.69,4.689
			c-1.383,0-2.825-0.661-3.787-2.344c0.36-1.443,0.541-3.006,0.541-4.629c0-2.164-0.301-4.328-1.022-5.952L207.64,60.101z
			 M218.221,59.861c9.258,1.503,12.263,5.23,12.263,8.296c0,2.645-2.164,4.809-4.629,4.809c-1.202,0-2.404-0.481-3.486-1.683
			c-0.18-3.847-1.924-8.417-4.569-11.061L218.221,59.861z M231.326,22.469h-9.018v16.953h9.018v-9.618
			c-1.863,1.923-5.17,4.869-7.995,6.912l-0.542-0.24c0.902-3.426,1.864-8.597,2.164-11.121l6.373,2.344V22.469z M222.308,40.383
			v7.455h7.756l3.185-4.389h-1.923v-3.066H222.308z M230.124,59.2c12.745,1.082,16.893,5.951,16.893,9.738
			c0,2.705-2.044,4.809-4.508,4.809c-1.022,0-2.104-0.301-3.127-1.082c-1.803-4.629-5.531-9.979-9.558-13.045L230.124,59.2z"/>
		<path fill="#FFFFFF" d="M250.139,32.028c7.574,1.503,10.039,4.508,10.039,7.034c0,2.285-2.045,4.208-4.268,4.208
			c-1.082,0-2.285-0.481-3.246-1.683c0.06-3.126-1.142-6.973-2.946-9.258L250.139,32.028z M253.024,54.812
			c0.902,0,1.143,0,1.863-1.202c1.202-2.103,1.202-2.103,9.92-22.604l0.902,0.181c-1.924,7.695-5.41,21.641-5.41,25.549v0.42
			c0.12,3.307,2.584,5.351,2.584,10.46c0,5.23-3.787,6.012-5.47,6.012c-1.383,0-3.006-0.841-3.547-3.185
			c0.541-2.826,0.781-5.531,0.781-7.876c0-5.47-0.962-6.372-4.268-6.673v-1.082c1.984,0,2.645-0.06,2.645-0.06V54.812z
			 M252.784,17.119c8.356,1.383,11.121,4.569,11.121,7.274c0,2.345-2.104,4.268-4.389,4.268c-1.142,0-2.344-0.481-3.366-1.623
			c-0.361-3.246-1.804-7.214-3.788-9.619L252.784,17.119z M299.614,17.6l7.515,5.531c-0.421,0.481-1.143,0.962-2.285,1.202v40.278
			c0,4.929-1.142,8.476-8.837,9.078c0-5.772-1.143-6.974-4.99-7.635v-0.722h5.651c0.421,0,0.601-0.24,0.601-0.841V49.041h-3.006
			c-0.781,8.957-3.607,18.094-13.165,24.707l-0.601-0.421c2.705-3.967,4.328-8.416,5.351-13.044h-6.733v11.602
			c-0.061,0.301-2.225,1.503-5.952,1.503h-1.322V60.283h-7.455l-0.24-0.963h7.695v-6.913c-2.045,1.323-4.088,1.323-5.651,1.323
			V31.126l5.711,2.344v-6.613h-6.492l-0.301-0.962h6.793v-8.656l9.137,0.841c-0.06,0.662-0.541,1.022-1.863,1.202v5.952l2.645-4.268
			l5.531,5.05c-0.42,0.661-1.322,0.841-2.825,0.841h-5.351v7.095l2.344-3.127l5.591,5.11c-0.421,0.482-1.262,0.842-2.164,1.022
			v14.548c-0.061,0.24-2.465,1.563-5.831,1.563v6.251h0.06l3.127-5.169l4.028,3.787c0.962-5.711,1.082-11.662,1.082-17.554V18.622
			l8.235,2.886h1.022L299.614,17.6z M278.092,34.913h-5.23v7.274h5.23V34.913z M278.092,43.149h-5.23v7.394h5.23V43.149z
			 M294.564,40.383c0,2.465-0.06,5.05-0.24,7.695h2.946V35.574h-2.706V40.383z M297.27,22.469h-2.706v12.143h2.706V22.469z"/>
	</g>
	<g>
		<path fill="#FFFFFF" d="M59.211,65.517c0,0.636-0.203,0.952-0.606,0.952c-0.462,0-0.75-0.211-0.865-0.634
			c-0.116-0.423-0.23-1.594-0.346-3.513c-0.058-1.41-0.259-2.327-0.605-2.75c-0.346-0.423-1.097-0.719-2.25-0.889l-5.104-0.259v8.59
			c0,1.777,0.288,2.821,0.865,3.136c0.575,0.315,2.509,0.502,5.796,0.559c1.385,0,2.076,0.276,2.076,0.827
			c0,0.43-1.442,0.644-4.325,0.644c-11.017,0-18.197,0.057-21.542,0.173c-1.674,0.056-2.827,0.086-3.461,0.086
			c-1.038,0-1.557-0.231-1.557-0.692c0-0.576,0.858-0.865,2.572-0.865c3.6,0,5.614-0.259,6.042-0.779
			c0.428-0.519,0.643-1.47,0.643-2.855v-8.565h-8.532c-7.069,0-11.321-0.057-12.756-0.172c-1.207-0.057-1.81-0.317-1.81-0.78
			c0-0.461,0.405-1.211,1.214-2.249c1.155-1.441,4.017-5.089,8.585-10.944c4.567-5.854,10.611-13.251,18.126-22.191
			c0.057-0.115,1.647-2.047,4.769-5.797c1.214-1.498,2.052-2.249,2.516-2.249c0.519,0,0.78,0.694,0.78,2.08v39.966
			c3.517-0.058,5.738-0.232,6.661-0.525c0.576-0.29,0.909-0.654,0.995-1.092c0.087-0.436,0.13-1.69,0.13-3.758
			c0-2.069,0.288-3.104,0.865-3.104c0.403,0,0.634,0.389,0.692,1.168c0.057,0.779,0.115,3.417,0.172,7.915
			c0,4.038,0.043,6.33,0.13,6.878C59.167,64.379,59.211,64.942,59.211,65.517z M37.495,30.653c-1.5,1.557-3.951,4.585-7.354,9.084
			c-1.384,1.788-3.345,4.297-5.882,7.526c-3.115,3.923-5.364,6.834-6.749,8.738c3.69,0.231,8.074,0.346,13.15,0.346h6.056
			C36.89,45.39,37.15,36.825,37.495,30.653z"/>
		<path fill="#FFFFFF" d="M100.997,67.601c0,0.469-0.463,1.113-1.385,1.932c-2.48,2.285-5.537,3.425-9.171,3.425
			c-2.365,0-4.081-0.497-5.147-1.49c-1.068-0.992-1.774-2.774-2.12-5.345c-2.595,4.73-6.143,7.094-10.641,7.094
			c-2.48,0-4.485-0.779-6.012-2.336c-1.529-1.557-2.292-3.576-2.292-6.056c0-7.267,6.228-11.563,18.687-12.89v-1.817
			c0-5.767-0.203-9.314-0.606-10.641l-0.086-0.433c-0.808-2.883-2.855-4.325-6.143-4.325c-1.904,0-3.432,0.548-4.585,1.644
			c-1.154,1.097-1.731,2.163-1.731,3.201c0,0.577,0.692,0.923,2.076,1.038c2.076,0.173,3.114,1.442,3.114,3.807
			c0,1.269-0.418,2.322-1.255,3.158c-0.836,0.837-1.917,1.255-3.244,1.255c-1.673,0-3.043-0.504-4.109-1.514
			c-1.069-1.009-1.601-2.292-1.601-3.85c0-2.479,1.24-4.728,3.72-6.748c2.479-2.019,5.739-3.028,9.776-3.028
			c5.998,0,10.179,1.069,12.545,3.202c1.903,1.788,2.855,4.902,2.855,9.343v14.793c0,2.885,0.028,4.558,0.086,5.018
			c0.288,2.422,1.125,3.634,2.509,3.634c0.98,0,2.191-0.692,3.634-2.076c0.288-0.288,0.519-0.433,0.693-0.433
			C100.851,67.161,100.997,67.309,100.997,67.601z M82.915,57.298V53.06c-5.595,1.097-8.392,4.268-8.392,9.517
			c0,4.037,1.385,6.056,4.153,6.056c1.557,0,2.653-0.865,3.288-2.596C82.597,64.306,82.915,61.394,82.915,57.298z"/>
		<path fill="#FFFFFF" d="M169.066,71.831c0,0.52-0.433,0.724-1.298,0.608h-1.557h-2.509c-1.674,0-3.691,0-6.056,0h-4.845
			c-0.173,0-0.606,0-1.298,0s-1.328,0-1.903,0h-1.125c-0.808,0-1.211-0.174-1.211-0.523c0-0.289,0.676-0.463,2.028-0.523
			c1.705-0.056,2.557-0.579,2.557-1.568V50.389c0-5.984-0.204-9.586-0.611-10.806c-0.581-1.684-2.034-2.528-4.36-2.528
			c-2.151,0-3.836,0.928-5.057,2.782c-0.523,0.754-0.813,1.594-0.872,2.522c-0.116,1.101-0.174,4.086-0.174,8.955v16.518
			c0,1.739,0.158,2.755,0.476,3.044c0.316,0.289,1.398,0.435,3.244,0.435c0.519,0,0.779,0.145,0.779,0.434
			c0,0.463-0.318,0.696-0.951,0.696c-0.578,0-1.039-0.03-1.385-0.086l-16.784-0.173c-0.519,0-0.779-0.173-0.779-0.52
			c0-0.346,0.692-0.52,2.076-0.52c1.038,0,1.644-0.145,1.816-0.435l0.173-0.867V48.589c0-5.433-0.318-8.716-0.952-9.844
			c-0.635-1.127-1.933-1.691-3.893-1.691c-2.365,0-4.124,0.986-5.277,2.956c-0.405,0.754-0.649,1.522-0.735,2.305
			c-0.087,0.783-0.13,3.058-0.13,6.826v17.217c0,2.667,0.158,4.131,0.476,4.392c0.316,0.261,1.11,0.391,2.379,0.391h1.298
			c0.575,0,0.865,0.159,0.865,0.478c0,0.373-0.26,0.56-0.779,0.56c-0.751,0-1.442,0-2.076,0h-3.634
			c-4.615,0.069-7.067,0.12-7.354,0.155c-2.769,0.069-4.817,0.104-6.143,0.104h-1.211c-0.751,0-1.125-0.231-1.125-0.692
			c0-0.403,0.26-0.605,0.779-0.605l1.991,0.346c0.98,0.058,1.786-0.174,2.422-0.697c0.461-0.406,0.692-1.622,0.692-3.653V52.787
			c0-8.06-0.117-12.379-0.346-12.96c-0.463-0.522-2.25-0.783-5.364-0.783c-0.808,0-1.211-0.201-1.211-0.605
			c0-0.462,0.375-0.693,1.124-0.693c5.767-0.115,10.901-1.384,15.399-3.806c0.519-0.288,0.894-0.433,1.125-0.433
			c0.287,0,0.433,0.231,0.433,0.692c0,0.865-0.03,1.587-0.087,2.163v3.634c2.647-4.325,6.562-6.488,11.743-6.488
			c5.814,0,9.239,2.365,10.276,7.094c1.324-2.541,2.935-4.359,4.836-5.453c1.899-1.094,4.402-1.641,7.512-1.641
			c7.31,0,10.967,4.056,10.967,12.166c0,0.174,0,0.609,0,1.304c0,0.696,0,1.276,0,1.738V67.05c0,1.855,0.071,2.984,0.216,3.389
			c0.144,0.406,0.62,0.639,1.428,0.697c1.152,0.117,2.191,0.173,3.114,0.173C168.777,71.309,169.066,71.483,169.066,71.831z"/>
	</g>
	<g>
		<path fill="#FFFFFF" d="M173.455,47.379c0-3.469,2.787-6.255,6.255-6.255s6.255,2.787,6.255,6.255
			c0,3.469-2.787,6.255-6.255,6.255C176.128,53.634,173.455,50.734,173.455,47.379z"/>
	</g>
</g>
<g id="secondary">
</g>
</svg>
