<?xml version="1.0" encoding="utf-8"?>
<!-- Generator: Adobe Illustrator 17.0.0, SVG Export Plug-In . SVG Version: 6.00 Build 0)  -->
<!DOCTYPE svg PUBLIC "-//W3C//DTD SVG 1.1//EN" "http://www.w3.org/Graphics/SVG/1.1/DTD/svg11.dtd">
<svg version="1.1" xmlns="http://www.w3.org/2000/svg" xmlns:xlink="http://www.w3.org/1999/xlink" x="0px" y="0px" width="320px"
	 height="88px" viewBox="0 0 320 88" enable-background="new 0 0 320 88" xml:space="preserve">
<g id="backup">
	
		<text transform="matrix(1 0 0 1 10.666 29.4551)" fill="#FFFFFF" font-family="'KozMinPr6N-Heavy-83pv-RKSJ-H'" font-size="23.0604">西曆</text>
	
		<text transform="matrix(1 0 0 1 117.79 72.3457)" fill="#FFFFFF" font-family="'KozMinPr6N-Heavy-83pv-RKSJ-H'" font-size="44.5358">年</text>
	
		<text transform="matrix(1 0 0 1 187.4053 72.3467)" fill="#FFFFFF" font-family="'KozMinPr6N-Heavy-83pv-RKSJ-H'" font-size="44.5358">月</text>
	
		<text transform="matrix(1 0 0 1 9.666 73.4287)" fill="#FFFFFF" font-family="'BodoniSvtyTwoITCTT-Bold'" font-size="52.6542" letter-spacing="-1">2016</text>
	<text transform="matrix(1 0 0 1 161.0098 73.4287)" fill="#FFFFFF" font-family="'BodoniSvtyTwoITCTT-Bold'" font-size="52.6542">3</text>
	
		<text transform="matrix(1 0 0 1 272.9639 72.3467)" fill="#FFFFFF" font-family="'KozMinPr6N-Heavy-83pv-RKSJ-H'" font-size="44.5358">日</text>
	
		<text transform="matrix(1 0 0 1 223.1416 73.4287)" fill="#FFFFFF" font-family="'BodoniSvtyTwoITCTT-Bold'" font-size="52.6542" letter-spacing="-2">16</text>
</g>
<g id="backgrounds">
	<rect fill="#4D4D4D" width="320" height="88"/>
</g>
<g id="stripes">
</g>
<g id="main">
	<g>
		<path fill="#FFFFFF" d="M33.123,12.439c-0.162,0.254-0.462,0.323-1.13,0.323h-6.295v4.911h2.029l1.406-1.845l3.205,2.375
			c-0.161,0.207-0.415,0.368-0.969,0.461v11.942c0,0.162-1.083,0.854-2.812,0.854h-0.6v-1.96H16.223v1.223
			c0,0.207-0.991,0.944-2.651,0.944h-0.6V16.382l3.505,1.292h1.291v-4.911h-6.341l-0.115-0.369h16.646l1.821-2.282L33.123,12.439z
			 M16.223,29.132h11.735v-4.564c-0.346,0.415-0.969,0.622-1.845,0.622h-0.715c-2.536,0-2.812-0.484-2.812-3.389v-3.759H20.88
			c0,2.975-0.392,6.387-4.657,8.623V29.132z M16.223,26.158c1.452-2.352,1.545-5.303,1.545-8.116h-1.545V26.158z M22.586,17.674
			v-4.911H20.88v4.911H22.586z M27.958,18.042h-2.26v3.805c0,0.554,0,0.622,0.139,0.622c0.6,0,0.876,0,1.43-1.222h0.115l0.069,1.153
			c0.23,0.138,0.392,0.23,0.507,0.322V18.042z"/>
		<path fill="#FFFFFF" d="M38.983,12.278v5.118c0,4.22-0.161,10.329-4.496,14.249l-0.207-0.139c1.567-4.265,1.591-9.684,1.591-14.11
			v-6.709l3.573,1.222h11.874l1.683-2.167l3.09,2.213c-0.161,0.254-0.484,0.323-1.106,0.323H38.983z M56.275,16.89
			c-0.161,0.254-0.507,0.322-1.084,0.322h-2.489c0.737,1.084,2.121,1.845,3.504,2.168l-0.022,0.253
			c-1.015,0.3-1.66,1.245-1.983,2.79c-1.106-1.152-1.591-2.836-1.891-5.118h-0.022v4.796c0,0.138-0.854,0.714-2.26,0.714H49.52
			v-2.513c-0.898,0.784-1.982,1.452-3.228,2.029l-0.185-0.346c1.291-1.269,2.099-2.951,2.536-4.773H47.03v-0.022
			c-0.139,0.022-0.323,0.022-0.508,0.022h-2.075v1.061c2.19,0.231,2.929,0.945,2.929,1.614c0,0.623-0.669,1.199-1.384,1.199
			c-0.369,0-0.761-0.161-1.061-0.554c0.023-0.622-0.185-1.337-0.484-1.867v3.573c0,0.162-0.853,0.715-2.213,0.715H41.75v-2.697
			c-0.784,0.669-1.683,1.268-2.651,1.775l-0.208-0.346c1.084-1.223,1.775-2.836,2.19-4.474h-1.775l-0.115-0.368h2.56v-1.568
			c-0.807,0.093-1.637,0.162-2.421,0.208l-0.092-0.346c1.937-0.6,4.334-1.707,5.556-2.468l2.099,1.938
			c-0.115,0.092-0.276,0.161-0.484,0.161c-0.207,0-0.484-0.069-0.784-0.185c-0.346,0.092-0.737,0.185-1.176,0.254v1.821l0.992-1.36
			l2.052,1.545h2.028v-1.638c-0.761,0.069-1.498,0.115-2.213,0.139l-0.093-0.369c2.099-0.553,4.75-1.613,6.11-2.374l2.075,1.982
			c-0.115,0.092-0.3,0.161-0.508,0.161c-0.207,0-0.461-0.069-0.761-0.185c-0.53,0.115-1.152,0.208-1.844,0.323v1.96h0.299
			l1.292-1.821L56.275,16.89z M50.35,24.106l1.153-1.499l3.112,2.145c-0.115,0.161-0.392,0.346-0.807,0.438v5.58
			c0,0.022-0.899,0.715-3.229,0.715v-1.407h-6.848v0.462c0,0.068-0.461,1.152-3.158,1.152v-8.877l3.343,1.292H50.35z M50.58,24.475
			h-6.848v2.375h6.848V24.475z M43.732,29.709h6.848v-2.49h-6.848V29.709z"/>
	</g>
	<g>
		<path fill="#FFFFFF" d="M154.803,58.493l6.414,4.499c-0.356,0.49-0.936,0.624-2.227,0.624h-14.075v11.269
			c-0.044,0.4-2.049,1.736-5.522,1.736h-1.292V63.616h-18.93l-0.223-0.713h7.616V49.185c-1.871,1.692-3.964,3.118-6.191,4.276
			l-0.445-0.356c3.386-4.009,6.592-11.313,8.106-18.886l8.508,2.851c-0.179,0.579-0.669,0.936-1.916,0.892
			c-0.623,1.38-1.291,2.672-2.049,3.875h16.614l3.519-4.365l6.369,4.454c-0.312,0.534-0.936,0.623-2.183,0.623h-11.981v8.953h2.896
			l3.251-4.098l6.013,4.187c-0.312,0.49-0.979,0.624-2.182,0.624h-9.978v10.689h6.414L154.803,58.493z M138.101,42.548h-5.924
			c-1.604,2.539-3.385,4.633-5.39,6.459l6.859,2.494h4.454V42.548z M133.022,62.903h5.078V52.214h-5.078V62.903z"/>
	</g>
	<g>
		<path fill="#FFFFFF" d="M217.826,35.2l6.325,4.677c-0.268,0.356-0.802,0.757-1.737,0.936v28.193c0,4.098-1.158,7.127-8.463,7.617
			c0-5.657-2.895-6.236-6.013-6.682v-0.49h7.127c0.489,0,0.668-0.223,0.668-0.623v-9.442h-13.54
			c-0.892,6.547-3.742,12.961-12.917,17.281l-0.356-0.312c6.414-6.682,7.082-15.144,7.082-23.829v-16.48l7.527,2.494h11.759
			L217.826,35.2z M202.549,52.481c0,2.049-0.044,4.098-0.267,6.191h13.451v-9.531h-13.185V52.481z M215.733,39.253h-13.185v9.176
			h13.185V39.253z"/>
	</g>
	<g>
		<path fill="#FFFFFF" d="M37.415,61.792c0,0.281-0.035,0.614-0.105,1.001c-0.526,2.983-0.931,6.581-1.211,10.794
			c-4.213-0.141-8.319-0.211-12.321-0.211c-0.211,0-0.632,0.009-1.264,0.026c-0.843,0.019-1.545,0.026-2.106,0.026l-7.003,0.118
			c-0.246,0-0.509,0.014-0.79,0.04h-0.421c-1.264,0-1.896-0.21-1.896-0.631c0-0.28,0.264-0.631,0.79-1.052
			c4.282-3.399,7.906-6.737,10.873-10.015c2.966-3.276,4.449-7.386,4.449-12.328c0-3.294-0.79-5.818-2.369-7.57
			c-1.124-1.227-2.633-1.84-4.528-1.84c-1.58,0-2.888,0.447-3.923,1.343c-1.036,0.895-1.554,1.834-1.554,2.816
			c0,0.562,0.244,0.914,0.73,1.054c0.174,0.035,0.678,0.088,1.514,0.158c1.078,0.07,1.948,0.465,2.609,1.185
			c0.66,0.72,0.991,1.624,0.991,2.711c0,1.089-0.314,1.975-0.942,2.659c-0.627,0.685-1.446,1.027-2.457,1.027
			c-1.325,0-2.397-0.509-3.217-1.527c-0.819-1.018-1.229-2.369-1.229-4.055c0-2.878,0.975-5.134,2.923-6.766
			c1.948-1.633,4.624-2.448,8.029-2.448c3.51,0,6.371,0.973,8.583,2.917c2.211,1.945,3.317,4.458,3.317,7.542
			c0,6.062-5.6,12.158-16.797,18.29h1.737h4.792c3.825-0.035,6.3-0.124,7.424-0.266c1.509-0.142,2.527-0.495,3.054-1.062
			c0.386-0.461,0.72-1.417,1.001-2.868c0.21-1.204,0.491-1.807,0.842-1.807C37.257,61.055,37.415,61.301,37.415,61.792z"/>
		<path fill="#FFFFFF" d="M65.891,56.474c0,5.126-1.247,9.338-3.738,12.638c-2.493,3.3-5.652,4.949-9.479,4.949
			s-7.091-1.737-9.793-5.213c-2.704-3.475-4.055-7.669-4.055-12.584c0-6.563,2.054-11.619,6.16-15.165
			c2.142-1.859,4.687-2.79,7.636-2.79c2.667,0,4.931,0.72,6.792,2.158c1.966,1.546,3.536,3.757,4.713,6.635
			C65.302,49.98,65.891,53.104,65.891,56.474z M57.202,55.577c0-7.429-0.544-12.254-1.632-14.473
			c-0.632-1.267-1.65-1.901-3.054-1.901c-1.791,0-3.055,1.232-3.791,3.697c-0.809,2.712-1.212,6.69-1.212,11.938
			c0,8.346,0.772,13.804,2.317,16.374c0.771,1.303,1.737,1.953,2.896,1.953c1.755,0,2.931-1.249,3.528-3.75
			C56.887,66.774,57.202,62.162,57.202,55.577z"/>
		<path fill="#FFFFFF" d="M86.862,73.061c0,0.281-0.457,0.421-1.369,0.421h-1.264c-0.492-0.035-2.422-0.035-5.792,0h-6.582
			c-0.421,0-0.913,0-1.475,0c-0.491,0-0.772,0-0.842,0c-0.878,0-1.316-0.157-1.316-0.473c0-0.209,0.086-0.332,0.261-0.366
			c0.174-0.035,0.852-0.053,2.033-0.053c1.53-0.035,2.469-0.228,2.816-0.578c0.208-0.314,0.312-0.786,0.312-1.416V51.077
			c0-4.163-0.035-6.419-0.104-6.77c-0.104-0.56-0.591-0.839-1.46-0.839H69.42c-0.903,0.035-1.355-0.105-1.355-0.422
			c0-0.21,0.577-0.368,1.731-0.474c2.972-0.245,5.507-0.982,7.604-2.211c0.104-0.07,0.734-0.475,1.889-1.212l1.992-1.211l0.21,0.79
			c0,0.105,0,0.387,0,0.843v25.537c0,3.194,0,5.002,0,5.424c0.035,1.404,0.734,2.089,2.095,2.053
			C85.77,72.517,86.862,72.674,86.862,73.061z"/>
		<path fill="#FFFFFF" d="M114.21,61.845c0,3.932-1.492,7.161-4.476,9.688c-2,1.721-4.476,2.58-7.424,2.58
			c-4.107,0-7.424-1.396-9.951-4.187c-2.528-2.79-3.792-6.449-3.792-10.978c0-3.826,0.878-7.319,2.633-10.479
			s4.229-5.695,7.425-7.608c3.193-1.913,6.984-2.87,11.373-2.87c1.334,0,2.001,0.124,2.001,0.369c0,0.21-0.195,0.315-0.583,0.315
			c-1.733,0.035-3.483,0.439-5.25,1.211c-1.768,0.772-3.217,1.773-4.349,3.002c-2.721,2.878-4.348,6.459-4.878,10.741
			c1.907-1.755,3.99-2.633,6.251-2.633c3.144,0,5.766,1.036,7.867,3.106C113.159,56.176,114.21,58.756,114.21,61.845z
			 M105.628,64.267c0-4.071-0.369-7.003-1.105-8.793c-0.737-1.79-1.948-2.686-3.634-2.686c-2.633,0-3.949,2.932-3.949,8.793
			c0,4.002,0.632,7.232,1.896,9.688c0.667,1.3,1.65,1.948,2.949,1.948c1.369,0,2.352-0.701,2.948-2.105
			S105.628,67.426,105.628,64.267z"/>
	</g>
	<g>
		<path fill="#FFFFFF" d="M187.811,63.161c0,3.125-1.404,5.731-4.212,7.819c-2.809,2.089-6.337,3.133-10.584,3.133
			c-2.948,0-5.257-0.562-6.924-1.685c-1.668-1.123-2.501-2.668-2.501-4.634c0-1.264,0.395-2.299,1.185-3.106s1.816-1.211,3.08-1.211
			c2.387,0,3.581,1.088,3.581,3.264c0,1.686-1.142,2.862-3.423,3.528c-0.808,0.246-1.211,0.526-1.211,0.843
			c0,0.387,0.5,0.789,1.501,1.211c1,0.421,1.991,0.632,2.975,0.632c2.562,0,4.562-0.86,6.003-2.58
			c1.438-1.72,2.158-4.125,2.158-7.214c0-2.983-0.86-5.107-2.58-6.371c-1.158-0.843-2.527-1.264-4.106-1.264h-0.737
			c-0.246,0-0.65,0-1.211,0c-0.422,0-0.632-0.14-0.632-0.42c0-0.245,0.079-0.402,0.236-0.472c0.158-0.07,0.764-0.192,1.817-0.368
			c1.438-0.244,2.641-1.093,3.606-2.545c0.965-1.451,1.448-3.122,1.448-5.011c0-1.924-0.579-3.489-1.738-4.696
			c-1.158-1.207-2.668-1.811-4.528-1.811c-1.193,0-2.246,0.263-3.159,0.79c-0.913,0.526-1.369,1.141-1.369,1.843
			c0,0.315,0.23,0.509,0.692,0.579c2.697,0.492,4.047,1.65,4.047,3.475c0,0.914-0.283,1.659-0.849,2.238
			c-0.566,0.579-1.309,0.869-2.229,0.869c-1.238,0-2.21-0.369-2.918-1.106s-1.061-1.737-1.061-3.001c0-2.246,0.93-4.062,2.791-5.45
			c1.86-1.386,4.282-2.079,7.266-2.079c3.44,0,6.214,0.729,8.319,2.185c2.106,1.457,3.159,3.362,3.159,5.713
			c0,1.861-0.799,3.528-2.396,5.003c-1.598,1.474-3.712,2.492-6.345,3.054l0.053,0.263c2.527,0.036,4.809,0.668,6.845,1.896
			C186.494,58.054,187.811,60.283,187.811,63.161z"/>
	</g>
	<g>
		<path fill="#FFFFFF" d="M304.499,36.269l6.28,4.722c-0.268,0.356-0.847,0.757-1.737,0.936v31.936c0,0.089-1.692,1.915-6.682,1.915
			v-4.588h-17.192v2.45c0,0.891-2.583,2.672-5.567,2.672h-0.979V36.893l6.948,2.762h16.346L304.499,36.269z M302.36,40.411h-17.192
			v14.342h17.192V40.411z M285.168,70.476h17.192v-15.01h-17.192V70.476z"/>
	</g>
	
		<text transform="matrix(1 0 0 1 223.1416 73.4287)" fill="#FFFFFF" font-family="'BodoniSvtyTwoITCTT-Bold'" font-size="52.6542" letter-spacing="-2">15</text>
</g>
<g id="secondary">
</g>
</svg>
