<?xml version="1.0" encoding="utf-8"?>
<!-- Generator: Adobe Illustrator 17.0.0, SVG Export Plug-In . SVG Version: 6.00 Build 0)  -->
<!DOCTYPE svg PUBLIC "-//W3C//DTD SVG 1.1//EN" "http://www.w3.org/Graphics/SVG/1.1/DTD/svg11.dtd">
<svg version="1.1" id="logotype" xmlns="http://www.w3.org/2000/svg" xmlns:xlink="http://www.w3.org/1999/xlink" x="0px" y="0px"
	 width="1814.173px" height="680.315px" viewBox="52.913 199.843 1814.173 680.315"
	 enable-background="new 52.913 199.843 1814.173 680.315" xml:space="preserve">
<rect x="152" y="473.333" width="31.667" height="181.667"/>
<rect x="760" y="424" width="31.667" height="231"/>
<rect x="513.333" y="473.333" width="31.667" height="181.667"/>
<rect x="272" y="502.667" width="31.667" height="152.333"/>
<rect x="846" y="502.667" width="31.667" height="152.333"/>
<rect x="917.167" y="502.667" width="31.667" height="152.333"/>
<rect x="1003.833" y="502.667" width="31.667" height="152.333"/>
<polygon points="377,655 345.333,655 364.667,502.667 396.333,502.667 "/>
<polygon points="627,655 595.333,655 614.667,502.667 646.333,502.667 "/>
<polygon points="441.333,655 473,655 453.667,502.667 422,502.667 "/>
<rect x="212" y="557.333" width="31.667" height="97.667"/>
<rect x="152" y="628" width="151.667" height="27"/>
<rect x="364.667" y="502.667" width="89" height="30"/>
<rect x="364.667" y="582.667" width="89" height="30"/>
<rect x="484.667" y="502.667" width="89" height="30"/>
<rect x="1252.667" y="473.333" width="31.667" height="181.667"/>
<rect x="1224" y="502.667" width="89" height="30"/>
<rect x="788.667" y="502.667" width="89" height="30"/>
<rect x="631.333" y="502.667" width="89" height="30"/>
<rect x="933" y="502.667" width="89" height="30"/>
<rect x="933" y="625" width="89" height="30"/>
<rect x="1075.167" y="532.667" width="31.667" height="122.333"/>
<rect x="1161.833" y="502.667" width="31.667" height="152.333"/>
<rect x="1091" y="625" width="89" height="30"/>
<rect x="612.333" y="625" width="108" height="30"/>
<rect x="1430" y="463.5" width="99.5" height="23.5"/>
<rect x="1415" y="525" width="129.5" height="23.5"/>
<rect x="1578.5" y="464" width="187.5" height="21.5"/>
<rect x="1600.5" y="505.5" width="143.5" height="21.5"/>
<rect x="1600.5" y="538.5" width="143.5" height="21.5"/>
<rect x="1600.5" y="573" width="143.5" height="21.5"/>
<rect x="1578" y="606.5" width="188.5" height="21.5"/>
<rect x="1366.5" y="514.5" width="35" height="23.5"/>
<rect x="1466.5" y="475.5" width="26.5" height="57"/>
<rect x="1592.5" y="505.5" width="24" height="89"/>
<rect x="1623.5" y="451" width="24" height="48"/>
<rect x="1661.5" y="593" width="24" height="63"/>
<rect x="1697.5" y="451" width="24" height="48"/>
<rect x="1729.5" y="505.5" width="24" height="89"/>
<polygon points="1439,656 1412.5,656 1466,546.5 1492.5,546.5 "/>
<polygon points="1520.5,656 1547,656 1493.5,546.5 1467,546.5 "/>
<polygon points="1381.5,656 1355,656 1373.5,554.5 1400,554.5 "/>
<polygon points="1401.5,498 1375,498 1357,463 1383.5,463 "/>
</svg>
